<svg width="2309" height="1338" viewBox="0 0 2309 1338" fill="none" xmlns="http://www.w3.org/2000/svg">
<g filter="url(#filter0_d_1036_1087)">
<g filter="url(#filter1_f_1036_1087)">
<path d="M275.94 1231.97H1994.14C2012.68 1231.97 2057.55 1236.82 2094.37 1242.82C2131.18 1248.81 2143.75 1253.66 2122.44 1253.66H147.643C126.336 1253.66 138.905 1248.81 175.718 1242.82C212.531 1236.82 257.402 1231.97 275.94 1231.97Z" fill="black" fill-opacity="0.4"/>
</g>
<path d="M44 1183.16C44 1181.96 44.9711 1180.99 46.1691 1180.99H1132.33C1133.53 1180.99 1134.5 1181.96 1134.5 1183.16V1214.61H44V1183.16Z" fill="url(#paint0_linear_1036_1087)"/>
<path d="M2224.46 1183.16C2224.46 1181.96 2223.49 1180.99 2222.29 1180.99H1136.13C1134.93 1180.99 1133.96 1181.96 1133.96 1183.16V1214.61H2224.46V1183.16Z" fill="url(#paint1_linear_1036_1087)"/>
<path d="M1003.81 1204.85H1265.19C1278.96 1204.85 1290.13 1194.17 1290.13 1180.99H978.869C978.869 1194.17 990.037 1204.85 1003.81 1204.85Z" fill="#4E4F53"/>
<path d="M1003.81 1204.85H1265.19C1278.96 1204.85 1290.13 1194.17 1290.13 1180.99H978.869C978.869 1194.17 990.037 1204.85 1003.81 1204.85Z" fill="url(#paint2_linear_1036_1087)"/>
<path fill-rule="evenodd" clip-rule="evenodd" d="M1132.87 1214.61H44C44 1214.61 91.7195 1244.98 248.435 1244.98H1132.87H1135.04H2020.57C2177.28 1244.98 2225 1214.61 2225 1214.61H1135.04H1132.87Z" fill="url(#paint3_linear_1036_1087)"/>
</g>
<g filter="url(#filter2_dd_1036_1087)">
<path d="M251.146 85.2995C251.146 56.1419 251.146 41.5632 256.82 30.4264C261.811 20.6303 269.775 12.6658 279.57 7.67444C290.706 2 305.283 2 334.439 2H1934.56C1963.72 2 1978.29 2 1989.43 7.67444C1999.23 12.6658 2007.19 20.6303 2012.18 30.4264C2017.85 41.5632 2017.85 56.1419 2017.85 85.2995V1131.32C2017.85 1160.47 2017.85 1175.05 2012.18 1186.19C2007.19 1195.98 1999.23 1203.95 1989.43 1208.94C1978.29 1214.61 1963.72 1214.61 1934.56 1214.61H334.439C305.284 1214.61 290.706 1214.61 279.57 1208.94C269.775 1203.95 261.811 1195.98 256.82 1186.19C251.146 1175.05 251.146 1160.47 251.146 1131.32V85.2995Z" fill="#3A4245"/>
</g>
<path d="M255.484 82.6963C255.484 55.9685 255.484 42.6046 260.685 32.396C265.261 23.4162 272.561 16.1154 281.54 11.5399C291.747 6.33838 305.11 6.33838 331.836 6.33838H1937.16C1963.89 6.33838 1977.25 6.33838 1987.46 11.5399C1996.44 16.1154 2003.74 23.4162 2008.31 32.396C2013.52 42.6046 2013.52 55.9685 2013.52 82.6962V1133.92C2013.52 1160.65 2013.52 1174.01 2008.31 1184.22C2003.74 1193.2 1996.44 1200.5 1987.46 1205.07C1977.25 1210.28 1963.89 1210.28 1937.16 1210.28H331.836C305.11 1210.28 291.747 1210.28 281.54 1205.07C272.561 1200.5 265.261 1193.2 260.685 1184.22C255.484 1174.01 255.484 1160.65 255.484 1133.92V82.6963Z" fill="#262C2D"/>
<path d="M259.823 80.0935C259.823 55.7955 259.823 43.6465 264.551 34.3659C268.71 26.2025 275.346 19.5654 283.509 15.4059C292.789 10.6772 304.937 10.6772 329.233 10.6772H1939.77C1964.06 10.6772 1976.21 10.6772 1985.49 15.4059C1993.65 19.5654 2000.29 26.2025 2004.45 34.3659C2009.18 43.6465 2009.18 55.7955 2009.18 80.0935V1136.52C2009.18 1160.82 2009.18 1172.97 2004.45 1182.25C2000.29 1190.41 1993.65 1197.05 1985.49 1201.21C1976.21 1205.94 1964.06 1205.94 1939.77 1205.94H329.233C304.937 1205.94 292.789 1205.94 283.509 1201.21C275.346 1197.05 268.71 1190.41 264.551 1182.25C259.823 1172.97 259.823 1160.82 259.823 1136.52V80.0935Z" fill="#121515"/>
<rect x="259.823" y="1148.45" width="1749.35" height="32.5388" fill="#262C2D"/>
<path fill-rule="evenodd" clip-rule="evenodd" d="M1134.5 50.8084C1137.79 50.8084 1140.47 48.1375 1140.47 44.8429C1140.47 41.5483 1137.79 38.8774 1134.5 38.8774C1131.21 38.8774 1128.54 41.5483 1128.54 44.8429C1128.54 48.1375 1131.21 50.8084 1134.5 50.8084Z" fill="#262C2D"/>
<path fill-rule="evenodd" clip-rule="evenodd" d="M1134.5 48.5711C1136.56 48.5711 1138.23 46.9018 1138.23 44.8427C1138.23 42.7835 1136.56 41.1143 1134.5 41.1143C1132.44 41.1143 1130.77 42.7835 1130.77 44.8427C1130.77 46.9018 1132.44 48.5711 1134.5 48.5711Z" fill="#121515"/>
<path opacity="0.4" fill-rule="evenodd" clip-rule="evenodd" d="M1134.5 44.0973C1134.91 44.0973 1135.25 43.7635 1135.25 43.3516C1135.25 42.9398 1134.91 42.606 1134.5 42.606C1134.09 42.606 1133.75 42.9398 1133.75 43.3516C1133.75 43.7635 1134.09 44.0973 1134.5 44.0973Z" fill="#636F73"/>
<g filter="url(#filter3_d_1036_1087)">
<rect width="1676" height="1057" transform="translate(296 73)" fill="url(#paint4_linear_1036_1087)"/>
<path d="M595.312 429.891C593.438 429.891 592.5 430.609 592.5 432.047C592.5 432.312 592.547 432.594 592.641 432.891C592.75 433.188 592.844 433.5 592.922 433.828L601.898 455.438C601.977 455.594 602.102 455.672 602.273 455.672C602.445 455.672 602.586 455.586 602.695 455.414L607.875 443.227L603.305 432.188C603.023 431.484 601.852 430.812 599.789 430.172C599.18 429.984 598.781 429.891 598.594 429.891C598.422 429.891 598.336 429.828 598.336 429.703V429.141C598.336 429.016 598.398 428.953 598.523 428.953H619.992C620.117 428.953 620.18 429.016 620.18 429.141V429.703C620.18 429.828 620.117 429.891 619.992 429.891H619.125C617.625 429.891 616.484 430.625 615.703 432.094C615.438 432.594 615.164 433.18 614.883 433.852L611.836 441L617.836 455.438C617.914 455.594 618.039 455.672 618.211 455.672C618.383 455.672 618.523 455.586 618.633 455.414L628.547 432.094C628.734 431.656 628.828 431.266 628.828 430.922C628.828 430.234 627.93 429.891 626.133 429.891H624.68C624.555 429.891 624.492 429.828 624.492 429.703V429.141C624.492 429.016 624.555 428.953 624.68 428.953H635.109C635.234 428.953 635.297 429.016 635.297 429.141V429.703C635.297 429.828 635.234 429.891 635.109 429.891H634.008C633.32 429.891 632.797 430.133 632.438 430.617C632.094 431.086 631.602 432.055 630.961 433.523L618.914 461.812C618.742 462.188 618.562 462.414 618.375 462.492C618.188 462.586 617.914 462.633 617.555 462.633H616.453C616.078 462.633 615.828 462.461 615.703 462.117L609.375 446.789L602.977 461.812C602.805 462.188 602.625 462.414 602.438 462.492C602.25 462.586 601.977 462.633 601.617 462.633H600.516C600.141 462.633 599.898 462.453 599.789 462.094L587.367 432.188C587.117 431.578 586.344 431.047 585.047 430.594C583.75 430.125 582.945 429.891 582.633 429.891C582.336 429.891 582.188 429.828 582.188 429.703V429.141C582.188 429.016 582.25 428.953 582.375 428.953H595.734C595.859 428.953 595.922 429.016 595.922 429.141V429.703C595.922 429.828 595.859 429.891 595.734 429.891H595.312ZM612.891 430.992C612.891 430.336 612.219 429.977 610.875 429.914C609.516 429.992 608.734 430.469 608.531 431.344C608.469 431.562 608.438 431.805 608.438 432.07C608.438 432.32 608.484 432.594 608.578 432.891C608.688 433.188 608.781 433.5 608.859 433.828L610.336 437.414L612.609 432.094C612.797 431.656 612.891 431.289 612.891 430.992ZM640.805 449.648C640.539 449.648 640.406 450.219 640.406 451.359C640.406 453.781 641.125 455.812 642.562 457.453C644 459.094 645.781 459.914 647.906 459.914C650.047 459.914 652.102 458.992 654.07 457.148C654.102 457.117 654.141 457.102 654.188 457.102H654.305C654.398 457.102 654.484 457.18 654.562 457.336C654.656 457.477 654.742 457.57 654.82 457.617C653.008 459.82 650.875 461.344 648.422 462.188C647.578 462.484 646.625 462.633 645.562 462.633C644.5 462.633 643.422 462.344 642.328 461.766C641.234 461.172 640.297 460.398 639.516 459.445C637.859 457.461 637.031 454.992 637.031 452.039C637.031 449.07 637.93 446.367 639.727 443.93C641.539 441.492 644.023 440.273 647.18 440.273C649.445 440.273 651.297 441.289 652.734 443.32C654.172 445.336 654.891 447.109 654.891 448.641C654.891 449.312 654.727 449.648 654.398 449.648H640.805ZM641.062 447.398C641.062 447.695 641.203 447.844 641.484 447.844H650.32C650.727 447.844 650.93 447.602 650.93 447.117C650.93 445.992 650.422 444.844 649.406 443.672C648.406 442.484 647.305 441.891 646.102 441.891C644.93 441.891 643.859 442.422 642.891 443.484C641.938 444.547 641.328 445.758 641.062 447.117V447.398ZM667.477 461.109C668.211 461.203 668.578 461.391 668.578 461.672C668.578 461.859 668.5 461.969 668.344 462H657.891C657.734 461.969 657.656 461.859 657.656 461.672C657.656 461.391 658.023 461.203 658.758 461.109C660.445 460.859 661.289 459.969 661.289 458.438V429.211C661.289 428.555 660.93 428.102 660.211 427.852C659.898 427.742 659.562 427.656 659.203 427.594C658.844 427.516 658.555 427.445 658.336 427.383C658.133 427.32 658 427.266 657.938 427.219C657.891 427.156 657.867 427.039 657.867 426.867C657.867 426.68 657.984 426.523 658.219 426.398L664.195 423.586C664.383 423.492 664.5 423.445 664.547 423.445C664.812 423.445 664.945 423.633 664.945 424.008V458.438C664.945 459.969 665.789 460.859 667.477 461.109ZM689.461 443.086C689.461 444.18 688.828 444.727 687.562 444.727C686.922 444.727 686.375 444.547 685.922 444.188C685.484 443.812 685.141 443.5 684.891 443.25C684.656 442.984 684.406 442.742 684.141 442.523C683.016 441.602 681.641 441.5 680.016 442.219C678.406 442.938 677.164 444.469 676.289 446.812C675.805 448.109 675.562 449.398 675.562 450.68C675.562 453.43 676.188 455.68 677.438 457.43C678.688 459.164 680.602 460.031 683.18 460.031C685.102 460.031 686.828 459.172 688.359 457.453C688.828 456.938 689.109 456.68 689.203 456.68C689.297 456.68 689.398 456.727 689.508 456.82C689.617 456.914 689.672 457.055 689.672 457.242C689.672 457.414 689.625 457.547 689.531 457.641C687.141 460.969 684.133 462.633 680.508 462.633C677.883 462.633 675.727 461.656 674.039 459.703C672.367 457.75 671.531 455.516 671.531 453C671.547 448.344 672.672 444.992 674.906 442.945C676.875 441.148 679.68 440.25 683.32 440.25C685.57 440.25 687.062 440.477 687.797 440.93C688.531 441.383 689.047 441.953 689.344 442.641C689.422 442.797 689.461 442.945 689.461 443.086ZM693.07 451.477C693.07 448.398 694.156 445.758 696.328 443.555C698.516 441.336 701.133 440.227 704.18 440.227C707.227 440.227 709.875 441.305 712.125 443.461C714.375 445.602 715.5 448.25 715.5 451.406C715.5 454.562 714.43 457.227 712.289 459.398C710.164 461.555 707.492 462.633 704.273 462.633C701.055 462.633 698.383 461.539 696.258 459.352C694.133 457.164 693.07 454.539 693.07 451.477ZM698.906 457.5C700.438 460.078 702.523 461.367 705.164 461.367C707.211 461.367 708.773 460.547 709.852 458.906C710.945 457.266 711.492 455.25 711.492 452.859C711.492 450.469 710.727 448.016 709.195 445.5C707.68 442.984 705.633 441.727 703.055 441.727C701.164 441.727 699.672 442.547 698.578 444.188C697.5 445.812 696.961 447.883 696.961 450.398C696.961 452.898 697.609 455.266 698.906 457.5ZM749.812 454.617L749.766 449.672C749.766 447.656 749.594 446.242 749.25 445.43C748.906 444.617 748.469 444.008 747.938 443.602C747.406 443.18 746.688 442.969 745.781 442.969C744.891 442.969 742.992 443.672 740.086 445.078C739.695 445.312 739.492 445.531 739.477 445.734V458.344C739.477 459.922 740.32 460.828 742.008 461.062C742.742 461.172 743.109 461.352 743.109 461.602C743.109 461.836 743.031 461.969 742.875 462H732.422C732.266 461.969 732.188 461.859 732.188 461.672C732.188 461.375 732.555 461.172 733.289 461.062C734.977 460.828 735.82 459.922 735.82 458.344V446.672C735.82 444.219 734.305 442.992 731.273 442.992C730.164 442.992 728.625 443.648 726.656 444.961C726.156 445.289 725.789 445.594 725.555 445.875V458.344C725.555 459.922 726.398 460.828 728.086 461.062C728.82 461.172 729.188 461.352 729.188 461.602C729.188 461.836 729.109 461.969 728.953 462H718.5C718.344 461.969 718.266 461.859 718.266 461.672C718.266 461.375 718.633 461.172 719.367 461.062C721.055 460.828 721.898 459.938 721.898 458.391V444.891C721.898 444.234 721.539 443.781 720.82 443.531C720.508 443.422 720.172 443.336 719.812 443.273C719.453 443.195 719.164 443.125 718.945 443.062C718.742 443 718.609 442.945 718.547 442.898C718.5 442.836 718.477 442.719 718.477 442.547C718.477 442.359 718.594 442.203 718.828 442.078L724.805 439.266C724.992 439.172 725.109 439.125 725.156 439.125C725.422 439.125 725.555 439.312 725.555 439.688V443.578C725.57 443.672 725.625 443.719 725.719 443.719C725.828 443.719 726.086 443.609 726.492 443.391C726.914 443.172 727.461 442.867 728.133 442.477C728.805 442.07 729.688 441.602 730.781 441.07C731.891 440.539 733.062 440.273 734.297 440.273C736.281 440.273 737.703 441.125 738.562 442.828C738.891 443.516 739.188 443.812 739.453 443.719C739.719 443.609 740.133 443.414 740.695 443.133C742.023 442.477 743.367 441.836 744.727 441.211C746.086 440.586 747.211 440.273 748.102 440.273C751.711 440.273 753.516 443.562 753.516 450.141L753.305 456.984V458.344C753.305 459.562 753.914 460.359 755.133 460.734C755.648 460.906 756.141 461.031 756.609 461.109C757.094 461.172 757.406 461.234 757.547 461.297C757.703 461.359 757.781 461.484 757.781 461.672C757.781 461.859 757.703 461.969 757.547 462H746.25C746.094 461.969 746.016 461.859 746.016 461.672C746.016 461.375 746.383 461.172 747.117 461.062C748.789 460.828 749.625 459.859 749.625 458.156C749.75 457.375 749.812 456.195 749.812 454.617ZM763.289 449.648C763.023 449.648 762.891 450.219 762.891 451.359C762.891 453.781 763.609 455.812 765.047 457.453C766.484 459.094 768.266 459.914 770.391 459.914C772.531 459.914 774.586 458.992 776.555 457.148C776.586 457.117 776.625 457.102 776.672 457.102H776.789C776.883 457.102 776.969 457.18 777.047 457.336C777.141 457.477 777.227 457.57 777.305 457.617C775.492 459.82 773.359 461.344 770.906 462.188C770.062 462.484 769.109 462.633 768.047 462.633C766.984 462.633 765.906 462.344 764.812 461.766C763.719 461.172 762.781 460.398 762 459.445C760.344 457.461 759.516 454.992 759.516 452.039C759.516 449.07 760.414 446.367 762.211 443.93C764.023 441.492 766.508 440.273 769.664 440.273C771.93 440.273 773.781 441.289 775.219 443.32C776.656 445.336 777.375 447.109 777.375 448.641C777.375 449.312 777.211 449.648 776.883 449.648H763.289ZM763.547 447.398C763.547 447.695 763.688 447.844 763.969 447.844H772.805C773.211 447.844 773.414 447.602 773.414 447.117C773.414 445.992 772.906 444.844 771.891 443.672C770.891 442.484 769.789 441.891 768.586 441.891C767.414 441.891 766.344 442.422 765.375 443.484C764.422 444.547 763.812 445.758 763.547 447.117V447.398ZM799.898 443.977C799.805 443.977 799.758 444.047 799.758 444.188V457.125C799.758 458.062 799.961 458.797 800.367 459.328C800.789 459.859 801.32 460.125 801.961 460.125C802.602 460.125 803.156 460.023 803.625 459.82C804.109 459.602 804.523 459.367 804.867 459.117C805.227 458.867 805.547 458.641 805.828 458.438C806.109 458.219 806.359 458.109 806.578 458.109C806.797 458.109 806.906 458.164 806.906 458.273C806.906 458.648 806.867 458.891 806.789 459C804.914 461.422 803.102 462.633 801.352 462.633C799.617 462.633 798.305 462.086 797.414 460.992C796.539 459.883 796.102 458.562 796.102 457.031V443.977H794.344C793.906 443.977 793.672 443.836 793.641 443.555C793.625 443.273 793.672 443.094 793.781 443.016C794.609 442.484 795.75 441.531 797.203 440.156C797.359 439.984 797.57 439.727 797.836 439.383C798.102 439.039 798.484 438.57 798.984 437.977C799.5 437.383 799.891 437.086 800.156 437.086C800.422 437.086 800.555 437.195 800.555 437.414C800.555 437.445 800.289 438.469 799.758 440.484C799.758 440.766 799.883 440.914 800.133 440.93H806.109C806.797 440.93 807.141 441.898 807.141 443.836C807.141 443.93 807.078 443.977 806.953 443.977H799.898ZM809.508 451.477C809.508 448.398 810.594 445.758 812.766 443.555C814.953 441.336 817.57 440.227 820.617 440.227C823.664 440.227 826.312 441.305 828.562 443.461C830.812 445.602 831.938 448.25 831.938 451.406C831.938 454.562 830.867 457.227 828.727 459.398C826.602 461.555 823.93 462.633 820.711 462.633C817.492 462.633 814.82 461.539 812.695 459.352C810.57 457.164 809.508 454.539 809.508 451.477ZM815.344 457.5C816.875 460.078 818.961 461.367 821.602 461.367C823.648 461.367 825.211 460.547 826.289 458.906C827.383 457.266 827.93 455.25 827.93 452.859C827.93 450.469 827.164 448.016 825.633 445.5C824.117 442.984 822.07 441.727 819.492 441.727C817.602 441.727 816.109 442.547 815.016 444.188C813.938 445.812 813.398 447.883 813.398 450.398C813.398 452.898 814.047 455.266 815.344 457.5ZM853.945 443.977C853.852 443.977 853.805 444.047 853.805 444.188V457.125C853.805 458.062 854.008 458.797 854.414 459.328C854.836 459.859 855.367 460.125 856.008 460.125C856.648 460.125 857.203 460.023 857.672 459.82C858.156 459.602 858.57 459.367 858.914 459.117C859.273 458.867 859.594 458.641 859.875 458.438C860.156 458.219 860.406 458.109 860.625 458.109C860.844 458.109 860.953 458.164 860.953 458.273C860.953 458.648 860.914 458.891 860.836 459C858.961 461.422 857.148 462.633 855.398 462.633C853.664 462.633 852.352 462.086 851.461 460.992C850.586 459.883 850.148 458.562 850.148 457.031V443.977H848.391C847.953 443.977 847.719 443.836 847.688 443.555C847.672 443.273 847.719 443.094 847.828 443.016C848.656 442.484 849.797 441.531 851.25 440.156C851.406 439.984 851.617 439.727 851.883 439.383C852.148 439.039 852.531 438.57 853.031 437.977C853.547 437.383 853.938 437.086 854.203 437.086C854.469 437.086 854.602 437.195 854.602 437.414C854.602 437.445 854.336 438.469 853.805 440.484C853.805 440.766 853.93 440.914 854.18 440.93H860.156C860.844 440.93 861.188 441.898 861.188 443.836C861.188 443.93 861.125 443.977 861 443.977H853.945ZM869.789 443.859C869.789 444.234 869.844 444.422 869.953 444.422C870.062 444.422 870.141 444.398 870.188 444.352C870.234 444.289 870.562 443.922 871.172 443.25C872.938 441.281 874.727 440.297 876.539 440.297C878.914 440.297 880.656 440.828 881.766 441.891C883.125 443.234 883.805 445.492 883.805 448.664V458.438C883.805 459.969 884.648 460.859 886.336 461.109C887.07 461.203 887.438 461.367 887.438 461.602C887.438 461.836 887.359 461.969 887.203 462H876.75C876.594 461.969 876.516 461.859 876.516 461.672C876.516 461.391 876.883 461.203 877.617 461.109C879.305 460.859 880.148 459.969 880.148 458.438V448.898C880.148 446.602 879.984 445.109 879.656 444.422C879.031 443.047 877.727 442.359 875.742 442.359C874.523 442.359 873.227 442.883 871.852 443.93C870.477 444.961 869.789 446.102 869.789 447.352V458.438C869.789 459.969 870.633 460.859 872.32 461.109C873.055 461.203 873.422 461.367 873.422 461.602C873.422 461.836 873.344 461.969 873.188 462H862.734C862.578 461.969 862.5 461.859 862.5 461.672C862.5 461.391 862.867 461.203 863.602 461.109C865.289 460.859 866.133 459.969 866.133 458.438V429.211C866.133 428.555 865.773 428.102 865.055 427.852C864.742 427.742 864.406 427.656 864.047 427.594C863.688 427.516 863.398 427.445 863.18 427.383C862.977 427.32 862.844 427.266 862.781 427.219C862.734 427.156 862.711 427.039 862.711 426.867C862.711 426.68 862.828 426.523 863.062 426.398L869.039 423.586C869.227 423.492 869.344 423.445 869.391 423.445C869.656 423.445 869.789 423.633 869.789 424.008V443.859ZM893.555 449.648C893.289 449.648 893.156 450.219 893.156 451.359C893.156 453.781 893.875 455.812 895.312 457.453C896.75 459.094 898.531 459.914 900.656 459.914C902.797 459.914 904.852 458.992 906.82 457.148C906.852 457.117 906.891 457.102 906.938 457.102H907.055C907.148 457.102 907.234 457.18 907.312 457.336C907.406 457.477 907.492 457.57 907.57 457.617C905.758 459.82 903.625 461.344 901.172 462.188C900.328 462.484 899.375 462.633 898.312 462.633C897.25 462.633 896.172 462.344 895.078 461.766C893.984 461.172 893.047 460.398 892.266 459.445C890.609 457.461 889.781 454.992 889.781 452.039C889.781 449.07 890.68 446.367 892.477 443.93C894.289 441.492 896.773 440.273 899.93 440.273C902.195 440.273 904.047 441.289 905.484 443.32C906.922 445.336 907.641 447.109 907.641 448.641C907.641 449.312 907.477 449.648 907.148 449.648H893.555ZM893.812 447.398C893.812 447.695 893.953 447.844 894.234 447.844H903.07C903.477 447.844 903.68 447.602 903.68 447.117C903.68 445.992 903.172 444.844 902.156 443.672C901.156 442.484 900.055 441.891 898.852 441.891C897.68 441.891 896.609 442.422 895.641 443.484C894.688 444.547 894.078 445.758 893.812 447.117V447.398ZM934.57 461.062C934.664 461.062 934.711 461.125 934.711 461.25V461.812C934.711 461.938 934.664 462 934.57 462H923.625C923.5 462 923.438 461.938 923.438 461.812V461.25C923.438 461.125 923.5 461.062 923.625 461.062C926.188 461.062 927.578 459.961 927.797 457.758C927.859 457.117 927.922 456.055 927.984 454.57C928.062 453.07 928.273 449.859 928.617 444.938C928.961 440 929.133 436.008 929.133 432.961V432.094C929.133 431.469 928.773 430.945 928.055 430.523C927.352 430.102 926.836 429.891 926.508 429.891C926.18 429.891 926.016 429.828 926.016 429.703V429.141C926.016 429.016 926.078 428.953 926.203 428.953H932.977C933.273 429 933.516 429.172 933.703 429.469L944.695 453.961C944.773 454.07 944.836 454.164 944.883 454.242C944.93 454.32 945.047 454.359 945.234 454.359C945.422 454.344 945.562 454.203 945.656 453.938L956.531 429.891C956.859 429.266 957.156 428.953 957.422 428.953H964.242C964.367 428.953 964.43 429.016 964.43 429.141V429.703C964.43 429.828 964.391 429.891 964.312 429.891C963.844 429.891 963.266 430.047 962.578 430.359C961.531 430.828 961.008 431.523 961.008 432.445L962.414 458.344C962.445 459.156 962.867 459.812 963.68 460.312C964.492 460.812 965.555 461.062 966.867 461.062C966.992 461.062 967.055 461.125 967.055 461.25V461.812C967.055 461.938 966.992 462 966.867 462H953.555C953.43 462 953.367 461.938 953.367 461.812V461.25C953.367 461.125 953.43 461.062 953.555 461.062C956.352 461.062 957.75 460.383 957.75 459.023L956.508 436.641C956.492 436.484 956.445 436.406 956.367 436.406C956.305 436.406 956.25 436.477 956.203 436.617L944.555 461.836C944.492 461.945 944.312 462 944.016 462C943.719 462 943.547 461.938 943.5 461.812L932.016 436.547C931.922 436.328 931.828 436.219 931.734 436.219C931.656 436.219 931.617 436.391 931.617 436.734C931.617 437.453 931.43 440.844 931.055 446.906C930.68 452.969 930.492 456.75 930.492 458.25V459.211C930.68 460.102 931.562 460.68 933.141 460.945C933.594 461.023 934.07 461.062 934.57 461.062ZM973.477 449.648C973.211 449.648 973.078 450.219 973.078 451.359C973.078 453.781 973.797 455.812 975.234 457.453C976.672 459.094 978.453 459.914 980.578 459.914C982.719 459.914 984.773 458.992 986.742 457.148C986.773 457.117 986.812 457.102 986.859 457.102H986.977C987.07 457.102 987.156 457.18 987.234 457.336C987.328 457.477 987.414 457.57 987.492 457.617C985.68 459.82 983.547 461.344 981.094 462.188C980.25 462.484 979.297 462.633 978.234 462.633C977.172 462.633 976.094 462.344 975 461.766C973.906 461.172 972.969 460.398 972.188 459.445C970.531 457.461 969.703 454.992 969.703 452.039C969.703 449.07 970.602 446.367 972.398 443.93C974.211 441.492 976.695 440.273 979.852 440.273C982.117 440.273 983.969 441.289 985.406 443.32C986.844 445.336 987.562 447.109 987.562 448.641C987.562 449.312 987.398 449.648 987.07 449.648H973.477ZM973.734 447.398C973.734 447.695 973.875 447.844 974.156 447.844H982.992C983.398 447.844 983.602 447.602 983.602 447.117C983.602 445.992 983.094 444.844 982.078 443.672C981.078 442.484 979.977 441.891 978.773 441.891C977.602 441.891 976.531 442.422 975.562 443.484C974.609 444.547 974 445.758 973.734 447.117V447.398ZM997.195 443.977C997.102 443.977 997.055 444.047 997.055 444.188V457.125C997.055 458.062 997.258 458.797 997.664 459.328C998.086 459.859 998.617 460.125 999.258 460.125C999.898 460.125 1000.45 460.023 1000.92 459.82C1001.41 459.602 1001.82 459.367 1002.16 459.117C1002.52 458.867 1002.84 458.641 1003.12 458.438C1003.41 458.219 1003.66 458.109 1003.88 458.109C1004.09 458.109 1004.2 458.164 1004.2 458.273C1004.2 458.648 1004.16 458.891 1004.09 459C1002.21 461.422 1000.4 462.633 998.648 462.633C996.914 462.633 995.602 462.086 994.711 460.992C993.836 459.883 993.398 458.562 993.398 457.031V443.977H991.641C991.203 443.977 990.969 443.836 990.938 443.555C990.922 443.273 990.969 443.094 991.078 443.016C991.906 442.484 993.047 441.531 994.5 440.156C994.656 439.984 994.867 439.727 995.133 439.383C995.398 439.039 995.781 438.57 996.281 437.977C996.797 437.383 997.188 437.086 997.453 437.086C997.719 437.086 997.852 437.195 997.852 437.414C997.852 437.445 997.586 438.469 997.055 440.484C997.055 440.766 997.18 440.914 997.43 440.93H1003.41C1004.09 440.93 1004.44 441.898 1004.44 443.836C1004.44 443.93 1004.38 443.977 1004.25 443.977H997.195ZM1010.46 449.648C1010.2 449.648 1010.06 450.219 1010.06 451.359C1010.06 453.781 1010.78 455.812 1012.22 457.453C1013.66 459.094 1015.44 459.914 1017.56 459.914C1019.7 459.914 1021.76 458.992 1023.73 457.148C1023.76 457.117 1023.8 457.102 1023.84 457.102H1023.96C1024.05 457.102 1024.14 457.18 1024.22 457.336C1024.31 457.477 1024.4 457.57 1024.48 457.617C1022.66 459.82 1020.53 461.344 1018.08 462.188C1017.23 462.484 1016.28 462.633 1015.22 462.633C1014.16 462.633 1013.08 462.344 1011.98 461.766C1010.89 461.172 1009.95 460.398 1009.17 459.445C1007.52 457.461 1006.69 454.992 1006.69 452.039C1006.69 449.07 1007.59 446.367 1009.38 443.93C1011.2 441.492 1013.68 440.273 1016.84 440.273C1019.1 440.273 1020.95 441.289 1022.39 443.32C1023.83 445.336 1024.55 447.109 1024.55 448.641C1024.55 449.312 1024.38 449.648 1024.05 449.648H1010.46ZM1010.72 447.398C1010.72 447.695 1010.86 447.844 1011.14 447.844H1019.98C1020.38 447.844 1020.59 447.602 1020.59 447.117C1020.59 445.992 1020.08 444.844 1019.06 443.672C1018.06 442.484 1016.96 441.891 1015.76 441.891C1014.59 441.891 1013.52 442.422 1012.55 443.484C1011.59 444.547 1010.98 445.758 1010.72 447.117V447.398ZM1042.73 445.195C1042.55 445.164 1042.27 445.062 1041.91 444.891C1040.62 444.297 1039.6 444 1038.87 444C1038.13 444 1037.36 444.461 1036.55 445.383C1035.75 446.289 1035.35 447.109 1035.35 447.844V458.438C1035.35 459.609 1036.03 460.391 1037.39 460.781C1037.98 460.938 1038.54 461.055 1039.05 461.133C1039.57 461.195 1039.9 461.258 1040.04 461.32C1040.2 461.383 1040.27 461.508 1040.27 461.695C1040.27 461.867 1040.2 461.969 1040.04 462H1028.3C1028.14 461.969 1028.06 461.859 1028.06 461.672C1028.06 461.391 1028.43 461.203 1029.16 461.109C1030.85 460.859 1031.7 459.969 1031.7 458.438V446.039C1031.7 445.383 1031.34 444.93 1030.62 444.68C1030.3 444.57 1029.97 444.484 1029.61 444.422C1029.25 444.344 1028.96 444.273 1028.74 444.211C1028.54 444.148 1028.41 444.094 1028.34 444.047C1028.3 443.984 1028.27 443.867 1028.27 443.695C1028.27 443.508 1028.39 443.352 1028.62 443.227L1034.6 440.414C1034.79 440.32 1034.91 440.273 1034.95 440.273C1035.22 440.273 1035.35 440.461 1035.35 440.836V444.633C1035.35 444.82 1035.4 444.914 1035.49 444.914C1035.62 444.914 1035.94 444.547 1036.45 443.812C1037.94 441.734 1039.16 440.695 1040.13 440.695C1040.68 440.695 1041.52 440.914 1042.64 441.352C1043.78 441.789 1044.35 442.156 1044.35 442.453C1044.35 442.812 1044.17 443.359 1043.81 444.094C1043.45 444.828 1043.09 445.195 1042.73 445.195ZM1046.13 451.477C1046.13 448.398 1047.22 445.758 1049.39 443.555C1051.58 441.336 1054.2 440.227 1057.24 440.227C1060.29 440.227 1062.94 441.305 1065.19 443.461C1067.44 445.602 1068.56 448.25 1068.56 451.406C1068.56 454.562 1067.49 457.227 1065.35 459.398C1063.23 461.555 1060.55 462.633 1057.34 462.633C1054.12 462.633 1051.45 461.539 1049.32 459.352C1047.2 457.164 1046.13 454.539 1046.13 451.477ZM1051.97 457.5C1053.5 460.078 1055.59 461.367 1058.23 461.367C1060.27 461.367 1061.84 460.547 1062.91 458.906C1064.01 457.266 1064.55 455.25 1064.55 452.859C1064.55 450.469 1063.79 448.016 1062.26 445.5C1060.74 442.984 1058.7 441.727 1056.12 441.727C1054.23 441.727 1052.73 442.547 1051.64 444.188C1050.56 445.812 1050.02 447.883 1050.02 450.398C1050.02 452.898 1050.67 455.266 1051.97 457.5ZM1089.63 459.539C1087.48 461.602 1085.05 462.633 1082.37 462.633C1081.4 462.633 1080.08 462.453 1078.41 462.094C1078.14 462.094 1077.99 462.188 1077.96 462.375C1077.95 462.562 1077.93 462.758 1077.91 462.961V472.969C1077.91 474.141 1078.59 474.922 1079.95 475.312C1080.55 475.469 1081.1 475.578 1081.62 475.641C1082.13 475.719 1082.46 475.789 1082.6 475.852C1082.76 475.914 1082.84 476.031 1082.84 476.203C1082.84 476.391 1082.76 476.5 1082.6 476.531H1070.86C1070.7 476.5 1070.62 476.391 1070.62 476.203C1070.62 475.922 1070.99 475.734 1071.73 475.641C1073.41 475.391 1074.26 474.5 1074.26 472.969V444.867C1074.26 444.211 1073.9 443.758 1073.18 443.508C1072.87 443.398 1072.53 443.312 1072.17 443.25C1071.81 443.172 1071.52 443.102 1071.3 443.039C1071.1 442.977 1070.97 442.922 1070.91 442.875C1070.86 442.812 1070.84 442.695 1070.84 442.523C1070.84 442.336 1070.95 442.18 1071.19 442.055L1077.16 439.195C1077.29 439.133 1077.41 439.102 1077.54 439.102C1077.79 439.102 1077.91 439.289 1077.91 439.664V442.641C1077.91 442.812 1078 442.898 1078.17 442.898C1078.36 442.898 1078.8 442.672 1079.48 442.219C1081.47 440.938 1083.53 440.297 1085.67 440.297C1087.17 440.297 1088.55 440.906 1089.8 442.125C1091.44 443.719 1092.53 445.938 1093.08 448.781C1093.23 449.594 1093.31 450.461 1093.31 451.383C1093.31 452.289 1093.16 453.25 1092.87 454.266C1092.27 456.281 1091.2 458.039 1089.63 459.539ZM1082.93 442.734C1080.8 442.734 1079.13 443.344 1077.91 444.562V457.734C1077.91 458.516 1078.05 459.023 1078.31 459.258C1079 459.852 1080.05 460.312 1081.48 460.641C1084.29 461.281 1086.48 460.609 1088.04 458.625C1089.15 457.203 1089.7 455.484 1089.7 453.469C1089.7 449.547 1088.82 446.609 1087.05 444.656C1085.99 443.469 1084.62 442.828 1082.93 442.734ZM1097.65 451.477C1097.65 448.398 1098.73 445.758 1100.91 443.555C1103.09 441.336 1105.71 440.227 1108.76 440.227C1111.8 440.227 1114.45 441.305 1116.7 443.461C1118.95 445.602 1120.08 448.25 1120.08 451.406C1120.08 454.562 1119.01 457.227 1116.87 459.398C1114.74 461.555 1112.07 462.633 1108.85 462.633C1105.63 462.633 1102.96 461.539 1100.84 459.352C1098.71 457.164 1097.65 454.539 1097.65 451.477ZM1103.48 457.5C1105.02 460.078 1107.1 461.367 1109.74 461.367C1111.79 461.367 1113.35 460.547 1114.43 458.906C1115.52 457.266 1116.07 455.25 1116.07 452.859C1116.07 450.469 1115.3 448.016 1113.77 445.5C1112.26 442.984 1110.21 441.727 1107.63 441.727C1105.74 441.727 1104.25 442.547 1103.16 444.188C1102.08 445.812 1101.54 447.883 1101.54 450.398C1101.54 452.898 1102.19 455.266 1103.48 457.5ZM1132.15 461.109C1132.88 461.203 1133.25 461.391 1133.25 461.672C1133.25 461.859 1133.17 461.969 1133.02 462H1122.56C1122.41 461.969 1122.33 461.859 1122.33 461.672C1122.33 461.391 1122.7 461.203 1123.43 461.109C1125.12 460.859 1125.96 459.969 1125.96 458.438V429.211C1125.96 428.555 1125.6 428.102 1124.88 427.852C1124.57 427.742 1124.23 427.656 1123.88 427.594C1123.52 427.516 1123.23 427.445 1123.01 427.383C1122.8 427.32 1122.67 427.266 1122.61 427.219C1122.56 427.156 1122.54 427.039 1122.54 426.867C1122.54 426.68 1122.66 426.523 1122.89 426.398L1128.87 423.586C1129.05 423.492 1129.17 423.445 1129.22 423.445C1129.48 423.445 1129.62 423.633 1129.62 424.008V458.438C1129.62 459.969 1130.46 460.859 1132.15 461.109ZM1135.73 462C1135.58 461.969 1135.5 461.859 1135.5 461.672C1135.5 461.391 1135.87 461.203 1136.6 461.109C1138.29 460.859 1139.13 459.969 1139.13 458.438V446.039C1139.13 445.383 1138.77 444.93 1138.05 444.68C1137.74 444.57 1137.41 444.484 1137.05 444.422C1136.69 444.344 1136.4 444.273 1136.18 444.211C1135.98 444.148 1135.84 444.094 1135.78 444.047C1135.73 443.984 1135.71 443.867 1135.71 443.695C1135.71 443.508 1135.83 443.352 1136.06 443.227L1142.04 440.414C1142.23 440.32 1142.34 440.273 1142.39 440.273C1142.66 440.273 1142.79 440.461 1142.79 440.836V458.438C1142.79 459.969 1143.63 460.859 1145.32 461.109C1146.05 461.203 1146.42 461.367 1146.42 461.602C1146.42 461.836 1146.34 461.969 1146.19 462H1135.73ZM1140.61 433.688C1139.97 433.688 1139.4 433.484 1138.9 433.078C1138.41 432.672 1138.17 432.109 1138.17 431.391C1138.17 430.656 1138.41 430.078 1138.88 429.656C1139.34 429.234 1139.9 429.023 1140.54 429.023C1141.2 429.023 1141.74 429.273 1142.18 429.773C1142.63 430.273 1142.86 430.812 1142.86 431.391C1142.86 431.969 1142.65 432.5 1142.23 432.984C1141.8 433.453 1141.27 433.688 1140.61 433.688ZM1154.93 443.977C1154.84 443.977 1154.79 444.047 1154.79 444.188V457.125C1154.79 458.062 1154.99 458.797 1155.4 459.328C1155.82 459.859 1156.35 460.125 1156.99 460.125C1157.63 460.125 1158.19 460.023 1158.66 459.82C1159.14 459.602 1159.55 459.367 1159.9 459.117C1160.26 458.867 1160.58 458.641 1160.86 458.438C1161.14 458.219 1161.39 458.109 1161.61 458.109C1161.83 458.109 1161.94 458.164 1161.94 458.273C1161.94 458.648 1161.9 458.891 1161.82 459C1159.95 461.422 1158.13 462.633 1156.38 462.633C1154.65 462.633 1153.34 462.086 1152.45 460.992C1151.57 459.883 1151.13 458.562 1151.13 457.031V443.977H1149.38C1148.94 443.977 1148.7 443.836 1148.67 443.555C1148.66 443.273 1148.7 443.094 1148.81 443.016C1149.64 442.484 1150.78 441.531 1152.23 440.156C1152.39 439.984 1152.6 439.727 1152.87 439.383C1153.13 439.039 1153.52 438.57 1154.02 437.977C1154.53 437.383 1154.92 437.086 1155.19 437.086C1155.45 437.086 1155.59 437.195 1155.59 437.414C1155.59 437.445 1155.32 438.469 1154.79 440.484C1154.79 440.766 1154.91 440.914 1155.16 440.93H1161.14C1161.83 440.93 1162.17 441.898 1162.17 443.836C1162.17 443.93 1162.11 443.977 1161.98 443.977H1154.93ZM1178.91 458.133C1178.91 458.539 1179.09 458.867 1179.47 459.117C1179.86 459.352 1180.3 459.469 1180.8 459.469C1181.3 459.469 1181.72 459.344 1182.05 459.094C1182.39 458.828 1182.62 458.695 1182.75 458.695C1182.88 458.695 1182.94 458.867 1182.94 459.211C1182.94 459.539 1182.78 459.82 1182.47 460.055C1180.12 461.773 1178.54 462.633 1177.71 462.633C1176.71 462.633 1175.9 461.594 1175.27 459.516C1175.23 459.359 1175.19 459.289 1175.16 459.305C1173.22 460.758 1172 461.633 1171.5 461.93C1170.22 462.664 1168.93 462.781 1167.63 462.281C1166.35 461.781 1165.42 460.953 1164.84 459.797C1164.56 459.203 1164.42 458.57 1164.42 457.898C1164.42 456.57 1164.91 455.516 1165.9 454.734C1166.88 453.953 1168.76 453.203 1171.52 452.484C1172.46 452.234 1173.3 451.914 1174.03 451.523C1174.77 451.133 1175.15 450.883 1175.18 450.773C1175.23 450.664 1175.25 450.562 1175.25 450.469V445.969C1175.25 444.203 1174.56 442.961 1173.19 442.242C1172.73 442.008 1172.19 441.891 1171.55 441.891C1170.92 441.891 1170.28 442.141 1169.62 442.641C1168.98 443.141 1168.66 443.852 1168.66 444.773L1168.78 445.688C1168.69 445.875 1168.12 446.188 1167.09 446.625C1166.06 447.062 1165.47 447.297 1165.31 447.328C1165.06 447.328 1164.94 447.031 1164.94 446.438C1164.94 445.828 1165.12 445.156 1165.48 444.422C1165.84 443.688 1166.34 443.016 1167 442.406C1168.53 440.984 1170.28 440.273 1172.25 440.273C1174.22 440.273 1175.82 440.82 1177.05 441.914C1178.29 442.992 1178.91 444.281 1178.91 445.781V458.133ZM1168.1 457.453C1168.1 458.203 1168.39 458.859 1168.97 459.422C1169.55 459.969 1170.2 460.242 1170.94 460.242C1171.69 460.242 1172.59 459.93 1173.66 459.305C1174.72 458.664 1175.25 458.008 1175.25 457.336V452.578C1175.25 452.406 1175.21 452.32 1175.13 452.32C1175.05 452.32 1175 452.328 1174.97 452.344L1169.53 454.875C1168.97 455.281 1168.59 455.625 1168.38 455.906C1168.2 456.188 1168.1 456.703 1168.1 457.453ZM1202.39 454.617L1202.34 449.672C1202.34 447.656 1202.17 446.242 1201.83 445.43C1201.48 444.617 1201.05 444.008 1200.52 443.602C1199.98 443.18 1199.27 442.969 1198.36 442.969C1197.47 442.969 1195.57 443.672 1192.66 445.078C1192.27 445.312 1192.07 445.531 1192.05 445.734V458.344C1192.05 459.922 1192.9 460.828 1194.59 461.062C1195.32 461.172 1195.69 461.352 1195.69 461.602C1195.69 461.836 1195.61 461.969 1195.45 462H1185C1184.84 461.969 1184.77 461.859 1184.77 461.672C1184.77 461.375 1185.13 461.172 1185.87 461.062C1187.55 460.828 1188.4 459.922 1188.4 458.344V444.891C1188.4 444.234 1188.04 443.781 1187.32 443.531C1187.01 443.422 1186.67 443.336 1186.31 443.273C1185.95 443.195 1185.66 443.125 1185.45 443.062C1185.24 443 1185.11 442.945 1185.05 442.898C1185 442.836 1184.98 442.719 1184.98 442.547C1184.98 442.359 1185.09 442.203 1185.33 442.078L1191.3 439.266C1191.49 439.172 1191.61 439.125 1191.66 439.125C1191.92 439.125 1192.05 439.312 1192.05 439.688V443.344C1192.1 443.5 1192.16 443.578 1192.24 443.578C1192.34 443.578 1192.67 443.438 1193.25 443.156C1194.59 442.484 1195.95 441.836 1197.3 441.211C1198.66 440.586 1199.79 440.273 1200.68 440.273C1204.29 440.273 1206.09 443.562 1206.09 450.141L1205.88 456.984V458.344C1205.88 459.562 1206.49 460.359 1207.71 460.734C1208.23 460.906 1208.72 461.031 1209.19 461.109C1209.67 461.172 1209.98 461.234 1210.12 461.297C1210.28 461.359 1210.36 461.484 1210.36 461.672C1210.36 461.859 1210.28 461.969 1210.12 462H1198.83C1198.67 461.969 1198.59 461.859 1198.59 461.672C1198.59 461.375 1198.96 461.172 1199.7 461.062C1201.37 460.828 1202.2 459.859 1202.2 458.156C1202.33 457.375 1202.39 456.195 1202.39 454.617ZM1235.46 461.062C1235.55 461.062 1235.6 461.125 1235.6 461.25V461.812C1235.6 461.938 1235.55 462 1235.46 462H1224.52C1224.39 462 1224.33 461.938 1224.33 461.812V461.25C1224.33 461.125 1224.39 461.062 1224.52 461.062C1227.08 461.062 1228.47 459.961 1228.69 457.758C1228.75 457.117 1228.81 456.055 1228.88 454.57C1228.95 453.07 1229.16 449.859 1229.51 444.938C1229.85 440 1230.02 436.008 1230.02 432.961V432.094C1230.02 431.469 1229.66 430.945 1228.95 430.523C1228.24 430.102 1227.73 429.891 1227.4 429.891C1227.07 429.891 1226.91 429.828 1226.91 429.703V429.141C1226.91 429.016 1226.97 428.953 1227.09 428.953H1233.87C1234.16 429 1234.41 429.172 1234.59 429.469L1245.59 453.961C1245.66 454.07 1245.73 454.164 1245.77 454.242C1245.82 454.32 1245.94 454.359 1246.12 454.359C1246.31 454.344 1246.45 454.203 1246.55 453.938L1257.42 429.891C1257.75 429.266 1258.05 428.953 1258.31 428.953H1265.13C1265.26 428.953 1265.32 429.016 1265.32 429.141V429.703C1265.32 429.828 1265.28 429.891 1265.2 429.891C1264.73 429.891 1264.16 430.047 1263.47 430.359C1262.42 430.828 1261.9 431.523 1261.9 432.445L1263.3 458.344C1263.34 459.156 1263.76 459.812 1264.57 460.312C1265.38 460.812 1266.45 461.062 1267.76 461.062C1267.88 461.062 1267.95 461.125 1267.95 461.25V461.812C1267.95 461.938 1267.88 462 1267.76 462H1254.45C1254.32 462 1254.26 461.938 1254.26 461.812V461.25C1254.26 461.125 1254.32 461.062 1254.45 461.062C1257.24 461.062 1258.64 460.383 1258.64 459.023L1257.4 436.641C1257.38 436.484 1257.34 436.406 1257.26 436.406C1257.2 436.406 1257.14 436.477 1257.09 436.617L1245.45 461.836C1245.38 461.945 1245.2 462 1244.91 462C1244.61 462 1244.44 461.938 1244.39 461.812L1232.91 436.547C1232.81 436.328 1232.72 436.219 1232.62 436.219C1232.55 436.219 1232.51 436.391 1232.51 436.734C1232.51 437.453 1232.32 440.844 1231.95 446.906C1231.57 452.969 1231.38 456.75 1231.38 458.25V459.211C1231.57 460.102 1232.45 460.68 1234.03 460.945C1234.48 461.023 1234.96 461.062 1235.46 461.062ZM1286.62 459.938C1286.55 459.672 1286.45 459.586 1286.32 459.68C1286.2 459.758 1285.69 460.023 1284.8 460.477C1281.88 461.93 1279.44 462.656 1277.48 462.656C1275.53 462.656 1274.12 462.031 1273.27 460.781C1272.95 460.312 1272.8 459.734 1272.8 459.047V444.75C1272.75 444.297 1272.55 443.906 1272.19 443.578C1271.7 443.172 1271.2 442.953 1270.66 442.922C1270.15 442.891 1269.89 442.734 1269.89 442.453C1269.89 442.156 1270.02 441.977 1270.27 441.914L1275.63 440.367C1275.82 440.305 1276 440.273 1276.17 440.273C1276.36 440.273 1276.45 440.406 1276.45 440.672V456.398C1276.45 457.492 1276.94 458.336 1277.91 458.93C1278.88 459.523 1280.11 459.82 1281.61 459.82C1283.12 459.82 1284.48 459.359 1285.69 458.438C1286.06 458.141 1286.38 457.812 1286.62 457.453V444.75C1286.58 444.297 1286.38 443.906 1286.02 443.578C1285.53 443.172 1285.02 442.953 1284.49 442.922C1283.98 442.891 1283.72 442.734 1283.72 442.453C1283.72 442.156 1283.84 441.977 1284.09 441.914L1289.46 440.367C1289.65 440.305 1289.83 440.273 1290 440.273C1290.19 440.273 1290.28 440.43 1290.28 440.742V457.383C1290.36 458.07 1290.55 458.562 1290.87 458.859C1291.18 459.156 1291.69 459.305 1292.39 459.305L1293.75 459.211C1293.84 459.211 1293.89 459.305 1293.89 459.492C1293.89 459.664 1293.77 459.805 1293.54 459.914L1287.3 462.492C1287.12 462.586 1286.95 462.633 1286.81 462.633C1286.69 462.633 1286.62 462.438 1286.62 462.047V459.938ZM1308.3 445.969C1308.3 446.312 1308.17 446.484 1307.91 446.484C1307.66 446.484 1307.46 446.297 1307.32 445.922C1306.95 444.891 1306.38 443.977 1305.63 443.18C1304.9 442.383 1303.98 441.984 1302.89 441.984C1301.45 441.984 1300.48 442.703 1299.98 444.141C1299.83 444.625 1299.75 445.125 1299.75 445.641C1299.75 446.156 1300.08 446.734 1300.73 447.375C1301.39 448 1302.47 448.75 1303.97 449.625C1305.47 450.5 1306.56 451.242 1307.25 451.852C1308.81 453.242 1309.59 454.852 1309.59 456.68C1309.59 458.508 1308.92 459.961 1307.58 461.039C1306.23 462.102 1304.67 462.633 1302.89 462.633C1301.94 462.633 1301.07 462.5 1300.29 462.234C1299.52 461.984 1299.08 461.859 1298.95 461.859C1298.84 461.859 1298.66 461.984 1298.39 462.234C1298.14 462.5 1297.94 462.633 1297.78 462.633H1297.38C1297.29 462.633 1297.17 461.789 1297.03 460.102C1296.89 458.414 1296.82 457.414 1296.82 457.102C1296.82 456.789 1296.84 456.617 1296.89 456.586C1296.95 456.555 1297.05 456.539 1297.17 456.539C1297.3 456.539 1297.4 456.578 1297.48 456.656C1297.57 456.734 1297.65 456.836 1297.71 456.961C1297.77 457.07 1297.82 457.188 1297.85 457.312C1297.9 457.438 1298 457.672 1298.16 458.016C1299.22 460.281 1300.86 461.414 1303.08 461.414C1304.06 461.414 1304.85 461.055 1305.45 460.336C1306.04 459.602 1306.34 458.789 1306.34 457.898C1306.34 457.008 1306.1 456.258 1305.63 455.648C1305.16 455.039 1304.58 454.484 1303.88 453.984C1303.19 453.484 1302.44 453 1301.62 452.531C1298.47 450.688 1296.89 448.648 1296.89 446.414C1296.89 444.742 1297.61 443.305 1299.05 442.102C1300.48 440.883 1301.96 440.273 1303.48 440.273C1304.99 440.273 1306.11 440.438 1306.83 440.766C1307.56 441.094 1307.99 441.375 1308.12 441.609C1308.24 441.828 1308.3 442.562 1308.3 443.812V445.969ZM1316.79 449.648C1316.52 449.648 1316.39 450.219 1316.39 451.359C1316.39 453.781 1317.11 455.812 1318.55 457.453C1319.98 459.094 1321.77 459.914 1323.89 459.914C1326.03 459.914 1328.09 458.992 1330.05 457.148C1330.09 457.117 1330.12 457.102 1330.17 457.102H1330.29C1330.38 457.102 1330.47 457.18 1330.55 457.336C1330.64 457.477 1330.73 457.57 1330.8 457.617C1328.99 459.82 1326.86 461.344 1324.41 462.188C1323.56 462.484 1322.61 462.633 1321.55 462.633C1320.48 462.633 1319.41 462.344 1318.31 461.766C1317.22 461.172 1316.28 460.398 1315.5 459.445C1313.84 457.461 1313.02 454.992 1313.02 452.039C1313.02 449.07 1313.91 446.367 1315.71 443.93C1317.52 441.492 1320.01 440.273 1323.16 440.273C1325.43 440.273 1327.28 441.289 1328.72 443.32C1330.16 445.336 1330.88 447.109 1330.88 448.641C1330.88 449.312 1330.71 449.648 1330.38 449.648H1316.79ZM1317.05 447.398C1317.05 447.695 1317.19 447.844 1317.47 447.844H1326.3C1326.71 447.844 1326.91 447.602 1326.91 447.117C1326.91 445.992 1326.41 444.844 1325.39 443.672C1324.39 442.484 1323.29 441.891 1322.09 441.891C1320.91 441.891 1319.84 442.422 1318.88 443.484C1317.92 444.547 1317.31 445.758 1317.05 447.117V447.398ZM1350.84 459.938C1350.77 459.672 1350.66 459.586 1350.54 459.68C1350.41 459.758 1349.91 460.023 1349.02 460.477C1346.09 461.93 1343.66 462.656 1341.7 462.656C1339.75 462.656 1338.34 462.031 1337.48 460.781C1337.17 460.312 1337.02 459.734 1337.02 459.047V444.75C1336.97 444.297 1336.77 443.906 1336.41 443.578C1335.92 443.172 1335.41 442.953 1334.88 442.922C1334.37 442.891 1334.11 442.734 1334.11 442.453C1334.11 442.156 1334.23 441.977 1334.48 441.914L1339.85 440.367C1340.04 440.305 1340.22 440.273 1340.39 440.273C1340.58 440.273 1340.67 440.406 1340.67 440.672V456.398C1340.67 457.492 1341.16 458.336 1342.12 458.93C1343.09 459.523 1344.33 459.82 1345.83 459.82C1347.34 459.82 1348.7 459.359 1349.91 458.438C1350.28 458.141 1350.59 457.812 1350.84 457.453V444.75C1350.8 444.297 1350.59 443.906 1350.23 443.578C1349.75 443.172 1349.24 442.953 1348.71 442.922C1348.2 442.891 1347.94 442.734 1347.94 442.453C1347.94 442.156 1348.06 441.977 1348.31 441.914L1353.68 440.367C1353.87 440.305 1354.05 440.273 1354.22 440.273C1354.41 440.273 1354.5 440.43 1354.5 440.742V457.383C1354.58 458.07 1354.77 458.562 1355.09 458.859C1355.4 459.156 1355.91 459.305 1356.61 459.305L1357.97 459.211C1358.06 459.211 1358.11 459.305 1358.11 459.492C1358.11 459.664 1357.99 459.805 1357.76 459.914L1351.52 462.492C1351.34 462.586 1351.17 462.633 1351.03 462.633C1350.91 462.633 1350.84 462.438 1350.84 462.047V459.938ZM1392.05 454.617L1392 449.672C1392 447.656 1391.83 446.242 1391.48 445.43C1391.14 444.617 1390.7 444.008 1390.17 443.602C1389.64 443.18 1388.92 442.969 1388.02 442.969C1387.12 442.969 1385.23 443.672 1382.32 445.078C1381.93 445.312 1381.73 445.531 1381.71 445.734V458.344C1381.71 459.922 1382.55 460.828 1384.24 461.062C1384.98 461.172 1385.34 461.352 1385.34 461.602C1385.34 461.836 1385.27 461.969 1385.11 462H1374.66C1374.5 461.969 1374.42 461.859 1374.42 461.672C1374.42 461.375 1374.79 461.172 1375.52 461.062C1377.21 460.828 1378.05 459.922 1378.05 458.344V446.672C1378.05 444.219 1376.54 442.992 1373.51 442.992C1372.4 442.992 1370.86 443.648 1368.89 444.961C1368.39 445.289 1368.02 445.594 1367.79 445.875V458.344C1367.79 459.922 1368.63 460.828 1370.32 461.062C1371.05 461.172 1371.42 461.352 1371.42 461.602C1371.42 461.836 1371.34 461.969 1371.19 462H1360.73C1360.58 461.969 1360.5 461.859 1360.5 461.672C1360.5 461.375 1360.87 461.172 1361.6 461.062C1363.29 460.828 1364.13 459.938 1364.13 458.391V444.891C1364.13 444.234 1363.77 443.781 1363.05 443.531C1362.74 443.422 1362.41 443.336 1362.05 443.273C1361.69 443.195 1361.4 443.125 1361.18 443.062C1360.98 443 1360.84 442.945 1360.78 442.898C1360.73 442.836 1360.71 442.719 1360.71 442.547C1360.71 442.359 1360.83 442.203 1361.06 442.078L1367.04 439.266C1367.23 439.172 1367.34 439.125 1367.39 439.125C1367.66 439.125 1367.79 439.312 1367.79 439.688V443.578C1367.8 443.672 1367.86 443.719 1367.95 443.719C1368.06 443.719 1368.32 443.609 1368.73 443.391C1369.15 443.172 1369.7 442.867 1370.37 442.477C1371.04 442.07 1371.92 441.602 1373.02 441.07C1374.12 440.539 1375.3 440.273 1376.53 440.273C1378.52 440.273 1379.94 441.125 1380.8 442.828C1381.12 443.516 1381.42 443.812 1381.69 443.719C1381.95 443.609 1382.37 443.414 1382.93 443.133C1384.26 442.477 1385.6 441.836 1386.96 441.211C1388.32 440.586 1389.45 440.273 1390.34 440.273C1393.95 440.273 1395.75 443.562 1395.75 450.141L1395.54 456.984V458.344C1395.54 459.562 1396.15 460.359 1397.37 460.734C1397.88 460.906 1398.38 461.031 1398.84 461.109C1399.33 461.172 1399.64 461.234 1399.78 461.297C1399.94 461.359 1400.02 461.484 1400.02 461.672C1400.02 461.859 1399.94 461.969 1399.78 462H1388.48C1388.33 461.969 1388.25 461.859 1388.25 461.672C1388.25 461.375 1388.62 461.172 1389.35 461.062C1391.02 460.828 1391.86 459.859 1391.86 458.156C1391.98 457.375 1392.05 456.195 1392.05 454.617ZM1414.76 451.477C1414.76 448.398 1415.84 445.758 1418.02 443.555C1420.2 441.336 1422.82 440.227 1425.87 440.227C1428.91 440.227 1431.56 441.305 1433.81 443.461C1436.06 445.602 1437.19 448.25 1437.19 451.406C1437.19 454.562 1436.12 457.227 1433.98 459.398C1431.85 461.555 1429.18 462.633 1425.96 462.633C1422.74 462.633 1420.07 461.539 1417.95 459.352C1415.82 457.164 1414.76 454.539 1414.76 451.477ZM1420.59 457.5C1422.12 460.078 1424.21 461.367 1426.85 461.367C1428.9 461.367 1430.46 460.547 1431.54 458.906C1432.63 457.266 1433.18 455.25 1433.18 452.859C1433.18 450.469 1432.41 448.016 1430.88 445.5C1429.37 442.984 1427.32 441.727 1424.74 441.727C1422.85 441.727 1421.36 442.547 1420.27 444.188C1419.19 445.812 1418.65 447.883 1418.65 450.398C1418.65 452.898 1419.3 455.266 1420.59 457.5ZM1453.43 461.625C1453.43 461.875 1453.29 462 1453.01 462H1440.14C1439.98 461.969 1439.91 461.859 1439.91 461.672C1439.91 461.391 1440.27 461.203 1441.01 461.109C1442.7 460.859 1443.54 459.969 1443.54 458.438V444.234C1443.54 444.062 1443.45 443.977 1443.26 443.977H1440.7C1440.52 443.977 1440.34 443.922 1440.16 443.812C1439.99 443.688 1439.91 443.531 1439.91 443.344C1439.91 443.141 1440 442.984 1440.19 442.875C1440.45 442.719 1441.08 442.508 1442.06 442.242C1443.05 441.977 1443.54 441.539 1443.54 440.93V440.156C1443.54 434.531 1444.76 430.203 1447.2 427.172C1448.55 425.469 1450.62 424.156 1453.41 423.234C1454.25 422.953 1455.09 422.812 1455.91 422.812C1456.74 422.812 1457.71 423.031 1458.82 423.469C1459.93 423.891 1460.48 424.406 1460.48 425.016C1460.48 425.141 1460.46 425.25 1460.41 425.344C1460.38 425.438 1460.34 425.555 1460.3 425.695L1459.34 427.758C1459.21 428.008 1459.06 428.133 1458.89 428.133C1458.84 428.133 1458.51 427.891 1457.88 427.406C1457.26 426.906 1456.59 426.453 1455.89 426.047C1455.2 425.625 1454.39 425.414 1453.45 425.414C1451.62 425.414 1450.24 425.883 1449.3 426.82C1448.37 427.758 1447.78 428.82 1447.55 430.008C1447.31 431.18 1447.2 432.477 1447.2 433.898V440.719C1447.2 440.844 1447.27 440.906 1447.43 440.906H1452C1452.44 440.906 1452.72 440.953 1452.84 441.047C1452.98 441.125 1453.12 441.406 1453.24 441.891C1453.37 442.359 1453.43 442.797 1453.43 443.203C1453.43 443.594 1453.39 443.82 1453.31 443.883C1453.23 443.945 1453.07 443.977 1452.82 443.977H1447.5C1447.3 443.977 1447.2 444.055 1447.2 444.211V457.969C1447.2 460.203 1449.13 461.32 1453.01 461.32C1453.29 461.352 1453.43 461.453 1453.43 461.625ZM1468.08 462C1467.95 462 1467.89 461.938 1467.89 461.812V461.25C1467.89 461.125 1467.97 461.062 1468.12 461.062H1468.66C1469.52 461.062 1470.11 460.984 1470.42 460.828C1471.58 460.266 1472.16 458.719 1472.16 456.188V431.836C1472.16 430.789 1471.14 430.164 1469.11 429.961C1468.66 429.914 1468.34 429.891 1468.15 429.891C1467.98 429.891 1467.89 429.828 1467.89 429.703V429.141C1467.89 429.016 1467.95 428.953 1468.08 428.953H1476.66L1498.9 453.539C1498.98 453.617 1499.03 453.68 1499.06 453.727C1499.09 453.758 1499.14 453.773 1499.2 453.773C1499.28 453.773 1499.32 453.703 1499.32 453.562V437.414C1499.32 434.305 1499.06 432.273 1498.55 431.32C1498.03 430.367 1496.99 429.891 1495.43 429.891H1494.23C1494.11 429.891 1494.05 429.828 1494.05 429.703V429.141C1494.05 429.016 1494.11 428.953 1494.23 428.953H1506.42C1506.55 428.953 1506.61 429.016 1506.61 429.141V429.703C1506.61 429.828 1506.38 429.891 1505.91 429.891C1505.45 429.891 1504.7 430.156 1503.63 430.688C1502.59 431.219 1502.06 431.875 1502.06 432.656V461.32C1502.06 461.664 1502.02 461.906 1501.92 462.047C1501.83 462.203 1501.6 462.281 1501.24 462.281C1500.9 462.281 1500.64 462.211 1500.47 462.07C1500.3 461.93 1500.09 461.727 1499.86 461.461L1475.7 434.672C1475.54 434.516 1475.4 434.438 1475.27 434.438C1475.2 434.438 1475.16 434.516 1475.16 434.672V458.062C1475.16 459.484 1476.28 460.422 1478.53 460.875C1479.16 461 1479.63 461.062 1479.96 461.062C1480.29 461.062 1480.45 461.125 1480.45 461.25V461.812C1480.45 461.938 1480.39 462 1480.27 462H1468.08ZM1512.87 449.648C1512.6 449.648 1512.47 450.219 1512.47 451.359C1512.47 453.781 1513.19 455.812 1514.62 457.453C1516.06 459.094 1517.84 459.914 1519.97 459.914C1522.11 459.914 1524.16 458.992 1526.13 457.148C1526.16 457.117 1526.2 457.102 1526.25 457.102H1526.37C1526.46 457.102 1526.55 457.18 1526.62 457.336C1526.72 457.477 1526.8 457.57 1526.88 457.617C1525.07 459.82 1522.94 461.344 1520.48 462.188C1519.64 462.484 1518.69 462.633 1517.62 462.633C1516.56 462.633 1515.48 462.344 1514.39 461.766C1513.3 461.172 1512.36 460.398 1511.58 459.445C1509.92 457.461 1509.09 454.992 1509.09 452.039C1509.09 449.07 1509.99 446.367 1511.79 443.93C1513.6 441.492 1516.09 440.273 1519.24 440.273C1521.51 440.273 1523.36 441.289 1524.8 443.32C1526.23 445.336 1526.95 447.109 1526.95 448.641C1526.95 449.312 1526.79 449.648 1526.46 449.648H1512.87ZM1513.12 447.398C1513.12 447.695 1513.27 447.844 1513.55 447.844H1522.38C1522.79 447.844 1522.99 447.602 1522.99 447.117C1522.99 445.992 1522.48 444.844 1521.47 443.672C1520.47 442.484 1519.37 441.891 1518.16 441.891C1516.99 441.891 1515.92 442.422 1514.95 443.484C1514 444.547 1513.39 445.758 1513.12 447.117V447.398ZM1566.77 440.906C1566.95 440.953 1567.03 441.062 1567.03 441.234C1567.03 441.406 1567.01 441.531 1566.96 441.609C1566.91 441.688 1566.57 441.773 1565.93 441.867C1565.29 441.961 1564.83 442.148 1564.55 442.43C1564.28 442.695 1564.04 443 1563.82 443.344C1563.62 443.688 1563.44 444.047 1563.28 444.422C1563.12 444.781 1562.98 445.109 1562.84 445.406L1556.44 461.953C1556.25 462.406 1556.08 462.633 1555.92 462.633H1554.07C1553.91 462.633 1553.74 462.391 1553.55 461.906L1548.35 447.82L1542.89 461.953C1542.7 462.406 1542.53 462.633 1542.38 462.633H1540.52C1540.37 462.633 1540.2 462.391 1540.01 461.906L1533.8 445.102C1533.22 443.523 1532.23 442.508 1530.82 442.055C1530.71 442.023 1530.58 442 1530.42 441.984C1529.77 441.922 1529.44 441.727 1529.44 441.398C1529.44 441.07 1529.62 440.906 1530 440.906H1540.43C1540.55 440.906 1540.62 441.031 1540.62 441.281C1540.62 441.516 1540.53 441.672 1540.36 441.75C1540.08 441.859 1539.59 441.906 1538.91 441.891C1537.77 441.859 1537.2 442.328 1537.2 443.297L1537.24 443.859L1542 456.867C1542.31 457.664 1542.62 457.641 1542.94 456.797C1542.97 456.719 1543.62 455.078 1544.88 451.875C1546.16 448.672 1546.98 446.414 1547.34 445.102C1546.77 443.523 1545.77 442.508 1544.37 442.055C1544.26 442.023 1544.12 442 1543.97 441.984C1543.31 441.922 1542.98 441.727 1542.98 441.398C1542.98 441.07 1543.17 440.906 1543.55 440.906H1553.98C1554.1 440.906 1554.16 441.031 1554.16 441.281C1554.16 441.516 1554.08 441.672 1553.91 441.75C1553.62 441.859 1553.14 441.906 1552.45 441.891C1551.31 441.859 1550.74 442.328 1550.74 443.297L1550.79 443.859L1555.55 456.867C1555.86 457.664 1556.17 457.641 1556.48 456.797C1556.52 456.719 1556.72 456.211 1557.09 455.273C1559.02 450.461 1560.15 447.492 1560.49 446.367C1560.85 445.227 1561.03 444.445 1561.03 444.023C1561.03 443.602 1560.8 443.164 1560.35 442.711C1559.9 442.242 1559.29 442.008 1558.52 442.008C1557.76 442.008 1557.38 441.773 1557.38 441.305C1557.38 441.039 1557.55 440.906 1557.89 440.906H1566.77ZM1592.95 462C1592.42 462 1592.16 461.844 1592.16 461.531V461.297C1592.16 461.047 1592.38 460.898 1592.84 460.852C1593.3 460.789 1593.61 460.75 1593.75 460.734C1594.94 460.609 1595.77 460.32 1596.26 459.867C1596.74 459.398 1596.98 458.703 1596.98 457.781V450.023C1596.98 449.914 1596.96 449.797 1596.91 449.672L1587.33 434.391C1585.83 432 1584.34 430.625 1582.88 430.266C1582.8 430.25 1582.66 430.219 1582.45 430.172C1582.25 430.125 1581.8 430.047 1581.09 429.938C1580.84 429.891 1580.72 429.719 1580.72 429.422C1580.72 429.109 1580.84 428.953 1581.07 428.953H1594.48C1594.74 428.953 1594.88 429.109 1594.88 429.422C1594.88 429.734 1594.74 429.891 1594.48 429.891C1593.43 430 1592.73 430.109 1592.39 430.219C1591.61 430.5 1591.22 431 1591.22 431.719C1591.22 432.094 1591.31 432.43 1591.5 432.727L1599.42 445.383C1599.59 445.633 1599.7 445.797 1599.73 445.875C1599.77 445.938 1599.86 445.969 1599.98 445.969C1600.12 445.969 1600.34 445.742 1600.62 445.289L1606.95 434.531C1607.13 434.156 1607.34 433.758 1607.58 433.336C1607.83 432.898 1607.95 432.453 1607.95 432C1607.95 430.859 1607.17 430.188 1605.61 429.984C1605.05 429.906 1604.74 429.82 1604.7 429.727C1604.65 429.633 1604.62 429.516 1604.62 429.375C1604.62 429.094 1604.76 428.953 1605.02 428.953H1615.97C1616.19 428.953 1616.3 429.062 1616.3 429.281C1616.3 429.5 1616.26 429.648 1616.18 429.727C1616.12 429.805 1616.02 429.867 1615.9 429.914C1615.79 429.945 1615.66 429.977 1615.52 430.008C1615.38 430.023 1615.08 430.086 1614.61 430.195C1613.52 430.461 1612.33 431.328 1611.05 432.797C1610.91 432.969 1610.83 433.07 1610.81 433.102L1601.55 449.039V457.781C1601.55 458.625 1601.79 459.289 1602.26 459.773C1602.74 460.258 1603.55 460.578 1604.67 460.734C1605.81 460.875 1606.38 461.055 1606.38 461.273V461.531C1606.38 461.844 1606.12 462 1605.59 462H1592.95ZM1618.2 451.477C1618.2 448.398 1619.28 445.758 1621.45 443.555C1623.64 441.336 1626.26 440.227 1629.3 440.227C1632.35 440.227 1635 441.305 1637.25 443.461C1639.5 445.602 1640.62 448.25 1640.62 451.406C1640.62 454.562 1639.55 457.227 1637.41 459.398C1635.29 461.555 1632.62 462.633 1629.4 462.633C1626.18 462.633 1623.51 461.539 1621.38 459.352C1619.26 457.164 1618.2 454.539 1618.2 451.477ZM1624.03 457.5C1625.56 460.078 1627.65 461.367 1630.29 461.367C1632.34 461.367 1633.9 460.547 1634.98 458.906C1636.07 457.266 1636.62 455.25 1636.62 452.859C1636.62 450.469 1635.85 448.016 1634.32 445.5C1632.8 442.984 1630.76 441.727 1628.18 441.727C1626.29 441.727 1624.8 442.547 1623.7 444.188C1622.62 445.812 1622.09 447.883 1622.09 450.398C1622.09 452.898 1622.73 455.266 1624.03 457.5ZM1658.3 445.195C1658.11 445.164 1657.84 445.062 1657.48 444.891C1656.18 444.297 1655.16 444 1654.43 444C1653.7 444 1652.92 444.461 1652.11 445.383C1651.31 446.289 1650.91 447.109 1650.91 447.844V458.438C1650.91 459.609 1651.59 460.391 1652.95 460.781C1653.55 460.938 1654.1 461.055 1654.62 461.133C1655.13 461.195 1655.46 461.258 1655.6 461.32C1655.76 461.383 1655.84 461.508 1655.84 461.695C1655.84 461.867 1655.76 461.969 1655.6 462H1643.86C1643.7 461.969 1643.62 461.859 1643.62 461.672C1643.62 461.391 1643.99 461.203 1644.73 461.109C1646.41 460.859 1647.26 459.969 1647.26 458.438V446.039C1647.26 445.383 1646.9 444.93 1646.18 444.68C1645.87 444.57 1645.53 444.484 1645.17 444.422C1644.81 444.344 1644.52 444.273 1644.3 444.211C1644.1 444.148 1643.97 444.094 1643.91 444.047C1643.86 443.984 1643.84 443.867 1643.84 443.695C1643.84 443.508 1643.95 443.352 1644.19 443.227L1650.16 440.414C1650.35 440.32 1650.47 440.273 1650.52 440.273C1650.78 440.273 1650.91 440.461 1650.91 440.836V444.633C1650.91 444.82 1650.96 444.914 1651.05 444.914C1651.18 444.914 1651.5 444.547 1652.02 443.812C1653.5 441.734 1654.73 440.695 1655.7 440.695C1656.24 440.695 1657.08 440.914 1658.2 441.352C1659.34 441.789 1659.91 442.156 1659.91 442.453C1659.91 442.812 1659.73 443.359 1659.38 444.094C1659.02 444.828 1658.66 445.195 1658.3 445.195ZM1668.54 450.773C1668.35 450.773 1668.26 451.156 1668.26 451.922V458.438C1668.26 459.969 1669.1 460.859 1670.79 461.109C1671.52 461.203 1671.89 461.375 1671.89 461.625C1671.89 461.875 1671.81 462 1671.66 462H1661.2C1661.05 461.969 1660.97 461.859 1660.97 461.672C1660.97 461.391 1661.34 461.203 1662.07 461.109C1663.76 460.859 1664.6 459.969 1664.6 458.438V429.211C1664.6 428.555 1664.24 428.102 1663.52 427.852C1663.21 427.742 1662.88 427.656 1662.52 427.594C1662.16 427.516 1661.87 427.445 1661.65 427.383C1661.45 427.32 1661.31 427.266 1661.25 427.219C1661.2 427.156 1661.18 427.039 1661.18 426.867C1661.18 426.68 1661.3 426.523 1661.53 426.398L1667.51 423.586C1667.7 423.492 1667.81 423.445 1667.86 423.445C1668.12 423.445 1668.26 423.633 1668.26 424.008V447.398C1668.38 447.852 1668.55 448.117 1668.75 448.195C1668.95 448.273 1669.17 448.312 1669.41 448.312C1669.86 448.312 1670.6 447.961 1671.63 447.258C1672.68 446.539 1673.62 445.742 1674.47 444.867C1675.31 443.977 1675.73 443.367 1675.73 443.039C1675.73 442.695 1675.59 442.484 1675.29 442.406C1674.99 442.312 1674.66 442.25 1674.28 442.219C1673.92 442.172 1673.59 442.109 1673.3 442.031C1673 441.938 1672.85 441.727 1672.85 441.398C1672.85 441.07 1673.17 440.906 1673.81 440.906H1682.74C1683.29 440.906 1683.56 441.086 1683.56 441.445C1683.56 441.633 1683.38 441.781 1683.02 441.891C1682.66 442 1681.97 442.172 1680.94 442.406C1679.91 442.625 1679.09 442.977 1678.48 443.461L1671.75 448.711C1671.75 448.914 1671.9 449.164 1672.2 449.461L1681.83 459.609C1682.45 460.25 1683.09 460.672 1683.75 460.875C1684.41 461.062 1684.84 461.188 1685.06 461.25C1685.28 461.312 1685.39 461.422 1685.39 461.578C1685.39 461.859 1685.27 462 1685.02 462H1674.73C1674.57 462 1674.49 461.906 1674.49 461.719C1674.49 461.438 1674.69 461.258 1675.08 461.18C1676.25 460.961 1676.84 460.562 1676.84 459.984C1676.84 459.812 1676.72 459.586 1676.48 459.305C1676.25 459.023 1676.03 458.75 1675.83 458.484L1668.59 450.82C1668.59 450.805 1668.58 450.789 1668.56 450.773H1668.54Z" fill="white"/>
<path d="M1054.75 690.076C1055.66 690.22 1056.49 690.592 1057.23 691.192C1058 691.792 1058.6 692.536 1059.03 693.424C1059.49 694.312 1059.72 695.26 1059.72 696.268C1059.72 697.54 1059.39 698.692 1058.74 699.724C1058.1 700.732 1057.15 701.536 1055.9 702.136C1054.68 702.712 1053.22 703 1051.54 703H1042.18V677.908H1051.18C1052.89 677.908 1054.34 678.196 1055.54 678.772C1056.74 679.324 1057.64 680.08 1058.24 681.04C1058.84 682 1059.14 683.08 1059.14 684.28C1059.14 685.768 1058.73 687.004 1057.92 687.988C1057.12 688.948 1056.07 689.644 1054.75 690.076ZM1045.46 688.744H1050.97C1052.5 688.744 1053.69 688.384 1054.53 687.664C1055.37 686.944 1055.79 685.948 1055.79 684.676C1055.79 683.404 1055.37 682.408 1054.53 681.688C1053.69 680.968 1052.48 680.608 1050.9 680.608H1045.46V688.744ZM1051.26 700.3C1052.89 700.3 1054.16 699.916 1055.07 699.148C1055.98 698.38 1056.44 697.312 1056.44 695.944C1056.44 694.552 1055.96 693.46 1055 692.668C1054.04 691.852 1052.76 691.444 1051.15 691.444H1045.46V700.3H1051.26ZM1082.26 692.38C1082.26 693.004 1082.23 693.664 1082.15 694.36H1066.39C1066.51 696.304 1067.17 697.828 1068.37 698.932C1069.59 700.012 1071.07 700.552 1072.79 700.552C1074.21 700.552 1075.39 700.228 1076.32 699.58C1077.28 698.908 1077.95 698.02 1078.34 696.916H1081.87C1081.34 698.812 1080.28 700.36 1078.7 701.56C1077.11 702.736 1075.15 703.324 1072.79 703.324C1070.92 703.324 1069.24 702.904 1067.75 702.064C1066.29 701.224 1065.14 700.036 1064.3 698.5C1063.46 696.94 1063.04 695.14 1063.04 693.1C1063.04 691.06 1063.45 689.272 1064.26 687.736C1065.08 686.2 1066.22 685.024 1067.68 684.208C1069.17 683.368 1070.87 682.948 1072.79 682.948C1074.67 682.948 1076.32 683.356 1077.76 684.172C1079.2 684.988 1080.31 686.116 1081.07 687.556C1081.87 688.972 1082.26 690.58 1082.26 692.38ZM1078.88 691.696C1078.88 690.448 1078.6 689.38 1078.05 688.492C1077.5 687.58 1076.74 686.896 1075.78 686.44C1074.85 685.96 1073.8 685.72 1072.65 685.72C1070.99 685.72 1069.58 686.248 1068.4 687.304C1067.25 688.36 1066.59 689.824 1066.42 691.696H1078.88ZM1094.72 682.948C1096.43 682.948 1097.91 683.32 1099.19 684.064C1100.48 684.808 1101.44 685.744 1102.07 686.872V683.272H1105.38V703.432C1105.38 705.232 1104.99 706.828 1104.23 708.22C1103.46 709.636 1102.35 710.74 1100.91 711.532C1099.5 712.324 1097.84 712.72 1095.95 712.72C1093.35 712.72 1091.19 712.108 1089.47 710.884C1087.74 709.66 1086.72 707.992 1086.41 705.88H1089.65C1090.01 707.08 1090.75 708.04 1091.88 708.76C1093.01 709.504 1094.36 709.876 1095.95 709.876C1097.75 709.876 1099.21 709.312 1100.34 708.184C1101.49 707.056 1102.07 705.472 1102.07 703.432V699.292C1101.42 700.444 1100.46 701.404 1099.19 702.172C1097.91 702.94 1096.43 703.324 1094.72 703.324C1092.97 703.324 1091.37 702.892 1089.93 702.028C1088.52 701.164 1087.4 699.952 1086.59 698.392C1085.77 696.832 1085.36 695.056 1085.36 693.064C1085.36 691.048 1085.77 689.284 1086.59 687.772C1087.4 686.236 1088.52 685.048 1089.93 684.208C1091.37 683.368 1092.97 682.948 1094.72 682.948ZM1102.07 693.1C1102.07 691.612 1101.77 690.316 1101.17 689.212C1100.57 688.108 1099.75 687.268 1098.72 686.692C1097.71 686.092 1096.59 685.792 1095.37 685.792C1094.15 685.792 1093.03 686.08 1092.02 686.656C1091.01 687.232 1090.21 688.072 1089.61 689.176C1089.01 690.28 1088.71 691.576 1088.71 693.064C1088.71 694.576 1089.01 695.896 1089.61 697.024C1090.21 698.128 1091.01 698.98 1092.02 699.58C1093.03 700.156 1094.15 700.444 1095.37 700.444C1096.59 700.444 1097.71 700.156 1098.72 699.58C1099.75 698.98 1100.57 698.128 1101.17 697.024C1101.77 695.896 1102.07 694.588 1102.07 693.1ZM1112.61 680.068C1111.98 680.068 1111.45 679.852 1111.02 679.42C1110.59 678.988 1110.37 678.46 1110.37 677.836C1110.37 677.212 1110.59 676.684 1111.02 676.252C1111.45 675.82 1111.98 675.604 1112.61 675.604C1113.21 675.604 1113.71 675.82 1114.12 676.252C1114.55 676.684 1114.77 677.212 1114.77 677.836C1114.77 678.46 1114.55 678.988 1114.12 679.42C1113.71 679.852 1113.21 680.068 1112.61 680.068ZM1114.19 683.272V703H1110.91V683.272H1114.19ZM1129.39 682.912C1131.79 682.912 1133.73 683.644 1135.22 685.108C1136.71 686.548 1137.45 688.636 1137.45 691.372V703H1134.21V691.84C1134.21 689.872 1133.72 688.372 1132.73 687.34C1131.75 686.284 1130.41 685.756 1128.7 685.756C1126.97 685.756 1125.59 686.296 1124.56 687.376C1123.55 688.456 1123.05 690.028 1123.05 692.092V703H1119.77V683.272H1123.05V686.08C1123.7 685.072 1124.57 684.292 1125.68 683.74C1126.81 683.188 1128.04 682.912 1129.39 682.912ZM1167.84 677.908V680.572H1161V703H1157.73V680.572H1150.85V677.908H1167.84ZM1180.48 703.324C1178.63 703.324 1176.95 702.904 1175.44 702.064C1173.95 701.224 1172.78 700.036 1171.91 698.5C1171.07 696.94 1170.65 695.14 1170.65 693.1C1170.65 691.084 1171.08 689.308 1171.95 687.772C1172.84 686.212 1174.04 685.024 1175.55 684.208C1177.06 683.368 1178.75 682.948 1180.62 682.948C1182.5 682.948 1184.19 683.368 1185.7 684.208C1187.21 685.024 1188.4 686.2 1189.26 687.736C1190.15 689.272 1190.6 691.06 1190.6 693.1C1190.6 695.14 1190.14 696.94 1189.23 698.5C1188.34 700.036 1187.13 701.224 1185.59 702.064C1184.06 702.904 1182.35 703.324 1180.48 703.324ZM1180.48 700.444C1181.66 700.444 1182.76 700.168 1183.79 699.616C1184.82 699.064 1185.65 698.236 1186.28 697.132C1186.92 696.028 1187.25 694.684 1187.25 693.1C1187.25 691.516 1186.94 690.172 1186.31 689.068C1185.69 687.964 1184.87 687.148 1183.86 686.62C1182.86 686.068 1181.76 685.792 1180.59 685.792C1179.39 685.792 1178.28 686.068 1177.28 686.62C1176.29 687.148 1175.5 687.964 1174.9 689.068C1174.3 690.172 1174 691.516 1174 693.1C1174 694.708 1174.29 696.064 1174.86 697.168C1175.46 698.272 1176.26 699.1 1177.24 699.652C1178.22 700.18 1179.3 700.444 1180.48 700.444ZM1212.4 683.272V703H1209.12V700.084C1208.5 701.092 1207.62 701.884 1206.49 702.46C1205.39 703.012 1204.17 703.288 1202.82 703.288C1201.29 703.288 1199.91 702.976 1198.68 702.352C1197.46 701.704 1196.49 700.744 1195.77 699.472C1195.07 698.2 1194.72 696.652 1194.72 694.828V683.272H1197.96V694.396C1197.96 696.34 1198.45 697.84 1199.44 698.896C1200.42 699.928 1201.77 700.444 1203.47 700.444C1205.22 700.444 1206.6 699.904 1207.61 698.824C1208.62 697.744 1209.12 696.172 1209.12 694.108V683.272H1212.4ZM1221.21 686.476C1221.78 685.348 1222.6 684.472 1223.65 683.848C1224.73 683.224 1226.04 682.912 1227.58 682.912V686.296H1226.71C1223.04 686.296 1221.21 688.288 1221.21 692.272V703H1217.93V683.272H1221.21V686.476Z" fill="white"/>
<rect x="1019.5" y="643.5" width="229" height="93" rx="9.5" stroke="white"/>
</g>
<defs>
<filter id="filter0_d_1036_1087" x="0" y="-42" width="2309" height="1384" filterUnits="userSpaceOnUse" color-interpolation-filters="sRGB">
<feFlood flood-opacity="0" result="BackgroundImageFix"/>
<feColorMatrix in="SourceAlpha" type="matrix" values="0 0 0 0 0 0 0 0 0 0 0 0 0 0 0 0 0 0 127 0" result="hardAlpha"/>
<feOffset dx="20" dy="20"/>
<feGaussianBlur stdDeviation="32"/>
<feColorMatrix type="matrix" values="0 0 0 0 0 0 0 0 0 0 0 0 0 0 0 0 0 0 0.2 0"/>
<feBlend mode="normal" in2="BackgroundImageFix" result="effect1_dropShadow_1036_1087"/>
<feBlend mode="normal" in="SourceGraphic" in2="effect1_dropShadow_1036_1087" result="shape"/>
</filter>
<filter id="filter1_f_1036_1087" x="122.27" y="1216.97" width="2025.54" height="51.6924" filterUnits="userSpaceOnUse" color-interpolation-filters="sRGB">
<feFlood flood-opacity="0" result="BackgroundImageFix"/>
<feBlend mode="normal" in="SourceGraphic" in2="BackgroundImageFix" result="shape"/>
<feGaussianBlur stdDeviation="7.5" result="effect1_foregroundBlur_1036_1087"/>
</filter>
<filter id="filter2_dd_1036_1087" x="247.146" y="0" width="1774.71" height="1220.61" filterUnits="userSpaceOnUse" color-interpolation-filters="sRGB">
<feFlood flood-opacity="0" result="BackgroundImageFix"/>
<feColorMatrix in="SourceAlpha" type="matrix" values="0 0 0 0 0 0 0 0 0 0 0 0 0 0 0 0 0 0 127 0" result="hardAlpha"/>
<feOffset/>
<feGaussianBlur stdDeviation="1"/>
<feColorMatrix type="matrix" values="0 0 0 0 0 0 0 0 0 0.0823529 0 0 0 0 0.25098 0 0 0 0.14 0"/>
<feBlend mode="normal" in2="BackgroundImageFix" result="effect1_dropShadow_1036_1087"/>
<feColorMatrix in="SourceAlpha" type="matrix" values="0 0 0 0 0 0 0 0 0 0 0 0 0 0 0 0 0 0 127 0" result="hardAlpha"/>
<feOffset dy="2"/>
<feGaussianBlur stdDeviation="2"/>
<feColorMatrix type="matrix" values="0 0 0 0 0 0 0 0 0 0.0823529 0 0 0 0 0.25098 0 0 0 0.05 0"/>
<feBlend mode="normal" in2="effect1_dropShadow_1036_1087" result="effect2_dropShadow_1036_1087"/>
<feBlend mode="normal" in="SourceGraphic" in2="effect2_dropShadow_1036_1087" result="shape"/>
</filter>
<filter id="filter3_d_1036_1087" x="292" y="73" width="1684" height="1065" filterUnits="userSpaceOnUse" color-interpolation-filters="sRGB">
<feFlood flood-opacity="0" result="BackgroundImageFix"/>
<feColorMatrix in="SourceAlpha" type="matrix" values="0 0 0 0 0 0 0 0 0 0 0 0 0 0 0 0 0 0 127 0" result="hardAlpha"/>
<feOffset dy="4"/>
<feGaussianBlur stdDeviation="2"/>
<feComposite in2="hardAlpha" operator="out"/>
<feColorMatrix type="matrix" values="0 0 0 0 0 0 0 0 0 0 0 0 0 0 0 0 0 0 0.25 0"/>
<feBlend mode="normal" in2="BackgroundImageFix" result="effect1_dropShadow_1036_1087"/>
<feBlend mode="normal" in="SourceGraphic" in2="effect1_dropShadow_1036_1087" result="shape"/>
</filter>
<linearGradient id="paint0_linear_1036_1087" x1="44" y1="1198.34" x2="1134.5" y2="1198.34" gradientUnits="userSpaceOnUse">
<stop stop-color="#303135"/>
<stop offset="0.0218797" stop-color="#535458"/>
<stop offset="0.0363004" stop-color="#4D4E52"/>
<stop offset="0.05818" stop-color="#333438"/>
<stop offset="0.0865241" stop-color="#35363A"/>
<stop offset="0.135753" stop-color="#4E4F53"/>
<stop offset="0.756906" stop-color="#818286"/>
<stop offset="1" stop-color="#818286"/>
</linearGradient>
<linearGradient id="paint1_linear_1036_1087" x1="2224.46" y1="1198.34" x2="1133.96" y2="1198.34" gradientUnits="userSpaceOnUse">
<stop stop-color="#303135"/>
<stop offset="0.0218797" stop-color="#535458"/>
<stop offset="0.0363004" stop-color="#4D4E52"/>
<stop offset="0.05818" stop-color="#333438"/>
<stop offset="0.0865241" stop-color="#35363A"/>
<stop offset="0.135753" stop-color="#4E4F53"/>
<stop offset="0.756906" stop-color="#818286"/>
<stop offset="1" stop-color="#818286"/>
</linearGradient>
<linearGradient id="paint2_linear_1036_1087" x1="978.869" y1="1192.92" x2="1290.13" y2="1192.92" gradientUnits="userSpaceOnUse">
<stop stop-opacity="0.5"/>
<stop offset="0.139373" stop-color="#818487" stop-opacity="0"/>
<stop offset="0.860627" stop-color="#818487" stop-opacity="0"/>
<stop offset="1" stop-opacity="0.5"/>
</linearGradient>
<linearGradient id="paint3_linear_1036_1087" x1="1134.5" y1="1214.61" x2="1134.5" y2="1244.98" gradientUnits="userSpaceOnUse">
<stop stop-color="#303135"/>
<stop offset="1" stop-color="#08090D"/>
</linearGradient>
<linearGradient id="paint4_linear_1036_1087" x1="838" y1="0" x2="838" y2="1057" gradientUnits="userSpaceOnUse">
<stop stop-color="#3A3845"/>
<stop offset="0.5" stop-color="#826F66"/>
<stop offset="1" stop-color="#302A18"/>
</linearGradient>
</defs>
</svg>
