<svg width="1554" height="1093" viewBox="0 0 1554 1093" fill="none" xmlns="http://www.w3.org/2000/svg">
<rect width="1554" height="1093" rx="30" fill="black"/>
<rect width="1440" height="1024" transform="translate(57 34)" fill="url(#paint0_linear_116_10)"/>
<path d="M415.531 366.109C415.453 366.234 415.258 366.266 414.945 366.203C414.648 366.125 414.297 366.086 413.891 366.086C413.484 366.086 412.906 366.172 412.156 366.344C411.422 366.5 410.258 366.75 408.664 367.094C407.07 367.453 405.617 367.633 404.305 367.633C401.336 367.633 398.453 366.938 395.656 365.547C392.875 364.141 390.648 362.156 388.977 359.594C387.305 357.016 386.469 354.031 386.469 350.641C386.469 347.25 387.305 344.18 388.977 341.43C391.414 337.398 395.086 334.773 399.992 333.555C401.555 333.164 403.117 332.969 404.68 332.969C406.82 332.969 409.359 333.328 412.297 334.047C413.188 334.266 413.938 334.492 414.547 334.727C415.172 334.961 415.555 335.078 415.695 335.078L416.398 334.891H417.125C417.312 334.891 417.406 335.023 417.406 335.289V342.578C417.406 342.734 417.266 342.812 416.984 342.812C416.703 342.812 416.539 342.781 416.492 342.719C416.445 342.641 416.398 342.555 416.352 342.461C416.305 342.352 416.25 342.242 416.188 342.133C416.141 342.023 416.086 341.922 416.023 341.828C415.977 341.734 415.945 341.664 415.93 341.617C413.586 336.914 410.031 334.562 405.266 334.562C400.969 334.562 397.609 335.93 395.188 338.664C392.766 341.398 391.555 345.023 391.555 349.539C391.555 354.039 392.883 357.906 395.539 361.141C398.211 364.375 401.836 365.992 406.414 365.992C408.914 365.992 411.188 365.25 413.234 363.766C415.297 362.281 416.914 360.461 418.086 358.305C418.117 358.211 418.211 358.164 418.367 358.164H418.672C418.828 358.164 418.906 358.258 418.906 358.445C418.906 358.633 418.859 358.812 418.766 358.984L415.531 366.109ZM428.703 348.859C428.703 349.234 428.758 349.422 428.867 349.422C428.977 349.422 429.055 349.398 429.102 349.352C429.148 349.289 429.477 348.922 430.086 348.25C431.852 346.281 433.641 345.297 435.453 345.297C437.828 345.297 439.57 345.828 440.68 346.891C442.039 348.234 442.719 350.492 442.719 353.664V363.438C442.719 364.969 443.562 365.859 445.25 366.109C445.984 366.203 446.352 366.367 446.352 366.602C446.352 366.836 446.273 366.969 446.117 367H435.664C435.508 366.969 435.43 366.859 435.43 366.672C435.43 366.391 435.797 366.203 436.531 366.109C438.219 365.859 439.062 364.969 439.062 363.438V353.898C439.062 351.602 438.898 350.109 438.57 349.422C437.945 348.047 436.641 347.359 434.656 347.359C433.438 347.359 432.141 347.883 430.766 348.93C429.391 349.961 428.703 351.102 428.703 352.352V363.438C428.703 364.969 429.547 365.859 431.234 366.109C431.969 366.203 432.336 366.367 432.336 366.602C432.336 366.836 432.258 366.969 432.102 367H421.648C421.492 366.969 421.414 366.859 421.414 366.672C421.414 366.391 421.781 366.203 422.516 366.109C424.203 365.859 425.047 364.969 425.047 363.438V334.211C425.047 333.555 424.688 333.102 423.969 332.852C423.656 332.742 423.32 332.656 422.961 332.594C422.602 332.516 422.312 332.445 422.094 332.383C421.891 332.32 421.758 332.266 421.695 332.219C421.648 332.156 421.625 332.039 421.625 331.867C421.625 331.68 421.742 331.523 421.977 331.398L427.953 328.586C428.141 328.492 428.258 328.445 428.305 328.445C428.57 328.445 428.703 328.633 428.703 329.008V348.859ZM448.812 356.477C448.812 353.398 449.898 350.758 452.07 348.555C454.258 346.336 456.875 345.227 459.922 345.227C462.969 345.227 465.617 346.305 467.867 348.461C470.117 350.602 471.242 353.25 471.242 356.406C471.242 359.562 470.172 362.227 468.031 364.398C465.906 366.555 463.234 367.633 460.016 367.633C456.797 367.633 454.125 366.539 452 364.352C449.875 362.164 448.812 359.539 448.812 356.477ZM454.648 362.5C456.18 365.078 458.266 366.367 460.906 366.367C462.953 366.367 464.516 365.547 465.594 363.906C466.688 362.266 467.234 360.25 467.234 357.859C467.234 355.469 466.469 353.016 464.938 350.5C463.422 347.984 461.375 346.727 458.797 346.727C456.906 346.727 455.414 347.547 454.32 349.188C453.242 350.812 452.703 352.883 452.703 355.398C452.703 357.898 453.352 360.266 454.648 362.5ZM474.781 356.477C474.781 353.398 475.867 350.758 478.039 348.555C480.227 346.336 482.844 345.227 485.891 345.227C488.938 345.227 491.586 346.305 493.836 348.461C496.086 350.602 497.211 353.25 497.211 356.406C497.211 359.562 496.141 362.227 494 364.398C491.875 366.555 489.203 367.633 485.984 367.633C482.766 367.633 480.094 366.539 477.969 364.352C475.844 362.164 474.781 359.539 474.781 356.477ZM480.617 362.5C482.148 365.078 484.234 366.367 486.875 366.367C488.922 366.367 490.484 365.547 491.562 363.906C492.656 362.266 493.203 360.25 493.203 357.859C493.203 355.469 492.438 353.016 490.906 350.5C489.391 347.984 487.344 346.727 484.766 346.727C482.875 346.727 481.383 347.547 480.289 349.188C479.211 350.812 478.672 352.883 478.672 355.398C478.672 357.898 479.32 360.266 480.617 362.5ZM512 350.969C512 351.312 511.867 351.484 511.602 351.484C511.352 351.484 511.156 351.297 511.016 350.922C510.641 349.891 510.078 348.977 509.328 348.18C508.594 347.383 507.68 346.984 506.586 346.984C505.148 346.984 504.18 347.703 503.68 349.141C503.523 349.625 503.445 350.125 503.445 350.641C503.445 351.156 503.773 351.734 504.43 352.375C505.086 353 506.164 353.75 507.664 354.625C509.164 355.5 510.258 356.242 510.945 356.852C512.508 358.242 513.289 359.852 513.289 361.68C513.289 363.508 512.617 364.961 511.273 366.039C509.93 367.102 508.367 367.633 506.586 367.633C505.633 367.633 504.766 367.5 503.984 367.234C503.219 366.984 502.773 366.859 502.648 366.859C502.539 366.859 502.352 366.984 502.086 367.234C501.836 367.5 501.633 367.633 501.477 367.633H501.078C500.984 367.633 500.867 366.789 500.727 365.102C500.586 363.414 500.516 362.414 500.516 362.102C500.516 361.789 500.539 361.617 500.586 361.586C500.648 361.555 500.742 361.539 500.867 361.539C500.992 361.539 501.094 361.578 501.172 361.656C501.266 361.734 501.344 361.836 501.406 361.961C501.469 362.07 501.516 362.188 501.547 362.312C501.594 362.438 501.695 362.672 501.852 363.016C502.914 365.281 504.555 366.414 506.773 366.414C507.758 366.414 508.547 366.055 509.141 365.336C509.734 364.602 510.031 363.789 510.031 362.898C510.031 362.008 509.797 361.258 509.328 360.648C508.859 360.039 508.273 359.484 507.57 358.984C506.883 358.484 506.133 358 505.32 357.531C502.164 355.688 500.586 353.648 500.586 351.414C500.586 349.742 501.305 348.305 502.742 347.102C504.18 345.883 505.656 345.273 507.172 345.273C508.688 345.273 509.805 345.438 510.523 345.766C511.258 346.094 511.688 346.375 511.812 346.609C511.938 346.828 512 347.562 512 348.812V350.969ZM520.484 354.648C520.219 354.648 520.086 355.219 520.086 356.359C520.086 358.781 520.805 360.812 522.242 362.453C523.68 364.094 525.461 364.914 527.586 364.914C529.727 364.914 531.781 363.992 533.75 362.148C533.781 362.117 533.82 362.102 533.867 362.102H533.984C534.078 362.102 534.164 362.18 534.242 362.336C534.336 362.477 534.422 362.57 534.5 362.617C532.688 364.82 530.555 366.344 528.102 367.188C527.258 367.484 526.305 367.633 525.242 367.633C524.18 367.633 523.102 367.344 522.008 366.766C520.914 366.172 519.977 365.398 519.195 364.445C517.539 362.461 516.711 359.992 516.711 357.039C516.711 354.07 517.609 351.367 519.406 348.93C521.219 346.492 523.703 345.273 526.859 345.273C529.125 345.273 530.977 346.289 532.414 348.32C533.852 350.336 534.57 352.109 534.57 353.641C534.57 354.312 534.406 354.648 534.078 354.648H520.484ZM520.742 352.398C520.742 352.695 520.883 352.844 521.164 352.844H530C530.406 352.844 530.609 352.602 530.609 352.117C530.609 350.992 530.102 349.844 529.086 348.672C528.086 347.484 526.984 346.891 525.781 346.891C524.609 346.891 523.539 347.422 522.57 348.484C521.617 349.547 521.008 350.758 520.742 352.117V352.398ZM565.883 363.133C565.883 363.539 566.07 363.867 566.445 364.117C566.836 364.352 567.281 364.469 567.781 364.469C568.281 364.469 568.695 364.344 569.023 364.094C569.367 363.828 569.602 363.695 569.727 363.695C569.852 363.695 569.914 363.867 569.914 364.211C569.914 364.539 569.758 364.82 569.445 365.055C567.102 366.773 565.516 367.633 564.688 367.633C563.688 367.633 562.875 366.594 562.25 364.516C562.203 364.359 562.164 364.289 562.133 364.305C560.195 365.758 558.977 366.633 558.477 366.93C557.195 367.664 555.906 367.781 554.609 367.281C553.328 366.781 552.398 365.953 551.82 364.797C551.539 364.203 551.398 363.57 551.398 362.898C551.398 361.57 551.891 360.516 552.875 359.734C553.859 358.953 555.734 358.203 558.5 357.484C559.438 357.234 560.273 356.914 561.008 356.523C561.742 356.133 562.125 355.883 562.156 355.773C562.203 355.664 562.227 355.562 562.227 355.469V350.969C562.227 349.203 561.539 347.961 560.164 347.242C559.711 347.008 559.164 346.891 558.523 346.891C557.898 346.891 557.258 347.141 556.602 347.641C555.961 348.141 555.641 348.852 555.641 349.773L555.758 350.688C555.664 350.875 555.102 351.188 554.07 351.625C553.039 352.062 552.445 352.297 552.289 352.328C552.039 352.328 551.914 352.031 551.914 351.438C551.914 350.828 552.094 350.156 552.453 349.422C552.812 348.688 553.32 348.016 553.977 347.406C555.508 345.984 557.258 345.273 559.227 345.273C561.195 345.273 562.797 345.82 564.031 346.914C565.266 347.992 565.883 349.281 565.883 350.781V363.133ZM555.078 362.453C555.078 363.203 555.367 363.859 555.945 364.422C556.523 364.969 557.18 365.242 557.914 365.242C558.664 365.242 559.57 364.93 560.633 364.305C561.695 363.664 562.227 363.008 562.227 362.336V357.578C562.227 357.406 562.188 357.32 562.109 357.32C562.031 357.32 561.977 357.328 561.945 357.344L556.508 359.875C555.945 360.281 555.562 360.625 555.359 360.906C555.172 361.188 555.078 361.703 555.078 362.453ZM599.516 346.258C600.203 346.492 600.625 346.609 600.781 346.609C600.938 346.609 601.031 346.609 601.062 346.609C601.109 346.594 601.164 346.492 601.227 346.305V334.211C601.227 333.555 600.867 333.102 600.148 332.852C599.836 332.742 599.5 332.656 599.141 332.594C598.781 332.516 598.492 332.445 598.273 332.383C598.07 332.32 597.938 332.266 597.875 332.219C597.828 332.156 597.805 332.039 597.805 331.867C597.805 331.68 597.922 331.523 598.156 331.398L604.133 328.586C604.32 328.492 604.438 328.445 604.484 328.445C604.75 328.445 604.883 328.633 604.883 329.008V362.383C604.961 363.07 605.156 363.562 605.469 363.859C605.781 364.156 606.289 364.305 606.992 364.305L608.352 364.211C608.445 364.211 608.492 364.305 608.492 364.492C608.492 364.664 608.375 364.805 608.141 364.914L601.906 367.492C601.719 367.586 601.555 367.633 601.414 367.633C601.289 367.633 601.227 367.438 601.227 367.047V364.914C601.227 364.758 601.188 364.68 601.109 364.68C601 364.68 600.352 365.031 599.164 365.734C595.523 367.891 592.453 368.211 589.953 366.695C587.953 365.477 586.602 363.547 585.898 360.906C585.57 359.672 585.406 358.367 585.406 356.992C585.406 355.602 585.688 354.227 586.25 352.867C586.828 351.492 587.617 350.289 588.617 349.258C590.82 347.008 593.477 345.883 596.586 345.883C597.852 345.883 598.828 346.008 599.516 346.258ZM588.945 356.312C588.945 358.672 589.602 360.742 590.914 362.523C592.227 364.289 594.055 365.172 596.398 365.172C597.43 365.172 598.492 364.922 599.586 364.422C600.68 363.906 601.227 363.516 601.227 363.25V351.156C601.227 350.859 601.023 350.508 600.617 350.102C599.367 348.383 597.703 347.523 595.625 347.523C593.562 347.523 591.93 348.398 590.727 350.148C589.539 351.883 588.945 353.938 588.945 356.312ZM614.375 354.648C614.109 354.648 613.977 355.219 613.977 356.359C613.977 358.781 614.695 360.812 616.133 362.453C617.57 364.094 619.352 364.914 621.477 364.914C623.617 364.914 625.672 363.992 627.641 362.148C627.672 362.117 627.711 362.102 627.758 362.102H627.875C627.969 362.102 628.055 362.18 628.133 362.336C628.227 362.477 628.312 362.57 628.391 362.617C626.578 364.82 624.445 366.344 621.992 367.188C621.148 367.484 620.195 367.633 619.133 367.633C618.07 367.633 616.992 367.344 615.898 366.766C614.805 366.172 613.867 365.398 613.086 364.445C611.43 362.461 610.602 359.992 610.602 357.039C610.602 354.07 611.5 351.367 613.297 348.93C615.109 346.492 617.594 345.273 620.75 345.273C623.016 345.273 624.867 346.289 626.305 348.32C627.742 350.336 628.461 352.109 628.461 353.641C628.461 354.312 628.297 354.648 627.969 354.648H614.375ZM614.633 352.398C614.633 352.695 614.773 352.844 615.055 352.844H623.891C624.297 352.844 624.5 352.602 624.5 352.117C624.5 350.992 623.992 349.844 622.977 348.672C621.977 347.484 620.875 346.891 619.672 346.891C618.5 346.891 617.43 347.422 616.461 348.484C615.508 349.547 614.898 350.758 614.633 352.117V352.398ZM650.047 364.539C647.891 366.602 645.469 367.633 642.781 367.633C641.812 367.633 640.492 367.453 638.82 367.094C638.555 367.094 638.406 367.188 638.375 367.375C638.359 367.562 638.344 367.758 638.328 367.961V377.969C638.328 379.141 639.008 379.922 640.367 380.312C640.961 380.469 641.516 380.578 642.031 380.641C642.547 380.719 642.875 380.789 643.016 380.852C643.172 380.914 643.25 381.031 643.25 381.203C643.25 381.391 643.172 381.5 643.016 381.531H631.273C631.117 381.5 631.039 381.391 631.039 381.203C631.039 380.922 631.406 380.734 632.141 380.641C633.828 380.391 634.672 379.5 634.672 377.969V349.867C634.672 349.211 634.312 348.758 633.594 348.508C633.281 348.398 632.945 348.312 632.586 348.25C632.227 348.172 631.938 348.102 631.719 348.039C631.516 347.977 631.383 347.922 631.32 347.875C631.273 347.812 631.25 347.695 631.25 347.523C631.25 347.336 631.367 347.18 631.602 347.055L637.578 344.195C637.703 344.133 637.828 344.102 637.953 344.102C638.203 344.102 638.328 344.289 638.328 344.664V347.641C638.328 347.812 638.414 347.898 638.586 347.898C638.773 347.898 639.211 347.672 639.898 347.219C641.883 345.938 643.945 345.297 646.086 345.297C647.586 345.297 648.961 345.906 650.211 347.125C651.852 348.719 652.945 350.938 653.492 353.781C653.648 354.594 653.727 355.461 653.727 356.383C653.727 357.289 653.578 358.25 653.281 359.266C652.688 361.281 651.609 363.039 650.047 364.539ZM643.344 347.734C641.219 347.734 639.547 348.344 638.328 349.562V362.734C638.328 363.516 638.461 364.023 638.727 364.258C639.414 364.852 640.469 365.312 641.891 365.641C644.703 366.281 646.891 365.609 648.453 363.625C649.562 362.203 650.117 360.484 650.117 358.469C650.117 354.547 649.234 351.609 647.469 349.656C646.406 348.469 645.031 347.828 643.344 347.734ZM672.43 363.133C672.43 363.539 672.617 363.867 672.992 364.117C673.383 364.352 673.828 364.469 674.328 364.469C674.828 364.469 675.242 364.344 675.57 364.094C675.914 363.828 676.148 363.695 676.273 363.695C676.398 363.695 676.461 363.867 676.461 364.211C676.461 364.539 676.305 364.82 675.992 365.055C673.648 366.773 672.062 367.633 671.234 367.633C670.234 367.633 669.422 366.594 668.797 364.516C668.75 364.359 668.711 364.289 668.68 364.305C666.742 365.758 665.523 366.633 665.023 366.93C663.742 367.664 662.453 367.781 661.156 367.281C659.875 366.781 658.945 365.953 658.367 364.797C658.086 364.203 657.945 363.57 657.945 362.898C657.945 361.57 658.438 360.516 659.422 359.734C660.406 358.953 662.281 358.203 665.047 357.484C665.984 357.234 666.82 356.914 667.555 356.523C668.289 356.133 668.672 355.883 668.703 355.773C668.75 355.664 668.773 355.562 668.773 355.469V350.969C668.773 349.203 668.086 347.961 666.711 347.242C666.258 347.008 665.711 346.891 665.07 346.891C664.445 346.891 663.805 347.141 663.148 347.641C662.508 348.141 662.188 348.852 662.188 349.773L662.305 350.688C662.211 350.875 661.648 351.188 660.617 351.625C659.586 352.062 658.992 352.297 658.836 352.328C658.586 352.328 658.461 352.031 658.461 351.438C658.461 350.828 658.641 350.156 659 349.422C659.359 348.688 659.867 348.016 660.523 347.406C662.055 345.984 663.805 345.273 665.773 345.273C667.742 345.273 669.344 345.82 670.578 346.914C671.812 347.992 672.43 349.281 672.43 350.781V363.133ZM661.625 362.453C661.625 363.203 661.914 363.859 662.492 364.422C663.07 364.969 663.727 365.242 664.461 365.242C665.211 365.242 666.117 364.93 667.18 364.305C668.242 363.664 668.773 363.008 668.773 362.336V357.578C668.773 357.406 668.734 357.32 668.656 357.32C668.578 357.32 668.523 357.328 668.492 357.344L663.055 359.875C662.492 360.281 662.109 360.625 661.906 360.906C661.719 361.188 661.625 361.703 661.625 362.453ZM692.961 350.195C692.773 350.164 692.5 350.062 692.141 349.891C690.844 349.297 689.828 349 689.094 349C688.359 349 687.586 349.461 686.773 350.383C685.977 351.289 685.578 352.109 685.578 352.844V363.438C685.578 364.609 686.258 365.391 687.617 365.781C688.211 365.938 688.766 366.055 689.281 366.133C689.797 366.195 690.125 366.258 690.266 366.32C690.422 366.383 690.5 366.508 690.5 366.695C690.5 366.867 690.422 366.969 690.266 367H678.523C678.367 366.969 678.289 366.859 678.289 366.672C678.289 366.391 678.656 366.203 679.391 366.109C681.078 365.859 681.922 364.969 681.922 363.438V351.039C681.922 350.383 681.562 349.93 680.844 349.68C680.531 349.57 680.195 349.484 679.836 349.422C679.477 349.344 679.188 349.273 678.969 349.211C678.766 349.148 678.633 349.094 678.57 349.047C678.523 348.984 678.5 348.867 678.5 348.695C678.5 348.508 678.617 348.352 678.852 348.227L684.828 345.414C685.016 345.32 685.133 345.273 685.18 345.273C685.445 345.273 685.578 345.461 685.578 345.836V349.633C685.578 349.82 685.625 349.914 685.719 349.914C685.844 349.914 686.164 349.547 686.68 348.812C688.164 346.734 689.391 345.695 690.359 345.695C690.906 345.695 691.742 345.914 692.867 346.352C694.008 346.789 694.578 347.156 694.578 347.453C694.578 347.812 694.398 348.359 694.039 349.094C693.68 349.828 693.32 350.195 692.961 350.195ZM701.938 348.977C701.844 348.977 701.797 349.047 701.797 349.188V362.125C701.797 363.062 702 363.797 702.406 364.328C702.828 364.859 703.359 365.125 704 365.125C704.641 365.125 705.195 365.023 705.664 364.82C706.148 364.602 706.562 364.367 706.906 364.117C707.266 363.867 707.586 363.641 707.867 363.438C708.148 363.219 708.398 363.109 708.617 363.109C708.836 363.109 708.945 363.164 708.945 363.273C708.945 363.648 708.906 363.891 708.828 364C706.953 366.422 705.141 367.633 703.391 367.633C701.656 367.633 700.344 367.086 699.453 365.992C698.578 364.883 698.141 363.562 698.141 362.031V348.977H696.383C695.945 348.977 695.711 348.836 695.68 348.555C695.664 348.273 695.711 348.094 695.82 348.016C696.648 347.484 697.789 346.531 699.242 345.156C699.398 344.984 699.609 344.727 699.875 344.383C700.141 344.039 700.523 343.57 701.023 342.977C701.539 342.383 701.93 342.086 702.195 342.086C702.461 342.086 702.594 342.195 702.594 342.414C702.594 342.445 702.328 343.469 701.797 345.484C701.797 345.766 701.922 345.914 702.172 345.93H708.148C708.836 345.93 709.18 346.898 709.18 348.836C709.18 348.93 709.117 348.977 708.992 348.977H701.938ZM742.32 359.617L742.273 354.672C742.273 352.656 742.102 351.242 741.758 350.43C741.414 349.617 740.977 349.008 740.445 348.602C739.914 348.18 739.195 347.969 738.289 347.969C737.398 347.969 735.5 348.672 732.594 350.078C732.203 350.312 732 350.531 731.984 350.734V363.344C731.984 364.922 732.828 365.828 734.516 366.062C735.25 366.172 735.617 366.352 735.617 366.602C735.617 366.836 735.539 366.969 735.383 367H724.93C724.773 366.969 724.695 366.859 724.695 366.672C724.695 366.375 725.062 366.172 725.797 366.062C727.484 365.828 728.328 364.922 728.328 363.344V351.672C728.328 349.219 726.812 347.992 723.781 347.992C722.672 347.992 721.133 348.648 719.164 349.961C718.664 350.289 718.297 350.594 718.062 350.875V363.344C718.062 364.922 718.906 365.828 720.594 366.062C721.328 366.172 721.695 366.352 721.695 366.602C721.695 366.836 721.617 366.969 721.461 367H711.008C710.852 366.969 710.773 366.859 710.773 366.672C710.773 366.375 711.141 366.172 711.875 366.062C713.562 365.828 714.406 364.938 714.406 363.391V349.891C714.406 349.234 714.047 348.781 713.328 348.531C713.016 348.422 712.68 348.336 712.32 348.273C711.961 348.195 711.672 348.125 711.453 348.062C711.25 348 711.117 347.945 711.055 347.898C711.008 347.836 710.984 347.719 710.984 347.547C710.984 347.359 711.102 347.203 711.336 347.078L717.312 344.266C717.5 344.172 717.617 344.125 717.664 344.125C717.93 344.125 718.062 344.312 718.062 344.688V348.578C718.078 348.672 718.133 348.719 718.227 348.719C718.336 348.719 718.594 348.609 719 348.391C719.422 348.172 719.969 347.867 720.641 347.477C721.312 347.07 722.195 346.602 723.289 346.07C724.398 345.539 725.57 345.273 726.805 345.273C728.789 345.273 730.211 346.125 731.07 347.828C731.398 348.516 731.695 348.812 731.961 348.719C732.227 348.609 732.641 348.414 733.203 348.133C734.531 347.477 735.875 346.836 737.234 346.211C738.594 345.586 739.719 345.273 740.609 345.273C744.219 345.273 746.023 348.562 746.023 355.141L745.812 361.984V363.344C745.812 364.562 746.422 365.359 747.641 365.734C748.156 365.906 748.648 366.031 749.117 366.109C749.602 366.172 749.914 366.234 750.055 366.297C750.211 366.359 750.289 366.484 750.289 366.672C750.289 366.859 750.211 366.969 750.055 367H738.758C738.602 366.969 738.523 366.859 738.523 366.672C738.523 366.375 738.891 366.172 739.625 366.062C741.297 365.828 742.133 364.859 742.133 363.156C742.258 362.375 742.32 361.195 742.32 359.617ZM755.797 354.648C755.531 354.648 755.398 355.219 755.398 356.359C755.398 358.781 756.117 360.812 757.555 362.453C758.992 364.094 760.773 364.914 762.898 364.914C765.039 364.914 767.094 363.992 769.062 362.148C769.094 362.117 769.133 362.102 769.18 362.102H769.297C769.391 362.102 769.477 362.18 769.555 362.336C769.648 362.477 769.734 362.57 769.812 362.617C768 364.82 765.867 366.344 763.414 367.188C762.57 367.484 761.617 367.633 760.555 367.633C759.492 367.633 758.414 367.344 757.32 366.766C756.227 366.172 755.289 365.398 754.508 364.445C752.852 362.461 752.023 359.992 752.023 357.039C752.023 354.07 752.922 351.367 754.719 348.93C756.531 346.492 759.016 345.273 762.172 345.273C764.438 345.273 766.289 346.289 767.727 348.32C769.164 350.336 769.883 352.109 769.883 353.641C769.883 354.312 769.719 354.648 769.391 354.648H755.797ZM756.055 352.398C756.055 352.695 756.195 352.844 756.477 352.844H765.312C765.719 352.844 765.922 352.602 765.922 352.117C765.922 350.992 765.414 349.844 764.398 348.672C763.398 347.484 762.297 346.891 761.094 346.891C759.922 346.891 758.852 347.422 757.883 348.484C756.93 349.547 756.32 350.758 756.055 352.117V352.398ZM791.023 359.617L790.977 354.672C790.977 352.656 790.805 351.242 790.461 350.43C790.117 349.617 789.68 349.008 789.148 348.602C788.617 348.18 787.898 347.969 786.992 347.969C786.102 347.969 784.203 348.672 781.297 350.078C780.906 350.312 780.703 350.531 780.688 350.734V363.344C780.688 364.922 781.531 365.828 783.219 366.062C783.953 366.172 784.32 366.352 784.32 366.602C784.32 366.836 784.242 366.969 784.086 367H773.633C773.477 366.969 773.398 366.859 773.398 366.672C773.398 366.375 773.766 366.172 774.5 366.062C776.188 365.828 777.031 364.922 777.031 363.344V349.891C777.031 349.234 776.672 348.781 775.953 348.531C775.641 348.422 775.305 348.336 774.945 348.273C774.586 348.195 774.297 348.125 774.078 348.062C773.875 348 773.742 347.945 773.68 347.898C773.633 347.836 773.609 347.719 773.609 347.547C773.609 347.359 773.727 347.203 773.961 347.078L779.938 344.266C780.125 344.172 780.242 344.125 780.289 344.125C780.555 344.125 780.688 344.312 780.688 344.688V348.344C780.734 348.5 780.797 348.578 780.875 348.578C780.969 348.578 781.305 348.438 781.883 348.156C783.227 347.484 784.578 346.836 785.938 346.211C787.297 345.586 788.422 345.273 789.312 345.273C792.922 345.273 794.727 348.562 794.727 355.141L794.516 361.984V363.344C794.516 364.562 795.125 365.359 796.344 365.734C796.859 365.906 797.352 366.031 797.82 366.109C798.305 366.172 798.617 366.234 798.758 366.297C798.914 366.359 798.992 366.484 798.992 366.672C798.992 366.859 798.914 366.969 798.758 367H787.461C787.305 366.969 787.227 366.859 787.227 366.672C787.227 366.375 787.594 366.172 788.328 366.062C790 365.828 790.836 364.859 790.836 363.156C790.961 362.375 791.023 361.195 791.023 359.617ZM806.797 348.977C806.703 348.977 806.656 349.047 806.656 349.188V362.125C806.656 363.062 806.859 363.797 807.266 364.328C807.688 364.859 808.219 365.125 808.859 365.125C809.5 365.125 810.055 365.023 810.523 364.82C811.008 364.602 811.422 364.367 811.766 364.117C812.125 363.867 812.445 363.641 812.727 363.438C813.008 363.219 813.258 363.109 813.477 363.109C813.695 363.109 813.805 363.164 813.805 363.273C813.805 363.648 813.766 363.891 813.688 364C811.812 366.422 810 367.633 808.25 367.633C806.516 367.633 805.203 367.086 804.312 365.992C803.438 364.883 803 363.562 803 362.031V348.977H801.242C800.805 348.977 800.57 348.836 800.539 348.555C800.523 348.273 800.57 348.094 800.68 348.016C801.508 347.484 802.648 346.531 804.102 345.156C804.258 344.984 804.469 344.727 804.734 344.383C805 344.039 805.383 343.57 805.883 342.977C806.398 342.383 806.789 342.086 807.055 342.086C807.32 342.086 807.453 342.195 807.453 342.414C807.453 342.445 807.188 343.469 806.656 345.484C806.656 345.766 806.781 345.914 807.031 345.93H813.008C813.695 345.93 814.039 346.898 814.039 348.836C814.039 348.93 813.977 348.977 813.852 348.977H806.797ZM834.875 348.977C834.781 348.977 834.734 349.047 834.734 349.188V362.125C834.734 363.062 834.938 363.797 835.344 364.328C835.766 364.859 836.297 365.125 836.938 365.125C837.578 365.125 838.133 365.023 838.602 364.82C839.086 364.602 839.5 364.367 839.844 364.117C840.203 363.867 840.523 363.641 840.805 363.438C841.086 363.219 841.336 363.109 841.555 363.109C841.773 363.109 841.883 363.164 841.883 363.273C841.883 363.648 841.844 363.891 841.766 364C839.891 366.422 838.078 367.633 836.328 367.633C834.594 367.633 833.281 367.086 832.391 365.992C831.516 364.883 831.078 363.562 831.078 362.031V348.977H829.32C828.883 348.977 828.648 348.836 828.617 348.555C828.602 348.273 828.648 348.094 828.758 348.016C829.586 347.484 830.727 346.531 832.18 345.156C832.336 344.984 832.547 344.727 832.812 344.383C833.078 344.039 833.461 343.57 833.961 342.977C834.477 342.383 834.867 342.086 835.133 342.086C835.398 342.086 835.531 342.195 835.531 342.414C835.531 342.445 835.266 343.469 834.734 345.484C834.734 345.766 834.859 345.914 835.109 345.93H841.086C841.773 345.93 842.117 346.898 842.117 348.836C842.117 348.93 842.055 348.977 841.93 348.977H834.875ZM844.484 356.477C844.484 353.398 845.57 350.758 847.742 348.555C849.93 346.336 852.547 345.227 855.594 345.227C858.641 345.227 861.289 346.305 863.539 348.461C865.789 350.602 866.914 353.25 866.914 356.406C866.914 359.562 865.844 362.227 863.703 364.398C861.578 366.555 858.906 367.633 855.688 367.633C852.469 367.633 849.797 366.539 847.672 364.352C845.547 362.164 844.484 359.539 844.484 356.477ZM850.32 362.5C851.852 365.078 853.938 366.367 856.578 366.367C858.625 366.367 860.188 365.547 861.266 363.906C862.359 362.266 862.906 360.25 862.906 357.859C862.906 355.469 862.141 353.016 860.609 350.5C859.094 347.984 857.047 346.727 854.469 346.727C852.578 346.727 851.086 347.547 849.992 349.188C848.914 350.812 848.375 352.883 848.375 355.398C848.375 357.898 849.023 360.266 850.32 362.5ZM888.945 347.383C888.945 347.867 889.055 348.109 889.273 348.109C889.508 348.109 890.508 347.602 892.273 346.586C894.336 345.711 895.906 345.273 896.984 345.273C898.062 345.273 899.094 345.586 900.078 346.211C901.062 346.836 901.898 347.656 902.586 348.672C904.039 350.766 904.766 353.305 904.766 356.289C904.766 359.273 903.727 361.914 901.648 364.211C899.586 366.492 896.859 367.633 893.469 367.633C891.266 367.633 889.234 367.367 887.375 366.836C886.828 366.68 886.359 366.555 885.969 366.461C885.594 366.367 885.383 366.273 885.336 366.18C885.305 366.07 885.289 365.945 885.289 365.805V334.211C885.289 333.555 884.93 333.102 884.211 332.852C883.898 332.742 883.562 332.656 883.203 332.594C882.844 332.516 882.555 332.445 882.336 332.383C882.133 332.32 882 332.266 881.938 332.219C881.891 332.156 881.867 332.039 881.867 331.867C881.867 331.68 881.984 331.523 882.219 331.398L888.195 328.586C888.383 328.492 888.5 328.445 888.547 328.445C888.812 328.445 888.945 328.633 888.945 329.008V347.383ZM893.914 348.133C892.523 348.133 890.961 348.633 889.227 349.633C889.039 349.742 888.945 349.93 888.945 350.195V361.281C889.102 362.703 889.719 363.812 890.797 364.609C891.875 365.406 893.055 365.805 894.336 365.805C896.586 365.805 898.32 364.914 899.539 363.133C900.773 361.352 901.391 359.32 901.391 357.039C901.391 354.758 900.766 352.703 899.516 350.875C898.266 349.047 896.398 348.133 893.914 348.133ZM912.781 354.648C912.516 354.648 912.383 355.219 912.383 356.359C912.383 358.781 913.102 360.812 914.539 362.453C915.977 364.094 917.758 364.914 919.883 364.914C922.023 364.914 924.078 363.992 926.047 362.148C926.078 362.117 926.117 362.102 926.164 362.102H926.281C926.375 362.102 926.461 362.18 926.539 362.336C926.633 362.477 926.719 362.57 926.797 362.617C924.984 364.82 922.852 366.344 920.398 367.188C919.555 367.484 918.602 367.633 917.539 367.633C916.477 367.633 915.398 367.344 914.305 366.766C913.211 366.172 912.273 365.398 911.492 364.445C909.836 362.461 909.008 359.992 909.008 357.039C909.008 354.07 909.906 351.367 911.703 348.93C913.516 346.492 916 345.273 919.156 345.273C921.422 345.273 923.273 346.289 924.711 348.32C926.148 350.336 926.867 352.109 926.867 353.641C926.867 354.312 926.703 354.648 926.375 354.648H912.781ZM913.039 352.398C913.039 352.695 913.18 352.844 913.461 352.844H922.297C922.703 352.844 922.906 352.602 922.906 352.117C922.906 350.992 922.398 349.844 921.383 348.672C920.383 347.484 919.281 346.891 918.078 346.891C916.906 346.891 915.836 347.422 914.867 348.484C913.914 349.547 913.305 350.758 913.039 352.117V352.398ZM948.359 347.523C948.359 347.523 950.453 347.43 954.641 347.242C955 347.242 955.234 347.281 955.344 347.359C955.453 347.438 955.57 347.711 955.695 348.18C955.82 348.633 955.883 349.062 955.883 349.469C955.883 349.875 955.844 350.109 955.766 350.172C955.688 350.234 955.531 350.266 955.297 350.266H950.094C950.188 350.438 950.289 350.617 950.398 350.805C950.508 350.992 950.648 351.305 950.82 351.742C950.992 352.18 951.078 352.859 951.078 353.781C951.078 354.688 950.852 355.641 950.398 356.641C949.961 357.625 949.312 358.5 948.453 359.266C946.547 360.984 944.078 361.844 941.047 361.844C940.25 361.844 939.375 361.695 938.422 361.398C938.188 361.648 937.875 361.883 937.484 362.102C937.094 362.305 936.711 362.516 936.336 362.734C935.398 363.266 934.93 363.797 934.93 364.328C934.93 365.656 937.133 366.336 941.539 366.367C945.945 366.398 948.836 366.547 950.211 366.812C951.602 367.062 952.68 367.57 953.445 368.336C954.648 369.539 955.25 370.914 955.25 372.461C955.25 373.789 954.68 375.156 953.539 376.562C951.555 379.047 948.523 380.703 944.445 381.531C942.992 381.828 941.453 381.977 939.828 381.977C936.875 381.977 934.633 381.438 933.102 380.359C931.57 379.297 930.805 378.008 930.805 376.492C930.805 375.664 931 374.977 931.391 374.43C931.781 373.898 932.273 373.391 932.867 372.906C933.477 372.438 934.141 371.938 934.859 371.406C935.578 370.891 936.266 370.227 936.922 369.414C935.422 369.289 934.133 368.812 933.055 367.984C931.992 367.156 931.461 366.344 931.461 365.547C931.461 364.75 931.672 364.164 932.094 363.789C932.516 363.398 933.031 363.07 933.641 362.805C934.25 362.523 934.891 362.266 935.562 362.031C936.234 361.797 936.82 361.492 937.32 361.117C935.57 360.43 934.219 359.484 933.266 358.281C932.312 357.062 931.836 355.734 931.836 354.297C931.836 351.625 932.805 349.445 934.742 347.758C936.695 346.07 939.047 345.227 941.797 345.227C944.547 345.227 946.734 345.992 948.359 347.523ZM935.609 371.969C935.25 372.328 934.953 372.711 934.719 373.117C934.484 373.523 934.367 374.031 934.367 374.641C934.367 375.266 934.586 375.914 935.023 376.586C935.477 377.273 936.086 377.891 936.852 378.438C938.539 379.688 940.57 380.312 942.945 380.312C945.32 380.312 947.469 379.617 949.391 378.227C951.328 376.852 952.297 375.336 952.297 373.68C952.297 372.039 951.5 370.938 949.906 370.375C949.156 370.125 947.227 369.969 944.117 369.906C941.008 369.844 938.992 369.758 938.07 369.648C937.664 370.117 937.242 370.531 936.805 370.891C936.383 371.25 935.984 371.609 935.609 371.969ZM947.234 353.758C947.234 351.555 946.68 349.766 945.57 348.391C944.477 347 943.023 346.305 941.211 346.305C938.867 346.305 937.211 347.406 936.242 349.609C935.867 350.453 935.68 351.422 935.68 352.516C935.68 354.75 936.141 356.609 937.062 358.094C938.188 359.875 939.664 360.766 941.492 360.766C943.32 360.766 944.734 360.148 945.734 358.914C946.734 357.68 947.234 355.961 947.234 353.758ZM957.711 367C957.555 366.969 957.477 366.859 957.477 366.672C957.477 366.391 957.844 366.203 958.578 366.109C960.266 365.859 961.109 364.969 961.109 363.438V351.039C961.109 350.383 960.75 349.93 960.031 349.68C959.719 349.57 959.383 349.484 959.023 349.422C958.664 349.344 958.375 349.273 958.156 349.211C957.953 349.148 957.82 349.094 957.758 349.047C957.711 348.984 957.688 348.867 957.688 348.695C957.688 348.508 957.805 348.352 958.039 348.227L964.016 345.414C964.203 345.32 964.32 345.273 964.367 345.273C964.633 345.273 964.766 345.461 964.766 345.836V363.438C964.766 364.969 965.609 365.859 967.297 366.109C968.031 366.203 968.398 366.367 968.398 366.602C968.398 366.836 968.32 366.969 968.164 367H957.711ZM962.586 338.688C961.945 338.688 961.375 338.484 960.875 338.078C960.391 337.672 960.148 337.109 960.148 336.391C960.148 335.656 960.383 335.078 960.852 334.656C961.32 334.234 961.875 334.023 962.516 334.023C963.172 334.023 963.719 334.273 964.156 334.773C964.609 335.273 964.836 335.812 964.836 336.391C964.836 336.969 964.625 337.5 964.203 337.984C963.781 338.453 963.242 338.688 962.586 338.688ZM988.414 359.617L988.367 354.672C988.367 352.656 988.195 351.242 987.852 350.43C987.508 349.617 987.07 349.008 986.539 348.602C986.008 348.18 985.289 347.969 984.383 347.969C983.492 347.969 981.594 348.672 978.688 350.078C978.297 350.312 978.094 350.531 978.078 350.734V363.344C978.078 364.922 978.922 365.828 980.609 366.062C981.344 366.172 981.711 366.352 981.711 366.602C981.711 366.836 981.633 366.969 981.477 367H971.023C970.867 366.969 970.789 366.859 970.789 366.672C970.789 366.375 971.156 366.172 971.891 366.062C973.578 365.828 974.422 364.922 974.422 363.344V349.891C974.422 349.234 974.062 348.781 973.344 348.531C973.031 348.422 972.695 348.336 972.336 348.273C971.977 348.195 971.688 348.125 971.469 348.062C971.266 348 971.133 347.945 971.07 347.898C971.023 347.836 971 347.719 971 347.547C971 347.359 971.117 347.203 971.352 347.078L977.328 344.266C977.516 344.172 977.633 344.125 977.68 344.125C977.945 344.125 978.078 344.312 978.078 344.688V348.344C978.125 348.5 978.188 348.578 978.266 348.578C978.359 348.578 978.695 348.438 979.273 348.156C980.617 347.484 981.969 346.836 983.328 346.211C984.688 345.586 985.812 345.273 986.703 345.273C990.312 345.273 992.117 348.562 992.117 355.141L991.906 361.984V363.344C991.906 364.562 992.516 365.359 993.734 365.734C994.25 365.906 994.742 366.031 995.211 366.109C995.695 366.172 996.008 366.234 996.148 366.297C996.305 366.359 996.383 366.484 996.383 366.672C996.383 366.859 996.305 366.969 996.148 367H984.852C984.695 366.969 984.617 366.859 984.617 366.672C984.617 366.375 984.984 366.172 985.719 366.062C987.391 365.828 988.227 364.859 988.227 363.156C988.352 362.375 988.414 361.195 988.414 359.617ZM1017.08 348.977C1016.98 348.977 1016.94 349.047 1016.94 349.188V362.125C1016.94 363.062 1017.14 363.797 1017.55 364.328C1017.97 364.859 1018.5 365.125 1019.14 365.125C1019.78 365.125 1020.34 365.023 1020.8 364.82C1021.29 364.602 1021.7 364.367 1022.05 364.117C1022.41 363.867 1022.73 363.641 1023.01 363.438C1023.29 363.219 1023.54 363.109 1023.76 363.109C1023.98 363.109 1024.09 363.164 1024.09 363.273C1024.09 363.648 1024.05 363.891 1023.97 364C1022.09 366.422 1020.28 367.633 1018.53 367.633C1016.8 367.633 1015.48 367.086 1014.59 365.992C1013.72 364.883 1013.28 363.562 1013.28 362.031V348.977H1011.52C1011.09 348.977 1010.85 348.836 1010.82 348.555C1010.8 348.273 1010.85 348.094 1010.96 348.016C1011.79 347.484 1012.93 346.531 1014.38 345.156C1014.54 344.984 1014.75 344.727 1015.02 344.383C1015.28 344.039 1015.66 343.57 1016.16 342.977C1016.68 342.383 1017.07 342.086 1017.34 342.086C1017.6 342.086 1017.73 342.195 1017.73 342.414C1017.73 342.445 1017.47 343.469 1016.94 345.484C1016.94 345.766 1017.06 345.914 1017.31 345.93H1023.29C1023.98 345.93 1024.32 346.898 1024.32 348.836C1024.32 348.93 1024.26 348.977 1024.13 348.977H1017.08ZM1032.92 348.859C1032.92 349.234 1032.98 349.422 1033.09 349.422C1033.2 349.422 1033.27 349.398 1033.32 349.352C1033.37 349.289 1033.7 348.922 1034.3 348.25C1036.07 346.281 1037.86 345.297 1039.67 345.297C1042.05 345.297 1043.79 345.828 1044.9 346.891C1046.26 348.234 1046.94 350.492 1046.94 353.664V363.438C1046.94 364.969 1047.78 365.859 1049.47 366.109C1050.2 366.203 1050.57 366.367 1050.57 366.602C1050.57 366.836 1050.49 366.969 1050.34 367H1039.88C1039.73 366.969 1039.65 366.859 1039.65 366.672C1039.65 366.391 1040.02 366.203 1040.75 366.109C1042.44 365.859 1043.28 364.969 1043.28 363.438V353.898C1043.28 351.602 1043.12 350.109 1042.79 349.422C1042.16 348.047 1040.86 347.359 1038.88 347.359C1037.66 347.359 1036.36 347.883 1034.98 348.93C1033.61 349.961 1032.92 351.102 1032.92 352.352V363.438C1032.92 364.969 1033.77 365.859 1035.45 366.109C1036.19 366.203 1036.55 366.367 1036.55 366.602C1036.55 366.836 1036.48 366.969 1036.32 367H1025.87C1025.71 366.969 1025.63 366.859 1025.63 366.672C1025.63 366.391 1026 366.203 1026.73 366.109C1028.42 365.859 1029.27 364.969 1029.27 363.438V334.211C1029.27 333.555 1028.91 333.102 1028.19 332.852C1027.88 332.742 1027.54 332.656 1027.18 332.594C1026.82 332.516 1026.53 332.445 1026.31 332.383C1026.11 332.32 1025.98 332.266 1025.91 332.219C1025.87 332.156 1025.84 332.039 1025.84 331.867C1025.84 331.68 1025.96 331.523 1026.2 331.398L1032.17 328.586C1032.36 328.492 1032.48 328.445 1032.52 328.445C1032.79 328.445 1032.92 328.633 1032.92 329.008V348.859ZM1056.69 354.648C1056.42 354.648 1056.29 355.219 1056.29 356.359C1056.29 358.781 1057.01 360.812 1058.45 362.453C1059.88 364.094 1061.66 364.914 1063.79 364.914C1065.93 364.914 1067.98 363.992 1069.95 362.148C1069.98 362.117 1070.02 362.102 1070.07 362.102H1070.19C1070.28 362.102 1070.37 362.18 1070.45 362.336C1070.54 362.477 1070.62 362.57 1070.7 362.617C1068.89 364.82 1066.76 366.344 1064.3 367.188C1063.46 367.484 1062.51 367.633 1061.45 367.633C1060.38 367.633 1059.3 367.344 1058.21 366.766C1057.12 366.172 1056.18 365.398 1055.4 364.445C1053.74 362.461 1052.91 359.992 1052.91 357.039C1052.91 354.07 1053.81 351.367 1055.61 348.93C1057.42 346.492 1059.91 345.273 1063.06 345.273C1065.33 345.273 1067.18 346.289 1068.62 348.32C1070.05 350.336 1070.77 352.109 1070.77 353.641C1070.77 354.312 1070.61 354.648 1070.28 354.648H1056.69ZM1056.95 352.398C1056.95 352.695 1057.09 352.844 1057.37 352.844H1066.2C1066.61 352.844 1066.81 352.602 1066.81 352.117C1066.81 350.992 1066.3 349.844 1065.29 348.672C1064.29 347.484 1063.19 346.891 1061.98 346.891C1060.81 346.891 1059.74 347.422 1058.77 348.484C1057.82 349.547 1057.21 350.758 1056.95 352.117V352.398ZM1093.3 348.977C1093.2 348.977 1093.16 349.047 1093.16 349.188V362.125C1093.16 363.062 1093.36 363.797 1093.77 364.328C1094.19 364.859 1094.72 365.125 1095.36 365.125C1096 365.125 1096.55 365.023 1097.02 364.82C1097.51 364.602 1097.92 364.367 1098.27 364.117C1098.62 363.867 1098.95 363.641 1099.23 363.438C1099.51 363.219 1099.76 363.109 1099.98 363.109C1100.2 363.109 1100.3 363.164 1100.3 363.273C1100.3 363.648 1100.27 363.891 1100.19 364C1098.31 366.422 1096.5 367.633 1094.75 367.633C1093.02 367.633 1091.7 367.086 1090.81 365.992C1089.94 364.883 1089.5 363.562 1089.5 362.031V348.977H1087.74C1087.3 348.977 1087.07 348.836 1087.04 348.555C1087.02 348.273 1087.07 348.094 1087.18 348.016C1088.01 347.484 1089.15 346.531 1090.6 345.156C1090.76 344.984 1090.97 344.727 1091.23 344.383C1091.5 344.039 1091.88 343.57 1092.38 342.977C1092.9 342.383 1093.29 342.086 1093.55 342.086C1093.82 342.086 1093.95 342.195 1093.95 342.414C1093.95 342.445 1093.69 343.469 1093.16 345.484C1093.16 345.766 1093.28 345.914 1093.53 345.93H1099.51C1100.2 345.93 1100.54 346.898 1100.54 348.836C1100.54 348.93 1100.48 348.977 1100.35 348.977H1093.3ZM1102.91 356.477C1102.91 353.398 1103.99 350.758 1106.16 348.555C1108.35 346.336 1110.97 345.227 1114.02 345.227C1117.06 345.227 1119.71 346.305 1121.96 348.461C1124.21 350.602 1125.34 353.25 1125.34 356.406C1125.34 359.562 1124.27 362.227 1122.12 364.398C1120 366.555 1117.33 367.633 1114.11 367.633C1110.89 367.633 1108.22 366.539 1106.09 364.352C1103.97 362.164 1102.91 359.539 1102.91 356.477ZM1108.74 362.5C1110.27 365.078 1112.36 366.367 1115 366.367C1117.05 366.367 1118.61 365.547 1119.69 363.906C1120.78 362.266 1121.33 360.25 1121.33 357.859C1121.33 355.469 1120.56 353.016 1119.03 350.5C1117.52 347.984 1115.47 346.727 1112.89 346.727C1111 346.727 1109.51 347.547 1108.41 349.188C1107.34 350.812 1106.8 352.883 1106.8 355.398C1106.8 357.898 1107.45 360.266 1108.74 362.5ZM1144.79 364.938C1144.71 364.672 1144.61 364.586 1144.48 364.68C1144.36 364.758 1143.85 365.023 1142.96 365.477C1140.04 366.93 1137.6 367.656 1135.65 367.656C1133.7 367.656 1132.29 367.031 1131.43 365.781C1131.12 365.312 1130.96 364.734 1130.96 364.047V349.75C1130.91 349.297 1130.71 348.906 1130.35 348.578C1129.87 348.172 1129.36 347.953 1128.83 347.922C1128.31 347.891 1128.05 347.734 1128.05 347.453C1128.05 347.156 1128.18 346.977 1128.43 346.914L1133.8 345.367C1133.98 345.305 1134.16 345.273 1134.34 345.273C1134.52 345.273 1134.62 345.406 1134.62 345.672V361.398C1134.62 362.492 1135.1 363.336 1136.07 363.93C1137.04 364.523 1138.27 364.82 1139.77 364.82C1141.29 364.82 1142.65 364.359 1143.85 363.438C1144.23 363.141 1144.54 362.812 1144.79 362.453V349.75C1144.74 349.297 1144.54 348.906 1144.18 348.578C1143.7 348.172 1143.19 347.953 1142.66 347.922C1142.14 347.891 1141.88 347.734 1141.88 347.453C1141.88 347.156 1142.01 346.977 1142.26 346.914L1147.62 345.367C1147.81 345.305 1147.99 345.273 1148.16 345.273C1148.35 345.273 1148.45 345.43 1148.45 345.742V362.383C1148.52 363.07 1148.72 363.562 1149.03 363.859C1149.34 364.156 1149.85 364.305 1150.55 364.305L1151.91 364.211C1152.01 364.211 1152.05 364.305 1152.05 364.492C1152.05 364.664 1151.94 364.805 1151.7 364.914L1145.47 367.492C1145.28 367.586 1145.12 367.633 1144.98 367.633C1144.85 367.633 1144.79 367.438 1144.79 367.047V364.938ZM1169.35 350.195C1169.16 350.164 1168.89 350.062 1168.53 349.891C1167.23 349.297 1166.22 349 1165.48 349C1164.75 349 1163.98 349.461 1163.16 350.383C1162.37 351.289 1161.97 352.109 1161.97 352.844V363.438C1161.97 364.609 1162.65 365.391 1164.01 365.781C1164.6 365.938 1165.16 366.055 1165.67 366.133C1166.19 366.195 1166.52 366.258 1166.66 366.32C1166.81 366.383 1166.89 366.508 1166.89 366.695C1166.89 366.867 1166.81 366.969 1166.66 367H1154.91C1154.76 366.969 1154.68 366.859 1154.68 366.672C1154.68 366.391 1155.05 366.203 1155.78 366.109C1157.47 365.859 1158.31 364.969 1158.31 363.438V351.039C1158.31 350.383 1157.95 349.93 1157.23 349.68C1156.92 349.57 1156.59 349.484 1156.23 349.422C1155.87 349.344 1155.58 349.273 1155.36 349.211C1155.16 349.148 1155.02 349.094 1154.96 349.047C1154.91 348.984 1154.89 348.867 1154.89 348.695C1154.89 348.508 1155.01 348.352 1155.24 348.227L1161.22 345.414C1161.41 345.32 1161.52 345.273 1161.57 345.273C1161.84 345.273 1161.97 345.461 1161.97 345.836V349.633C1161.97 349.82 1162.02 349.914 1162.11 349.914C1162.23 349.914 1162.55 349.547 1163.07 348.812C1164.55 346.734 1165.78 345.695 1166.75 345.695C1167.3 345.695 1168.13 345.914 1169.26 346.352C1170.4 346.789 1170.97 347.156 1170.97 347.453C1170.97 347.812 1170.79 348.359 1170.43 349.094C1170.07 349.828 1169.71 350.195 1169.35 350.195Z" fill="white"/>
<path d="M360.566 618.08C361.259 614.187 363.139 612.24 366.206 612.24C366.926 612.24 367.566 612.373 368.126 612.64C368.713 612.88 369.366 613.24 370.086 613.72C370.726 614.12 371.246 614.413 371.646 614.6C372.073 614.787 372.513 614.88 372.966 614.88C373.659 614.88 374.246 614.653 374.726 614.2C375.233 613.72 375.539 613.08 375.646 612.28H378.366C377.699 616.173 375.806 618.12 372.686 618.12C371.993 618.12 371.379 618 370.846 617.76C370.313 617.52 369.659 617.16 368.886 616.68C368.246 616.28 367.726 615.987 367.326 615.8C366.926 615.587 366.473 615.48 365.966 615.48C365.273 615.48 364.673 615.72 364.166 616.2C363.659 616.653 363.353 617.28 363.246 618.08H360.566ZM410.052 621.8H397.892L395.652 628H391.812L401.892 600.28H406.092L416.132 628H412.292L410.052 621.8ZM409.012 618.84L403.972 604.76L398.932 618.84H409.012ZM428.285 628.36C426.605 628.36 425.099 628.08 423.765 627.52C422.432 626.933 421.379 626.133 420.605 625.12C419.832 624.08 419.405 622.893 419.325 621.56H423.085C423.192 622.653 423.699 623.547 424.605 624.24C425.539 624.933 426.752 625.28 428.245 625.28C429.632 625.28 430.725 624.973 431.525 624.36C432.325 623.747 432.725 622.973 432.725 622.04C432.725 621.08 432.299 620.373 431.445 619.92C430.592 619.44 429.272 618.973 427.485 618.52C425.859 618.093 424.525 617.667 423.485 617.24C422.472 616.787 421.592 616.133 420.845 615.28C420.125 614.4 419.765 613.253 419.765 611.84C419.765 610.72 420.099 609.693 420.765 608.76C421.432 607.827 422.379 607.093 423.605 606.56C424.832 606 426.232 605.72 427.805 605.72C430.232 605.72 432.192 606.333 433.685 607.56C435.179 608.787 435.979 610.467 436.085 612.6H432.445C432.365 611.453 431.899 610.533 431.045 609.84C430.219 609.147 429.099 608.8 427.685 608.8C426.379 608.8 425.339 609.08 424.565 609.64C423.792 610.2 423.405 610.933 423.405 611.84C423.405 612.56 423.632 613.16 424.085 613.64C424.565 614.093 425.152 614.467 425.845 614.76C426.565 615.027 427.552 615.333 428.805 615.68C430.379 616.107 431.659 616.533 432.645 616.96C433.632 617.36 434.472 617.973 435.165 618.8C435.885 619.627 436.259 620.707 436.285 622.04C436.285 623.24 435.952 624.32 435.285 625.28C434.619 626.24 433.672 627 432.445 627.56C431.245 628.093 429.859 628.36 428.285 628.36ZM443.304 602.52C442.61 602.52 442.024 602.28 441.544 601.8C441.064 601.32 440.824 600.733 440.824 600.04C440.824 599.347 441.064 598.76 441.544 598.28C442.024 597.8 442.61 597.56 443.304 597.56C443.97 597.56 444.53 597.8 444.984 598.28C445.464 598.76 445.704 599.347 445.704 600.04C445.704 600.733 445.464 601.32 444.984 601.8C444.53 602.28 443.97 602.52 443.304 602.52ZM445.064 606.08V628H441.424V606.08H445.064ZM449.908 616.96C449.908 614.72 450.361 612.76 451.268 611.08C452.174 609.373 453.414 608.053 454.988 607.12C456.588 606.187 458.361 605.72 460.308 605.72C462.228 605.72 463.894 606.133 465.308 606.96C466.721 607.787 467.774 608.827 468.468 610.08V606.08H472.148V628H468.468V623.92C467.748 625.2 466.668 626.267 465.228 627.12C463.814 627.947 462.161 628.36 460.268 628.36C458.321 628.36 456.561 627.88 454.988 626.92C453.414 625.96 452.174 624.613 451.268 622.88C450.361 621.147 449.908 619.173 449.908 616.96ZM468.468 617C468.468 615.347 468.134 613.907 467.468 612.68C466.801 611.453 465.894 610.52 464.748 609.88C463.628 609.213 462.388 608.88 461.028 608.88C459.668 608.88 458.428 609.2 457.308 609.84C456.188 610.48 455.294 611.413 454.628 612.64C453.961 613.867 453.628 615.307 453.628 616.96C453.628 618.64 453.961 620.107 454.628 621.36C455.294 622.587 456.188 623.533 457.308 624.2C458.428 624.84 459.668 625.16 461.028 625.16C462.388 625.16 463.628 624.84 464.748 624.2C465.894 623.533 466.801 622.587 467.468 621.36C468.134 620.107 468.468 618.653 468.468 617ZM488.979 605.68C491.645 605.68 493.805 606.493 495.459 608.12C497.112 609.72 497.939 612.04 497.939 615.08V628H494.339V615.6C494.339 613.413 493.792 611.747 492.699 610.6C491.605 609.427 490.112 608.84 488.219 608.84C486.299 608.84 484.765 609.44 483.619 610.64C482.499 611.84 481.939 613.587 481.939 615.88V628H478.299V606.08H481.939V609.2C482.659 608.08 483.632 607.213 484.859 606.6C486.112 605.987 487.485 605.68 488.979 605.68ZM531.029 621.8H518.869L516.629 628H512.789L522.869 600.28H527.069L537.109 628H533.269L531.029 621.8ZM529.989 618.84L524.949 604.76L519.909 618.84H529.989ZM545.142 609.64C545.782 608.387 546.689 607.413 547.862 606.72C549.062 606.027 550.515 605.68 552.222 605.68V609.44H551.262C547.182 609.44 545.142 611.653 545.142 616.08V628H541.502V606.08H545.142V609.64ZM560.864 609.08V622C560.864 623.067 561.09 623.827 561.544 624.28C561.997 624.707 562.784 624.92 563.904 624.92H566.584V628H563.304C561.277 628 559.757 627.533 558.744 626.6C557.73 625.667 557.224 624.133 557.224 622V609.08H554.384V606.08H557.224V600.56H560.864V606.08H566.584V609.08H560.864Z" fill="white"/>
<path d="M352.64 727.08C353.333 723.187 355.213 721.24 358.28 721.24C359 721.24 359.64 721.373 360.2 721.64C360.787 721.88 361.44 722.24 362.16 722.72C362.8 723.12 363.32 723.413 363.72 723.6C364.147 723.787 364.587 723.88 365.04 723.88C365.733 723.88 366.32 723.653 366.8 723.2C367.307 722.72 367.613 722.08 367.72 721.28H370.44C369.773 725.173 367.88 727.12 364.76 727.12C364.067 727.12 363.453 727 362.92 726.76C362.387 726.52 361.733 726.16 360.96 725.68C360.32 725.28 359.8 724.987 359.4 724.8C359 724.587 358.547 724.48 358.04 724.48C357.347 724.48 356.747 724.72 356.24 725.2C355.733 725.653 355.427 726.28 355.32 727.08H352.64ZM389.286 712.08V721.4H399.446V724.4H389.286V734H400.646V737H385.646V709.08H400.646V712.08H389.286ZM425.594 715.08V737H421.954V733.76C421.261 734.88 420.288 735.76 419.034 736.4C417.808 737.013 416.448 737.32 414.954 737.32C413.248 737.32 411.714 736.973 410.354 736.28C408.994 735.56 407.914 734.493 407.114 733.08C406.341 731.667 405.954 729.947 405.954 727.92V715.08H409.554V727.44C409.554 729.6 410.101 731.267 411.194 732.44C412.288 733.587 413.781 734.16 415.674 734.16C417.621 734.16 419.154 733.56 420.274 732.36C421.394 731.16 421.954 729.413 421.954 727.12V715.08H425.594ZM435.38 718.64C436.02 717.387 436.927 716.413 438.1 715.72C439.3 715.027 440.753 714.68 442.46 714.68V718.44H441.5C437.42 718.44 435.38 720.653 435.38 725.08V737H431.74V715.08H435.38V718.64ZM456.222 737.36C454.169 737.36 452.302 736.893 450.622 735.96C448.969 735.027 447.662 733.707 446.702 732C445.769 730.267 445.302 728.267 445.302 726C445.302 723.76 445.782 721.787 446.742 720.08C447.729 718.347 449.062 717.027 450.742 716.12C452.422 715.187 454.302 714.72 456.382 714.72C458.462 714.72 460.342 715.187 462.022 716.12C463.702 717.027 465.022 718.333 465.982 720.04C466.969 721.747 467.462 723.733 467.462 726C467.462 728.267 466.955 730.267 465.942 732C464.955 733.707 463.609 735.027 461.902 735.96C460.195 736.893 458.302 737.36 456.222 737.36ZM456.222 734.16C457.529 734.16 458.755 733.853 459.902 733.24C461.049 732.627 461.969 731.707 462.662 730.48C463.382 729.253 463.742 727.76 463.742 726C463.742 724.24 463.395 722.747 462.702 721.52C462.009 720.293 461.102 719.387 459.982 718.8C458.862 718.187 457.649 717.88 456.342 717.88C455.009 717.88 453.782 718.187 452.662 718.8C451.569 719.387 450.689 720.293 450.022 721.52C449.355 722.747 449.022 724.24 449.022 726C449.022 727.787 449.342 729.293 449.982 730.52C450.649 731.747 451.529 732.667 452.622 733.28C453.715 733.867 454.915 734.16 456.222 734.16ZM475.888 719.12C476.608 717.867 477.675 716.827 479.088 716C480.528 715.147 482.195 714.72 484.088 714.72C486.035 714.72 487.795 715.187 489.368 716.12C490.968 717.053 492.221 718.373 493.128 720.08C494.035 721.76 494.488 723.72 494.488 725.96C494.488 728.173 494.035 730.147 493.128 731.88C492.221 733.613 490.968 734.96 489.368 735.92C487.795 736.88 486.035 737.36 484.088 737.36C482.221 737.36 480.568 736.947 479.128 736.12C477.715 735.267 476.635 734.213 475.888 732.96V747.4H472.248V715.08H475.888V719.12ZM490.768 725.96C490.768 724.307 490.435 722.867 489.768 721.64C489.101 720.413 488.195 719.48 487.048 718.84C485.928 718.2 484.688 717.88 483.328 717.88C481.995 717.88 480.755 718.213 479.608 718.88C478.488 719.52 477.581 720.467 476.888 721.72C476.221 722.947 475.888 724.373 475.888 726C475.888 727.653 476.221 729.107 476.888 730.36C477.581 731.587 478.488 732.533 479.608 733.2C480.755 733.84 481.995 734.16 483.328 734.16C484.688 734.16 485.928 733.84 487.048 733.2C488.195 732.533 489.101 731.587 489.768 730.36C490.435 729.107 490.768 727.64 490.768 725.96ZM519.279 725.2C519.279 725.893 519.239 726.627 519.159 727.4H501.639C501.773 729.56 502.506 731.253 503.839 732.48C505.199 733.68 506.839 734.28 508.759 734.28C510.333 734.28 511.639 733.92 512.679 733.2C513.746 732.453 514.493 731.467 514.919 730.24H518.839C518.253 732.347 517.079 734.067 515.319 735.4C513.559 736.707 511.373 737.36 508.759 737.36C506.679 737.36 504.813 736.893 503.159 735.96C501.533 735.027 500.253 733.707 499.319 732C498.386 730.267 497.919 728.267 497.919 726C497.919 723.733 498.373 721.747 499.279 720.04C500.186 718.333 501.453 717.027 503.079 716.12C504.733 715.187 506.626 714.72 508.759 714.72C510.839 714.72 512.679 715.173 514.279 716.08C515.879 716.987 517.106 718.24 517.959 719.84C518.839 721.413 519.279 723.2 519.279 725.2ZM515.519 724.44C515.519 723.053 515.213 721.867 514.599 720.88C513.986 719.867 513.146 719.107 512.079 718.6C511.039 718.067 509.879 717.8 508.599 717.8C506.759 717.8 505.186 718.387 503.879 719.56C502.599 720.733 501.866 722.36 501.679 724.44H515.519ZM522.724 725.96C522.724 723.72 523.177 721.76 524.084 720.08C524.991 718.373 526.231 717.053 527.804 716.12C529.404 715.187 531.177 714.72 533.124 714.72C535.044 714.72 536.711 715.133 538.124 715.96C539.537 716.787 540.591 717.827 541.284 719.08V715.08H544.964V737H541.284V732.92C540.564 734.2 539.484 735.267 538.044 736.12C536.631 736.947 534.977 737.36 533.084 737.36C531.137 737.36 529.377 736.88 527.804 735.92C526.231 734.96 524.991 733.613 524.084 731.88C523.177 730.147 522.724 728.173 522.724 725.96ZM541.284 726C541.284 724.347 540.951 722.907 540.284 721.68C539.617 720.453 538.711 719.52 537.564 718.88C536.444 718.213 535.204 717.88 533.844 717.88C532.484 717.88 531.244 718.2 530.124 718.84C529.004 719.48 528.111 720.413 527.444 721.64C526.777 722.867 526.444 724.307 526.444 725.96C526.444 727.64 526.777 729.107 527.444 730.36C528.111 731.587 529.004 732.533 530.124 733.2C531.244 733.84 532.484 734.16 533.844 734.16C535.204 734.16 536.444 733.84 537.564 733.2C538.711 732.533 539.617 731.587 540.284 730.36C540.951 729.107 541.284 727.653 541.284 726ZM561.795 714.68C564.462 714.68 566.622 715.493 568.275 717.12C569.928 718.72 570.755 721.04 570.755 724.08V737H567.155V724.6C567.155 722.413 566.608 720.747 565.515 719.6C564.422 718.427 562.928 717.84 561.035 717.84C559.115 717.84 557.582 718.44 556.435 719.64C555.315 720.84 554.755 722.587 554.755 724.88V737H551.115V715.08H554.755V718.2C555.475 717.08 556.448 716.213 557.675 715.6C558.928 714.987 560.302 714.68 561.795 714.68ZM606.005 717.28C606.005 719.6 605.205 721.533 603.605 723.08C602.032 724.6 599.618 725.36 596.365 725.36H591.005V737H587.365V709.12H596.365C599.512 709.12 601.898 709.88 603.525 711.4C605.178 712.92 606.005 714.88 606.005 717.28ZM596.365 722.36C598.392 722.36 599.885 721.92 600.845 721.04C601.805 720.16 602.285 718.907 602.285 717.28C602.285 713.84 600.312 712.12 596.365 712.12H591.005V722.36H596.365ZM609.169 725.96C609.169 723.72 609.623 721.76 610.529 720.08C611.436 718.373 612.676 717.053 614.249 716.12C615.849 715.187 617.623 714.72 619.569 714.72C621.489 714.72 623.156 715.133 624.569 715.96C625.983 716.787 627.036 717.827 627.729 719.08V715.08H631.409V737H627.729V732.92C627.009 734.2 625.929 735.267 624.489 736.12C623.076 736.947 621.423 737.36 619.529 737.36C617.583 737.36 615.823 736.88 614.249 735.92C612.676 734.96 611.436 733.613 610.529 731.88C609.623 730.147 609.169 728.173 609.169 725.96ZM627.729 726C627.729 724.347 627.396 722.907 626.729 721.68C626.063 720.453 625.156 719.52 624.009 718.88C622.889 718.213 621.649 717.88 620.289 717.88C618.929 717.88 617.689 718.2 616.569 718.84C615.449 719.48 614.556 720.413 613.889 721.64C613.223 722.867 612.889 724.307 612.889 725.96C612.889 727.64 613.223 729.107 613.889 730.36C614.556 731.587 615.449 732.533 616.569 733.2C617.689 733.84 618.929 734.16 620.289 734.16C621.649 734.16 622.889 733.84 624.009 733.2C625.156 732.533 626.063 731.587 626.729 730.36C627.396 729.107 627.729 727.653 627.729 726ZM639.44 711.52C638.747 711.52 638.16 711.28 637.68 710.8C637.2 710.32 636.96 709.733 636.96 709.04C636.96 708.347 637.2 707.76 637.68 707.28C638.16 706.8 638.747 706.56 639.44 706.56C640.107 706.56 640.667 706.8 641.12 707.28C641.6 707.76 641.84 708.347 641.84 709.04C641.84 709.733 641.6 710.32 641.12 710.8C640.667 711.28 640.107 711.52 639.44 711.52ZM641.2 715.08V737H637.56V715.08H641.2ZM658.084 714.68C660.751 714.68 662.911 715.493 664.564 717.12C666.218 718.72 667.044 721.04 667.044 724.08V737H663.444V724.6C663.444 722.413 662.898 720.747 661.804 719.6C660.711 718.427 659.218 717.84 657.324 717.84C655.404 717.84 653.871 718.44 652.724 719.64C651.604 720.84 651.044 722.587 651.044 724.88V737H647.404V715.08H651.044V718.2C651.764 717.08 652.738 716.213 653.964 715.6C655.218 714.987 656.591 714.68 658.084 714.68ZM677.43 718.08V731C677.43 732.067 677.657 732.827 678.11 733.28C678.563 733.707 679.35 733.92 680.47 733.92H683.15V737H679.87C677.843 737 676.323 736.533 675.31 735.6C674.297 734.667 673.79 733.133 673.79 731V718.08H670.95V715.08H673.79V709.56H677.43V715.08H683.15V718.08H677.43ZM689.44 711.52C688.747 711.52 688.16 711.28 687.68 710.8C687.2 710.32 686.96 709.733 686.96 709.04C686.96 708.347 687.2 707.76 687.68 707.28C688.16 706.8 688.747 706.56 689.44 706.56C690.107 706.56 690.667 706.8 691.12 707.28C691.6 707.76 691.84 708.347 691.84 709.04C691.84 709.733 691.6 710.32 691.12 710.8C690.667 711.28 690.107 711.52 689.44 711.52ZM691.2 715.08V737H687.56V715.08H691.2ZM708.084 714.68C710.751 714.68 712.911 715.493 714.564 717.12C716.218 718.72 717.044 721.04 717.044 724.08V737H713.444V724.6C713.444 722.413 712.898 720.747 711.804 719.6C710.711 718.427 709.218 717.84 707.324 717.84C705.404 717.84 703.871 718.44 702.724 719.64C701.604 720.84 701.044 722.587 701.044 724.88V737H697.404V715.08H701.044V718.2C701.764 717.08 702.738 716.213 703.964 715.6C705.218 714.987 706.591 714.68 708.084 714.68ZM732.03 714.72C733.923 714.72 735.577 715.133 736.99 715.96C738.43 716.787 739.497 717.827 740.19 719.08V715.08H743.87V737.48C743.87 739.48 743.443 741.253 742.59 742.8C741.737 744.373 740.51 745.6 738.91 746.48C737.337 747.36 735.497 747.8 733.39 747.8C730.51 747.8 728.11 747.12 726.19 745.76C724.27 744.4 723.137 742.547 722.79 740.2H726.39C726.79 741.533 727.617 742.6 728.87 743.4C730.123 744.227 731.63 744.64 733.39 744.64C735.39 744.64 737.017 744.013 738.27 742.76C739.55 741.507 740.19 739.747 740.19 737.48V732.88C739.47 734.16 738.403 735.227 736.99 736.08C735.577 736.933 733.923 737.36 732.03 737.36C730.083 737.36 728.31 736.88 726.71 735.92C725.137 734.96 723.897 733.613 722.99 731.88C722.083 730.147 721.63 728.173 721.63 725.96C721.63 723.72 722.083 721.76 722.99 720.08C723.897 718.373 725.137 717.053 726.71 716.12C728.31 715.187 730.083 714.72 732.03 714.72ZM740.19 726C740.19 724.347 739.857 722.907 739.19 721.68C738.523 720.453 737.617 719.52 736.47 718.88C735.35 718.213 734.11 717.88 732.75 717.88C731.39 717.88 730.15 718.2 729.03 718.84C727.91 719.48 727.017 720.413 726.35 721.64C725.683 722.867 725.35 724.307 725.35 725.96C725.35 727.64 725.683 729.107 726.35 730.36C727.017 731.587 727.91 732.533 729.03 733.2C730.15 733.84 731.39 734.16 732.75 734.16C734.11 734.16 735.35 733.84 736.47 733.2C737.617 732.533 738.523 731.587 739.19 730.36C739.857 729.107 740.19 727.653 740.19 726ZM757.781 737.36C756.101 737.36 754.595 737.08 753.261 736.52C751.928 735.933 750.875 735.133 750.101 734.12C749.328 733.08 748.901 731.893 748.821 730.56H752.581C752.688 731.653 753.195 732.547 754.101 733.24C755.035 733.933 756.248 734.28 757.741 734.28C759.128 734.28 760.221 733.973 761.021 733.36C761.821 732.747 762.221 731.973 762.221 731.04C762.221 730.08 761.795 729.373 760.941 728.92C760.088 728.44 758.768 727.973 756.981 727.52C755.355 727.093 754.021 726.667 752.981 726.24C751.968 725.787 751.088 725.133 750.341 724.28C749.621 723.4 749.261 722.253 749.261 720.84C749.261 719.72 749.595 718.693 750.261 717.76C750.928 716.827 751.875 716.093 753.101 715.56C754.328 715 755.728 714.72 757.301 714.72C759.728 714.72 761.688 715.333 763.181 716.56C764.675 717.787 765.475 719.467 765.581 721.6H761.941C761.861 720.453 761.395 719.533 760.541 718.84C759.715 718.147 758.595 717.8 757.181 717.8C755.875 717.8 754.835 718.08 754.061 718.64C753.288 719.2 752.901 719.933 752.901 720.84C752.901 721.56 753.128 722.16 753.581 722.64C754.061 723.093 754.648 723.467 755.341 723.76C756.061 724.027 757.048 724.333 758.301 724.68C759.875 725.107 761.155 725.533 762.141 725.96C763.128 726.36 763.968 726.973 764.661 727.8C765.381 728.627 765.755 729.707 765.781 731.04C765.781 732.24 765.448 733.32 764.781 734.28C764.115 735.24 763.168 736 761.941 736.56C760.741 737.093 759.355 737.36 757.781 737.36Z" fill="white"/>
<path d="M925.531 727.08C926.224 723.187 928.104 721.24 931.171 721.24C931.891 721.24 932.531 721.373 933.091 721.64C933.677 721.88 934.331 722.24 935.051 722.72C935.691 723.12 936.211 723.413 936.611 723.6C937.037 723.787 937.477 723.88 937.931 723.88C938.624 723.88 939.211 723.653 939.691 723.2C940.197 722.72 940.504 722.08 940.611 721.28H943.331C942.664 725.173 940.771 727.12 937.651 727.12C936.957 727.12 936.344 727 935.811 726.76C935.277 726.52 934.624 726.16 933.851 725.68C933.211 725.28 932.691 724.987 932.291 724.8C931.891 724.587 931.437 724.48 930.931 724.48C930.237 724.48 929.637 724.72 929.131 725.2C928.624 725.653 928.317 726.28 928.211 727.08H925.531ZM986.817 709.32V737H983.177V716.36L973.977 737H971.417L962.177 716.32V737H958.537V709.32H962.457L972.697 732.2L982.937 709.32H986.817ZM1002.55 737.36C1000.5 737.36 998.63 736.893 996.95 735.96C995.297 735.027 993.99 733.707 993.03 732C992.097 730.267 991.63 728.267 991.63 726C991.63 723.76 992.11 721.787 993.07 720.08C994.057 718.347 995.39 717.027 997.07 716.12C998.75 715.187 1000.63 714.72 1002.71 714.72C1004.79 714.72 1006.67 715.187 1008.35 716.12C1010.03 717.027 1011.35 718.333 1012.31 720.04C1013.3 721.747 1013.79 723.733 1013.79 726C1013.79 728.267 1013.28 730.267 1012.27 732C1011.28 733.707 1009.94 735.027 1008.23 735.96C1006.52 736.893 1004.63 737.36 1002.55 737.36ZM1002.55 734.16C1003.86 734.16 1005.08 733.853 1006.23 733.24C1007.38 732.627 1008.3 731.707 1008.99 730.48C1009.71 729.253 1010.07 727.76 1010.07 726C1010.07 724.24 1009.72 722.747 1009.03 721.52C1008.34 720.293 1007.43 719.387 1006.31 718.8C1005.19 718.187 1003.98 717.88 1002.67 717.88C1001.34 717.88 1000.11 718.187 998.99 718.8C997.897 719.387 997.017 720.293 996.35 721.52C995.683 722.747 995.35 724.24 995.35 726C995.35 727.787 995.67 729.293 996.31 730.52C996.977 731.747 997.857 732.667 998.95 733.28C1000.04 733.867 1001.24 734.16 1002.55 734.16ZM1017.22 725.96C1017.22 723.72 1017.67 721.76 1018.58 720.08C1019.48 718.373 1020.72 717.053 1022.3 716.12C1023.9 715.187 1025.68 714.72 1027.66 714.72C1029.36 714.72 1030.95 715.12 1032.42 715.92C1033.88 716.693 1035 717.72 1035.78 719V707.4H1039.46V737H1035.78V732.88C1035.06 734.187 1033.99 735.267 1032.58 736.12C1031.16 736.947 1029.51 737.36 1027.62 737.36C1025.67 737.36 1023.9 736.88 1022.3 735.92C1020.72 734.96 1019.48 733.613 1018.58 731.88C1017.67 730.147 1017.22 728.173 1017.22 725.96ZM1035.78 726C1035.78 724.347 1035.44 722.907 1034.78 721.68C1034.11 720.453 1033.2 719.52 1032.06 718.88C1030.94 718.213 1029.7 717.88 1028.34 717.88C1026.98 717.88 1025.74 718.2 1024.62 718.84C1023.5 719.48 1022.6 720.413 1021.94 721.64C1021.27 722.867 1020.94 724.307 1020.94 725.96C1020.94 727.64 1021.27 729.107 1021.94 730.36C1022.6 731.587 1023.5 732.533 1024.62 733.2C1025.74 733.84 1026.98 734.16 1028.34 734.16C1029.7 734.16 1030.94 733.84 1032.06 733.2C1033.2 732.533 1034.11 731.587 1034.78 730.36C1035.44 729.107 1035.78 727.653 1035.78 726ZM1065.61 725.2C1065.61 725.893 1065.57 726.627 1065.49 727.4H1047.97C1048.1 729.56 1048.83 731.253 1050.17 732.48C1051.53 733.68 1053.17 734.28 1055.09 734.28C1056.66 734.28 1057.97 733.92 1059.01 733.2C1060.07 732.453 1060.82 731.467 1061.25 730.24H1065.17C1064.58 732.347 1063.41 734.067 1061.65 735.4C1059.89 736.707 1057.7 737.36 1055.09 737.36C1053.01 737.36 1051.14 736.893 1049.49 735.96C1047.86 735.027 1046.58 733.707 1045.65 732C1044.71 730.267 1044.25 728.267 1044.25 726C1044.25 723.733 1044.7 721.747 1045.61 720.04C1046.51 718.333 1047.78 717.027 1049.41 716.12C1051.06 715.187 1052.95 714.72 1055.09 714.72C1057.17 714.72 1059.01 715.173 1060.61 716.08C1062.21 716.987 1063.43 718.24 1064.29 719.84C1065.17 721.413 1065.61 723.2 1065.61 725.2ZM1061.85 724.44C1061.85 723.053 1061.54 721.867 1060.93 720.88C1060.31 719.867 1059.47 719.107 1058.41 718.6C1057.37 718.067 1056.21 717.8 1054.93 717.8C1053.09 717.8 1051.51 718.387 1050.21 719.56C1048.93 720.733 1048.19 722.36 1048.01 724.44H1061.85ZM1074.05 718.64C1074.69 717.387 1075.6 716.413 1076.77 715.72C1077.97 715.027 1079.43 714.68 1081.13 714.68V718.44H1080.17C1076.09 718.44 1074.05 720.653 1074.05 725.08V737H1070.41V715.08H1074.05V718.64ZM1096.01 714.68C1098.68 714.68 1100.84 715.493 1102.49 717.12C1104.15 718.72 1104.97 721.04 1104.97 724.08V737H1101.37V724.6C1101.37 722.413 1100.83 720.747 1099.73 719.6C1098.64 718.427 1097.15 717.84 1095.25 717.84C1093.33 717.84 1091.8 718.44 1090.65 719.64C1089.53 720.84 1088.97 722.587 1088.97 724.88V737H1085.33V715.08H1088.97V718.2C1089.69 717.08 1090.67 716.213 1091.89 715.6C1093.15 714.987 1094.52 714.68 1096.01 714.68ZM1138.06 730.8H1125.9L1123.66 737H1119.82L1129.9 709.28H1134.1L1144.14 737H1140.3L1138.06 730.8ZM1137.02 727.84L1131.98 713.76L1126.94 727.84H1137.02ZM1152.18 718.64C1152.82 717.387 1153.72 716.413 1154.9 715.72C1156.1 715.027 1157.55 714.68 1159.26 714.68V718.44H1158.3C1154.22 718.44 1152.18 720.653 1152.18 725.08V737H1148.54V715.08H1152.18V718.64ZM1167.9 718.08V731C1167.9 732.067 1168.13 732.827 1168.58 733.28C1169.03 733.707 1169.82 733.92 1170.94 733.92H1173.62V737H1170.34C1168.31 737 1166.79 736.533 1165.78 735.6C1164.77 734.667 1164.26 733.133 1164.26 731V718.08H1161.42V715.08H1164.26V709.56H1167.9V715.08H1173.62V718.08H1167.9Z" fill="white"/>
<path d="M924.652 618.08C925.345 614.187 927.225 612.24 930.292 612.24C931.012 612.24 931.652 612.373 932.212 612.64C932.799 612.88 933.452 613.24 934.172 613.72C934.812 614.12 935.332 614.413 935.732 614.6C936.159 614.787 936.599 614.88 937.052 614.88C937.745 614.88 938.332 614.653 938.812 614.2C939.319 613.72 939.625 613.08 939.732 612.28H942.452C941.785 616.173 939.892 618.12 936.772 618.12C936.079 618.12 935.465 618 934.932 617.76C934.399 617.52 933.745 617.16 932.972 616.68C932.332 616.28 931.812 615.987 931.412 615.8C931.012 615.587 930.559 615.48 930.052 615.48C929.359 615.48 928.759 615.72 928.252 616.2C927.745 616.653 927.439 617.28 927.332 618.08H924.652ZM961.298 603.08V612.4H971.458V615.4H961.298V625H972.658V628H957.658V600.08H972.658V603.08H961.298ZM987.206 605.72C989.099 605.72 990.753 606.133 992.166 606.96C993.606 607.787 994.673 608.827 995.366 610.08V606.08H999.046V628.48C999.046 630.48 998.619 632.253 997.766 633.8C996.913 635.373 995.686 636.6 994.086 637.48C992.513 638.36 990.673 638.8 988.566 638.8C985.686 638.8 983.286 638.12 981.366 636.76C979.446 635.4 978.313 633.547 977.966 631.2H981.566C981.966 632.533 982.793 633.6 984.046 634.4C985.299 635.227 986.806 635.64 988.566 635.64C990.566 635.64 992.193 635.013 993.446 633.76C994.726 632.507 995.366 630.747 995.366 628.48V623.88C994.646 625.16 993.579 626.227 992.166 627.08C990.753 627.933 989.099 628.36 987.206 628.36C985.259 628.36 983.486 627.88 981.886 626.92C980.313 625.96 979.073 624.613 978.166 622.88C977.259 621.147 976.806 619.173 976.806 616.96C976.806 614.72 977.259 612.76 978.166 611.08C979.073 609.373 980.313 608.053 981.886 607.12C983.486 606.187 985.259 605.72 987.206 605.72ZM995.366 617C995.366 615.347 995.033 613.907 994.366 612.68C993.699 611.453 992.793 610.52 991.646 609.88C990.526 609.213 989.286 608.88 987.926 608.88C986.566 608.88 985.326 609.2 984.206 609.84C983.086 610.48 982.193 611.413 981.526 612.64C980.859 613.867 980.526 615.307 980.526 616.96C980.526 618.64 980.859 620.107 981.526 621.36C982.193 622.587 983.086 623.533 984.206 624.2C985.326 624.84 986.566 625.16 987.926 625.16C989.286 625.16 990.526 624.84 991.646 624.2C992.793 623.533 993.699 622.587 994.366 621.36C995.033 620.107 995.366 618.653 995.366 617ZM1024.08 606.08L1010.88 638.32H1007.12L1011.44 627.76L1002.6 606.08H1006.64L1013.52 623.84L1020.32 606.08H1024.08ZM1031.38 610.12C1032.1 608.867 1033.16 607.827 1034.58 607C1036.02 606.147 1037.68 605.72 1039.58 605.72C1041.52 605.72 1043.28 606.187 1044.86 607.12C1046.46 608.053 1047.71 609.373 1048.62 611.08C1049.52 612.76 1049.98 614.72 1049.98 616.96C1049.98 619.173 1049.52 621.147 1048.62 622.88C1047.71 624.613 1046.46 625.96 1044.86 626.92C1043.28 627.88 1041.52 628.36 1039.58 628.36C1037.71 628.36 1036.06 627.947 1034.62 627.12C1033.2 626.267 1032.12 625.213 1031.38 623.96V638.4H1027.74V606.08H1031.38V610.12ZM1046.26 616.96C1046.26 615.307 1045.92 613.867 1045.26 612.64C1044.59 611.413 1043.68 610.48 1042.54 609.84C1041.42 609.2 1040.18 608.88 1038.82 608.88C1037.48 608.88 1036.24 609.213 1035.1 609.88C1033.98 610.52 1033.07 611.467 1032.38 612.72C1031.71 613.947 1031.38 615.373 1031.38 617C1031.38 618.653 1031.71 620.107 1032.38 621.36C1033.07 622.587 1033.98 623.533 1035.1 624.2C1036.24 624.84 1037.48 625.16 1038.82 625.16C1040.18 625.16 1041.42 624.84 1042.54 624.2C1043.68 623.533 1044.59 622.587 1045.26 621.36C1045.92 620.107 1046.26 618.64 1046.26 616.96ZM1059.21 609.08V622C1059.21 623.067 1059.43 623.827 1059.89 624.28C1060.34 624.707 1061.13 624.92 1062.25 624.92H1064.93V628H1061.65C1059.62 628 1058.1 627.533 1057.09 626.6C1056.07 625.667 1055.57 624.133 1055.57 622V609.08H1052.73V606.08H1055.57V600.56H1059.21V606.08H1064.93V609.08H1059.21ZM1071.22 602.52C1070.52 602.52 1069.94 602.28 1069.46 601.8C1068.98 601.32 1068.74 600.733 1068.74 600.04C1068.74 599.347 1068.98 598.76 1069.46 598.28C1069.94 597.8 1070.52 597.56 1071.22 597.56C1071.88 597.56 1072.44 597.8 1072.9 598.28C1073.38 598.76 1073.62 599.347 1073.62 600.04C1073.62 600.733 1073.38 601.32 1072.9 601.8C1072.44 602.28 1071.88 602.52 1071.22 602.52ZM1072.98 606.08V628H1069.34V606.08H1072.98ZM1077.82 616.96C1077.82 614.72 1078.27 612.76 1079.18 611.08C1080.09 609.373 1081.33 608.053 1082.9 607.12C1084.5 606.187 1086.27 605.72 1088.22 605.72C1090.14 605.72 1091.81 606.133 1093.22 606.96C1094.63 607.787 1095.69 608.827 1096.38 610.08V606.08H1100.06V628H1096.38V623.92C1095.66 625.2 1094.58 626.267 1093.14 627.12C1091.73 627.947 1090.07 628.36 1088.18 628.36C1086.23 628.36 1084.47 627.88 1082.9 626.92C1081.33 625.96 1080.09 624.613 1079.18 622.88C1078.27 621.147 1077.82 619.173 1077.82 616.96ZM1096.38 617C1096.38 615.347 1096.05 613.907 1095.38 612.68C1094.71 611.453 1093.81 610.52 1092.66 609.88C1091.54 609.213 1090.3 608.88 1088.94 608.88C1087.58 608.88 1086.34 609.2 1085.22 609.84C1084.1 610.48 1083.21 611.413 1082.54 612.64C1081.87 613.867 1081.54 615.307 1081.54 616.96C1081.54 618.64 1081.87 620.107 1082.54 621.36C1083.21 622.587 1084.1 623.533 1085.22 624.2C1086.34 624.84 1087.58 625.16 1088.94 625.16C1090.3 625.16 1091.54 624.84 1092.66 624.2C1093.81 623.533 1094.71 622.587 1095.38 621.36C1096.05 620.107 1096.38 618.653 1096.38 617ZM1116.89 605.68C1119.56 605.68 1121.72 606.493 1123.37 608.12C1125.03 609.72 1125.85 612.04 1125.85 615.08V628H1122.25V615.6C1122.25 613.413 1121.71 611.747 1120.61 610.6C1119.52 609.427 1118.03 608.84 1116.13 608.84C1114.21 608.84 1112.68 609.44 1111.53 610.64C1110.41 611.84 1109.85 613.587 1109.85 615.88V628H1106.21V606.08H1109.85V609.2C1110.57 608.08 1111.55 607.213 1112.77 606.6C1114.03 605.987 1115.4 605.68 1116.89 605.68ZM1158.94 621.8H1146.78L1144.54 628H1140.7L1150.78 600.28H1154.98L1165.02 628H1161.18L1158.94 621.8ZM1157.9 618.84L1152.86 604.76L1147.82 618.84H1157.9ZM1173.06 609.64C1173.7 608.387 1174.6 607.413 1175.78 606.72C1176.98 606.027 1178.43 605.68 1180.14 605.68V609.44H1179.18C1175.1 609.44 1173.06 611.653 1173.06 616.08V628H1169.42V606.08H1173.06V609.64ZM1188.78 609.08V622C1188.78 623.067 1189 623.827 1189.46 624.28C1189.91 624.707 1190.7 624.92 1191.82 624.92H1194.5V628H1191.22C1189.19 628 1187.67 627.533 1186.66 626.6C1185.64 625.667 1185.14 624.133 1185.14 622V609.08H1182.3V606.08H1185.14V600.56H1188.78V606.08H1194.5V609.08H1188.78Z" fill="white"/>
<path d="M148.243 134.272C150.068 134.272 151.644 134.616 152.972 135.304C154.316 135.976 155.34 136.944 156.044 138.208C156.764 139.472 157.124 140.96 157.124 142.672C157.124 144.384 156.764 145.872 156.044 147.136C155.34 148.384 154.316 149.344 152.972 150.016C151.644 150.672 150.068 151 148.243 151H143.036V134.272H148.243ZM148.243 149.2C150.404 149.2 152.052 148.632 153.188 147.496C154.324 146.344 154.892 144.736 154.892 142.672C154.892 140.592 154.316 138.968 153.164 137.8C152.028 136.632 150.388 136.048 148.243 136.048H145.22V149.2H148.243ZM161.132 135.712C160.716 135.712 160.364 135.568 160.076 135.28C159.788 134.992 159.644 134.64 159.644 134.224C159.644 133.808 159.788 133.456 160.076 133.168C160.364 132.88 160.716 132.736 161.132 132.736C161.532 132.736 161.868 132.88 162.14 133.168C162.428 133.456 162.572 133.808 162.572 134.224C162.572 134.64 162.428 134.992 162.14 135.28C161.868 135.568 161.532 135.712 161.132 135.712ZM162.188 137.848V151H160.004V137.848H162.188ZM170.567 151.216C169.559 151.216 168.655 151.048 167.855 150.712C167.055 150.36 166.423 149.88 165.959 149.272C165.495 148.648 165.239 147.936 165.191 147.136H167.447C167.511 147.792 167.815 148.328 168.359 148.744C168.919 149.16 169.647 149.368 170.543 149.368C171.375 149.368 172.031 149.184 172.511 148.816C172.991 148.448 173.231 147.984 173.231 147.424C173.231 146.848 172.975 146.424 172.463 146.152C171.951 145.864 171.159 145.584 170.087 145.312C169.111 145.056 168.311 144.8 167.687 144.544C167.079 144.272 166.551 143.88 166.103 143.368C165.671 142.84 165.455 142.152 165.455 141.304C165.455 140.632 165.655 140.016 166.055 139.456C166.455 138.896 167.023 138.456 167.759 138.136C168.495 137.8 169.335 137.632 170.279 137.632C171.735 137.632 172.911 138 173.807 138.736C174.703 139.472 175.183 140.48 175.247 141.76H173.063C173.015 141.072 172.735 140.52 172.223 140.104C171.727 139.688 171.055 139.48 170.207 139.48C169.423 139.48 168.799 139.648 168.335 139.984C167.871 140.32 167.639 140.76 167.639 141.304C167.639 141.736 167.775 142.096 168.047 142.384C168.335 142.656 168.687 142.88 169.103 143.056C169.535 143.216 170.127 143.4 170.879 143.608C171.823 143.864 172.591 144.12 173.183 144.376C173.775 144.616 174.279 144.984 174.695 145.48C175.127 145.976 175.351 146.624 175.367 147.424C175.367 148.144 175.167 148.792 174.767 149.368C174.367 149.944 173.799 150.4 173.063 150.736C172.343 151.056 171.511 151.216 170.567 151.216ZM177.634 144.4C177.634 143.04 177.906 141.856 178.45 140.848C178.994 139.824 179.746 139.032 180.706 138.472C181.682 137.912 182.794 137.632 184.042 137.632C185.658 137.632 186.986 138.024 188.026 138.808C189.082 139.592 189.778 140.68 190.114 142.072H187.762C187.538 141.272 187.098 140.64 186.442 140.176C185.802 139.712 185.002 139.48 184.042 139.48C182.794 139.48 181.786 139.912 181.018 140.776C180.25 141.624 179.866 142.832 179.866 144.4C179.866 145.984 180.25 147.208 181.018 148.072C181.786 148.936 182.794 149.368 184.042 149.368C185.002 149.368 185.802 149.144 186.442 148.696C187.082 148.248 187.522 147.608 187.762 146.776H190.114C189.762 148.12 189.058 149.2 188.002 150.016C186.946 150.816 185.626 151.216 184.042 151.216C182.794 151.216 181.682 150.936 180.706 150.376C179.746 149.816 178.994 149.024 178.45 148C177.906 146.976 177.634 145.776 177.634 144.4ZM198.764 151.216C197.532 151.216 196.412 150.936 195.404 150.376C194.412 149.816 193.628 149.024 193.052 148C192.492 146.96 192.212 145.76 192.212 144.4C192.212 143.056 192.5 141.872 193.076 140.848C193.668 139.808 194.468 139.016 195.476 138.472C196.484 137.912 197.612 137.632 198.86 137.632C200.108 137.632 201.236 137.912 202.244 138.472C203.252 139.016 204.044 139.8 204.62 140.824C205.212 141.848 205.508 143.04 205.508 144.4C205.508 145.76 205.204 146.96 204.596 148C204.004 149.024 203.196 149.816 202.172 150.376C201.148 150.936 200.012 151.216 198.764 151.216ZM198.764 149.296C199.548 149.296 200.284 149.112 200.972 148.744C201.66 148.376 202.212 147.824 202.628 147.088C203.06 146.352 203.276 145.456 203.276 144.4C203.276 143.344 203.068 142.448 202.652 141.712C202.236 140.976 201.692 140.432 201.02 140.08C200.348 139.712 199.62 139.528 198.836 139.528C198.036 139.528 197.3 139.712 196.628 140.08C195.972 140.432 195.444 140.976 195.044 141.712C194.644 142.448 194.444 143.344 194.444 144.4C194.444 145.472 194.636 146.376 195.02 147.112C195.42 147.848 195.948 148.4 196.604 148.768C197.26 149.12 197.98 149.296 198.764 149.296ZM213.275 148.984L217.355 137.848H219.683L214.523 151H211.979L206.819 137.848H209.171L213.275 148.984ZM233.832 143.92C233.832 144.336 233.808 144.776 233.76 145.24H223.248C223.328 146.536 223.768 147.552 224.568 148.288C225.384 149.008 226.368 149.368 227.52 149.368C228.464 149.368 229.248 149.152 229.872 148.72C230.512 148.272 230.96 147.68 231.216 146.944H233.568C233.216 148.208 232.512 149.24 231.456 150.04C230.4 150.824 229.088 151.216 227.52 151.216C226.272 151.216 225.152 150.936 224.16 150.376C223.184 149.816 222.416 149.024 221.856 148C221.296 146.96 221.016 145.76 221.016 144.4C221.016 143.04 221.288 141.848 221.832 140.824C222.376 139.8 223.136 139.016 224.112 138.472C225.104 137.912 226.24 137.632 227.52 137.632C228.768 137.632 229.872 137.904 230.832 138.448C231.792 138.992 232.528 139.744 233.04 140.704C233.568 141.648 233.832 142.72 233.832 143.92ZM231.576 143.464C231.576 142.632 231.392 141.92 231.024 141.328C230.656 140.72 230.152 140.264 229.512 139.96C228.888 139.64 228.192 139.48 227.424 139.48C226.32 139.48 225.376 139.832 224.592 140.536C223.824 141.24 223.384 142.216 223.272 143.464H231.576ZM238.899 139.984C239.283 139.232 239.827 138.648 240.531 138.232C241.251 137.816 242.123 137.608 243.147 137.608V139.864H242.571C240.123 139.864 238.899 141.192 238.899 143.848V151H236.715V137.848H238.899V139.984ZM254.731 139.648V147.4C254.731 148.04 254.867 148.496 255.139 148.768C255.411 149.024 255.883 149.152 256.555 149.152H258.163V151H256.195C254.979 151 254.067 150.72 253.459 150.16C252.851 149.6 252.547 148.68 252.547 147.4V139.648H250.843V137.848H252.547V134.536H254.731V137.848H258.163V139.648H254.731ZM267.337 137.608C268.329 137.608 269.225 137.824 270.025 138.256C270.825 138.672 271.449 139.304 271.897 140.152C272.361 141 272.593 142.032 272.593 143.248V151H270.433V143.56C270.433 142.248 270.105 141.248 269.449 140.56C268.793 139.856 267.897 139.504 266.761 139.504C265.609 139.504 264.689 139.864 264.001 140.584C263.329 141.304 262.993 142.352 262.993 143.728V151H260.809V133.24H262.993V139.72C263.425 139.048 264.017 138.528 264.769 138.16C265.537 137.792 266.393 137.608 267.337 137.608ZM288.161 143.92C288.161 144.336 288.137 144.776 288.089 145.24H277.577C277.657 146.536 278.097 147.552 278.897 148.288C279.713 149.008 280.697 149.368 281.849 149.368C282.793 149.368 283.577 149.152 284.201 148.72C284.841 148.272 285.289 147.68 285.545 146.944H287.897C287.545 148.208 286.841 149.24 285.785 150.04C284.729 150.824 283.417 151.216 281.849 151.216C280.601 151.216 279.481 150.936 278.489 150.376C277.513 149.816 276.745 149.024 276.185 148C275.625 146.96 275.345 145.76 275.345 144.4C275.345 143.04 275.617 141.848 276.161 140.824C276.705 139.8 277.465 139.016 278.441 138.472C279.433 137.912 280.569 137.632 281.849 137.632C283.097 137.632 284.201 137.904 285.161 138.448C286.121 138.992 286.857 139.744 287.369 140.704C287.897 141.648 288.161 142.72 288.161 143.92ZM285.905 143.464C285.905 142.632 285.721 141.92 285.353 141.328C284.985 140.72 284.481 140.264 283.841 139.96C283.217 139.64 282.521 139.48 281.753 139.48C280.649 139.48 279.705 139.832 278.921 140.536C278.153 141.24 277.713 142.216 277.601 143.464H285.905ZM314.41 134.392V151H312.226V138.616L306.706 151H305.17L299.626 138.592V151H297.442V134.392H299.794L305.938 148.12L312.082 134.392H314.41ZM330.114 143.92C330.114 144.336 330.09 144.776 330.042 145.24H319.53C319.61 146.536 320.05 147.552 320.85 148.288C321.666 149.008 322.65 149.368 323.802 149.368C324.746 149.368 325.53 149.152 326.154 148.72C326.794 148.272 327.242 147.68 327.498 146.944H329.85C329.498 148.208 328.794 149.24 327.738 150.04C326.682 150.824 325.37 151.216 323.802 151.216C322.554 151.216 321.434 150.936 320.442 150.376C319.466 149.816 318.698 149.024 318.138 148C317.578 146.96 317.298 145.76 317.298 144.4C317.298 143.04 317.57 141.848 318.114 140.824C318.658 139.8 319.418 139.016 320.394 138.472C321.386 137.912 322.522 137.632 323.802 137.632C325.05 137.632 326.154 137.904 327.114 138.448C328.074 138.992 328.81 139.744 329.322 140.704C329.85 141.648 330.114 142.72 330.114 143.92ZM327.858 143.464C327.858 142.632 327.674 141.92 327.306 141.328C326.938 140.72 326.434 140.264 325.794 139.96C325.17 139.64 324.474 139.48 323.706 139.48C322.602 139.48 321.658 139.832 320.874 140.536C320.106 141.24 319.666 142.216 319.554 143.464H327.858ZM335.66 139.648V147.4C335.66 148.04 335.796 148.496 336.068 148.768C336.34 149.024 336.812 149.152 337.484 149.152H339.092V151H337.124C335.908 151 334.996 150.72 334.388 150.16C333.78 149.6 333.476 148.68 333.476 147.4V139.648H331.772V137.848H333.476V134.536H335.66V137.848H339.092V139.648H335.66ZM365.105 134.392V151H362.921V138.616L357.401 151H355.865L350.321 138.592V151H348.137V134.392H350.489L356.633 148.12L362.777 134.392H365.105ZM380.473 137.848V151H378.289V149.056C377.873 149.728 377.289 150.256 376.537 150.64C375.801 151.008 374.985 151.192 374.089 151.192C373.065 151.192 372.145 150.984 371.329 150.568C370.513 150.136 369.865 149.496 369.385 148.648C368.921 147.8 368.689 146.768 368.689 145.552V137.848H370.849V145.264C370.849 146.56 371.177 147.56 371.833 148.264C372.489 148.952 373.385 149.296 374.521 149.296C375.689 149.296 376.609 148.936 377.281 148.216C377.953 147.496 378.289 146.448 378.289 145.072V137.848H380.473ZM388.817 151.216C387.809 151.216 386.905 151.048 386.105 150.712C385.305 150.36 384.673 149.88 384.209 149.272C383.745 148.648 383.489 147.936 383.441 147.136H385.697C385.761 147.792 386.065 148.328 386.609 148.744C387.169 149.16 387.897 149.368 388.793 149.368C389.625 149.368 390.281 149.184 390.761 148.816C391.241 148.448 391.481 147.984 391.481 147.424C391.481 146.848 391.225 146.424 390.713 146.152C390.201 145.864 389.409 145.584 388.337 145.312C387.361 145.056 386.561 144.8 385.937 144.544C385.329 144.272 384.801 143.88 384.353 143.368C383.921 142.84 383.705 142.152 383.705 141.304C383.705 140.632 383.905 140.016 384.305 139.456C384.705 138.896 385.273 138.456 386.009 138.136C386.745 137.8 387.585 137.632 388.529 137.632C389.985 137.632 391.161 138 392.057 138.736C392.953 139.472 393.433 140.48 393.497 141.76H391.313C391.265 141.072 390.985 140.52 390.473 140.104C389.977 139.688 389.305 139.48 388.457 139.48C387.673 139.48 387.049 139.648 386.585 139.984C386.121 140.32 385.889 140.76 385.889 141.304C385.889 141.736 386.025 142.096 386.297 142.384C386.585 142.656 386.937 142.88 387.353 143.056C387.785 143.216 388.377 143.4 389.129 143.608C390.073 143.864 390.841 144.12 391.433 144.376C392.025 144.616 392.529 144.984 392.945 145.48C393.377 145.976 393.601 146.624 393.617 147.424C393.617 148.144 393.417 148.792 393.017 149.368C392.617 149.944 392.049 150.4 391.313 150.736C390.593 151.056 389.761 151.216 388.817 151.216ZM408.7 143.92C408.7 144.336 408.676 144.776 408.628 145.24H398.116C398.196 146.536 398.636 147.552 399.436 148.288C400.252 149.008 401.236 149.368 402.388 149.368C403.332 149.368 404.116 149.152 404.74 148.72C405.38 148.272 405.828 147.68 406.084 146.944H408.436C408.084 148.208 407.38 149.24 406.324 150.04C405.268 150.824 403.956 151.216 402.388 151.216C401.14 151.216 400.02 150.936 399.028 150.376C398.052 149.816 397.284 149.024 396.724 148C396.164 146.96 395.884 145.76 395.884 144.4C395.884 143.04 396.156 141.848 396.7 140.824C397.244 139.8 398.004 139.016 398.98 138.472C399.972 137.912 401.108 137.632 402.388 137.632C403.636 137.632 404.74 137.904 405.7 138.448C406.66 138.992 407.396 139.744 407.908 140.704C408.436 141.648 408.7 142.72 408.7 143.92ZM406.444 143.464C406.444 142.632 406.26 141.92 405.892 141.328C405.524 140.72 405.02 140.264 404.38 139.96C403.756 139.64 403.06 139.48 402.292 139.48C401.188 139.48 400.244 139.832 399.46 140.536C398.692 141.24 398.252 142.216 398.14 143.464H406.444ZM423.246 137.848V151H421.062V149.056C420.646 149.728 420.062 150.256 419.31 150.64C418.574 151.008 417.758 151.192 416.862 151.192C415.838 151.192 414.918 150.984 414.102 150.568C413.286 150.136 412.638 149.496 412.158 148.648C411.694 147.8 411.462 146.768 411.462 145.552V137.848H413.622V145.264C413.622 146.56 413.95 147.56 414.606 148.264C415.262 148.952 416.158 149.296 417.294 149.296C418.462 149.296 419.382 148.936 420.054 148.216C420.726 147.496 421.062 146.448 421.062 145.072V137.848H423.246ZM442.75 137.608C443.774 137.608 444.686 137.824 445.486 138.256C446.286 138.672 446.918 139.304 447.382 140.152C447.846 141 448.078 142.032 448.078 143.248V151H445.918V143.56C445.918 142.248 445.59 141.248 444.934 140.56C444.294 139.856 443.422 139.504 442.318 139.504C441.182 139.504 440.278 139.872 439.606 140.608C438.934 141.328 438.598 142.376 438.598 143.752V151H436.438V143.56C436.438 142.248 436.11 141.248 435.454 140.56C434.814 139.856 433.942 139.504 432.838 139.504C431.702 139.504 430.798 139.872 430.126 140.608C429.454 141.328 429.118 142.376 429.118 143.752V151H426.934V137.848H429.118V139.744C429.55 139.056 430.126 138.528 430.846 138.16C431.582 137.792 432.39 137.608 433.27 137.608C434.374 137.608 435.35 137.856 436.198 138.352C437.046 138.848 437.678 139.576 438.094 140.536C438.462 139.608 439.07 138.888 439.918 138.376C440.766 137.864 441.71 137.608 442.75 137.608Z" fill="white"/>
<path d="M1123.44 134.272C1125.27 134.272 1126.84 134.616 1128.17 135.304C1129.51 135.976 1130.54 136.944 1131.24 138.208C1131.96 139.472 1132.32 140.96 1132.32 142.672C1132.32 144.384 1131.96 145.872 1131.24 147.136C1130.54 148.384 1129.51 149.344 1128.17 150.016C1126.84 150.672 1125.27 151 1123.44 151H1118.23V134.272H1123.44ZM1123.44 149.2C1125.6 149.2 1127.25 148.632 1128.39 147.496C1129.52 146.344 1130.09 144.736 1130.09 142.672C1130.09 140.592 1129.51 138.968 1128.36 137.8C1127.23 136.632 1125.59 136.048 1123.44 136.048H1120.42V149.2H1123.44ZM1147.2 143.92C1147.2 144.336 1147.18 144.776 1147.13 145.24H1136.62C1136.7 146.536 1137.14 147.552 1137.94 148.288C1138.76 149.008 1139.74 149.368 1140.89 149.368C1141.84 149.368 1142.62 149.152 1143.24 148.72C1143.88 148.272 1144.33 147.68 1144.59 146.944H1146.94C1146.59 148.208 1145.88 149.24 1144.83 150.04C1143.77 150.824 1142.46 151.216 1140.89 151.216C1139.64 151.216 1138.52 150.936 1137.53 150.376C1136.56 149.816 1135.79 149.024 1135.23 148C1134.67 146.96 1134.39 145.76 1134.39 144.4C1134.39 143.04 1134.66 141.848 1135.2 140.824C1135.75 139.8 1136.51 139.016 1137.48 138.472C1138.48 137.912 1139.61 137.632 1140.89 137.632C1142.14 137.632 1143.24 137.904 1144.2 138.448C1145.16 138.992 1145.9 139.744 1146.41 140.704C1146.94 141.648 1147.2 142.72 1147.2 143.92ZM1144.95 143.464C1144.95 142.632 1144.76 141.92 1144.4 141.328C1144.03 140.72 1143.52 140.264 1142.88 139.96C1142.26 139.64 1141.56 139.48 1140.8 139.48C1139.69 139.48 1138.75 139.832 1137.96 140.536C1137.2 141.24 1136.76 142.216 1136.64 143.464H1144.95ZM1152.27 140.272C1152.7 139.52 1153.34 138.896 1154.19 138.4C1155.05 137.888 1156.05 137.632 1157.19 137.632C1158.36 137.632 1159.41 137.912 1160.36 138.472C1161.32 139.032 1162.07 139.824 1162.61 140.848C1163.16 141.856 1163.43 143.032 1163.43 144.376C1163.43 145.704 1163.16 146.888 1162.61 147.928C1162.07 148.968 1161.32 149.776 1160.36 150.352C1159.41 150.928 1158.36 151.216 1157.19 151.216C1156.07 151.216 1155.08 150.968 1154.21 150.472C1153.37 149.96 1152.72 149.328 1152.27 148.576V157.24H1150.09V137.848H1152.27V140.272ZM1161.2 144.376C1161.2 143.384 1161 142.52 1160.6 141.784C1160.2 141.048 1159.65 140.488 1158.97 140.104C1158.29 139.72 1157.55 139.528 1156.73 139.528C1155.93 139.528 1155.19 139.728 1154.5 140.128C1153.83 140.512 1153.29 141.08 1152.87 141.832C1152.47 142.568 1152.27 143.424 1152.27 144.4C1152.27 145.392 1152.47 146.264 1152.87 147.016C1153.29 147.752 1153.83 148.32 1154.5 148.72C1155.19 149.104 1155.93 149.296 1156.73 149.296C1157.55 149.296 1158.29 149.104 1158.97 148.72C1159.65 148.32 1160.2 147.752 1160.6 147.016C1161 146.264 1161.2 145.384 1161.2 144.376ZM1165.49 144.376C1165.49 143.032 1165.76 141.856 1166.31 140.848C1166.85 139.824 1167.59 139.032 1168.54 138.472C1169.5 137.912 1170.56 137.632 1171.73 137.632C1172.88 137.632 1173.88 137.88 1174.73 138.376C1175.58 138.872 1176.21 139.496 1176.63 140.248V137.848H1178.83V151H1176.63V148.552C1176.19 149.32 1175.55 149.96 1174.68 150.472C1173.83 150.968 1172.84 151.216 1171.71 151.216C1170.54 151.216 1169.48 150.928 1168.54 150.352C1167.59 149.776 1166.85 148.968 1166.31 147.928C1165.76 146.888 1165.49 145.704 1165.49 144.376ZM1176.63 144.4C1176.63 143.408 1176.43 142.544 1176.03 141.808C1175.63 141.072 1175.08 140.512 1174.39 140.128C1173.72 139.728 1172.98 139.528 1172.16 139.528C1171.35 139.528 1170.6 139.72 1169.93 140.104C1169.26 140.488 1168.72 141.048 1168.32 141.784C1167.92 142.52 1167.72 143.384 1167.72 144.376C1167.72 145.384 1167.92 146.264 1168.32 147.016C1168.72 147.752 1169.26 148.32 1169.93 148.72C1170.6 149.104 1171.35 149.296 1172.16 149.296C1172.98 149.296 1173.72 149.104 1174.39 148.72C1175.08 148.32 1175.63 147.752 1176.03 147.016C1176.43 146.264 1176.63 145.392 1176.63 144.4ZM1184.71 139.984C1185.09 139.232 1185.64 138.648 1186.34 138.232C1187.06 137.816 1187.93 137.608 1188.96 137.608V139.864H1188.38C1185.93 139.864 1184.71 141.192 1184.71 143.848V151H1182.52V137.848H1184.71V139.984ZM1194.14 139.648V147.4C1194.14 148.04 1194.28 148.496 1194.55 148.768C1194.82 149.024 1195.29 149.152 1195.96 149.152H1197.57V151H1195.6C1194.39 151 1193.48 150.72 1192.87 150.16C1192.26 149.6 1191.96 148.68 1191.96 147.4V139.648H1190.25V137.848H1191.96V134.536H1194.14V137.848H1197.57V139.648H1194.14ZM1216.04 137.608C1217.06 137.608 1217.97 137.824 1218.77 138.256C1219.57 138.672 1220.2 139.304 1220.67 140.152C1221.13 141 1221.36 142.032 1221.36 143.248V151H1219.2V143.56C1219.2 142.248 1218.88 141.248 1218.22 140.56C1217.58 139.856 1216.71 139.504 1215.6 139.504C1214.47 139.504 1213.56 139.872 1212.89 140.608C1212.22 141.328 1211.88 142.376 1211.88 143.752V151H1209.72V143.56C1209.72 142.248 1209.4 141.248 1208.74 140.56C1208.1 139.856 1207.23 139.504 1206.12 139.504C1204.99 139.504 1204.08 139.872 1203.41 140.608C1202.74 141.328 1202.4 142.376 1202.4 143.752V151H1200.22V137.848H1202.4V139.744C1202.84 139.056 1203.41 138.528 1204.13 138.16C1204.87 137.792 1205.68 137.608 1206.56 137.608C1207.66 137.608 1208.64 137.856 1209.48 138.352C1210.33 138.848 1210.96 139.576 1211.38 140.536C1211.75 139.608 1212.36 138.888 1213.2 138.376C1214.05 137.864 1215 137.608 1216.04 137.608ZM1236.95 143.92C1236.95 144.336 1236.92 144.776 1236.87 145.24H1226.36C1226.44 146.536 1226.88 147.552 1227.68 148.288C1228.5 149.008 1229.48 149.368 1230.63 149.368C1231.58 149.368 1232.36 149.152 1232.99 148.72C1233.63 148.272 1234.07 147.68 1234.33 146.944H1236.68C1236.33 148.208 1235.63 149.24 1234.57 150.04C1233.51 150.824 1232.2 151.216 1230.63 151.216C1229.39 151.216 1228.27 150.936 1227.27 150.376C1226.3 149.816 1225.53 149.024 1224.97 148C1224.41 146.96 1224.13 145.76 1224.13 144.4C1224.13 143.04 1224.4 141.848 1224.95 140.824C1225.49 139.8 1226.25 139.016 1227.23 138.472C1228.22 137.912 1229.35 137.632 1230.63 137.632C1231.88 137.632 1232.99 137.904 1233.95 138.448C1234.91 138.992 1235.64 139.744 1236.15 140.704C1236.68 141.648 1236.95 142.72 1236.95 143.92ZM1234.69 143.464C1234.69 142.632 1234.51 141.92 1234.14 141.328C1233.77 140.72 1233.27 140.264 1232.63 139.96C1232 139.64 1231.31 139.48 1230.54 139.48C1229.43 139.48 1228.49 139.832 1227.71 140.536C1226.94 141.24 1226.5 142.216 1226.39 143.464H1234.69ZM1246.24 137.608C1247.84 137.608 1249.13 138.096 1250.12 139.072C1251.12 140.032 1251.61 141.424 1251.61 143.248V151H1249.45V143.56C1249.45 142.248 1249.12 141.248 1248.47 140.56C1247.81 139.856 1246.92 139.504 1245.78 139.504C1244.63 139.504 1243.71 139.864 1243.02 140.584C1242.35 141.304 1242.01 142.352 1242.01 143.728V151H1239.83V137.848H1242.01V139.72C1242.44 139.048 1243.03 138.528 1243.76 138.16C1244.52 137.792 1245.34 137.608 1246.24 137.608ZM1257.84 139.648V147.4C1257.84 148.04 1257.98 148.496 1258.25 148.768C1258.52 149.024 1259 149.152 1259.67 149.152H1261.28V151H1259.31C1258.09 151 1257.18 150.72 1256.57 150.16C1255.96 149.6 1255.66 148.68 1255.66 147.4V139.648H1253.96V137.848H1255.66V134.536H1257.84V137.848H1261.28V139.648H1257.84ZM1268.58 151.216C1267.57 151.216 1266.67 151.048 1265.87 150.712C1265.07 150.36 1264.43 149.88 1263.97 149.272C1263.51 148.648 1263.25 147.936 1263.2 147.136H1265.46C1265.52 147.792 1265.83 148.328 1266.37 148.744C1266.93 149.16 1267.66 149.368 1268.55 149.368C1269.39 149.368 1270.04 149.184 1270.52 148.816C1271 148.448 1271.24 147.984 1271.24 147.424C1271.24 146.848 1270.99 146.424 1270.47 146.152C1269.96 145.864 1269.17 145.584 1268.1 145.312C1267.12 145.056 1266.32 144.8 1265.7 144.544C1265.09 144.272 1264.56 143.88 1264.11 143.368C1263.68 142.84 1263.47 142.152 1263.47 141.304C1263.47 140.632 1263.67 140.016 1264.07 139.456C1264.47 138.896 1265.03 138.456 1265.77 138.136C1266.51 137.8 1267.35 137.632 1268.29 137.632C1269.75 137.632 1270.92 138 1271.82 138.736C1272.71 139.472 1273.19 140.48 1273.26 141.76H1271.07C1271.03 141.072 1270.75 140.52 1270.23 140.104C1269.74 139.688 1269.07 139.48 1268.22 139.48C1267.43 139.48 1266.81 139.648 1266.35 139.984C1265.88 140.32 1265.65 140.76 1265.65 141.304C1265.65 141.736 1265.79 142.096 1266.06 142.384C1266.35 142.656 1266.7 142.88 1267.11 143.056C1267.55 143.216 1268.14 143.4 1268.89 143.608C1269.83 143.864 1270.6 144.12 1271.19 144.376C1271.79 144.616 1272.29 144.984 1272.71 145.48C1273.14 145.976 1273.36 146.624 1273.38 147.424C1273.38 148.144 1273.18 148.792 1272.78 149.368C1272.38 149.944 1271.81 150.4 1271.07 150.736C1270.35 151.056 1269.52 151.216 1268.58 151.216Z" fill="white"/>
<path d="M1335.82 147.28H1328.52L1327.18 151H1324.87L1330.92 134.368H1333.44L1339.47 151H1337.16L1335.82 147.28ZM1335.19 145.504L1332.17 137.056L1329.15 145.504H1335.19ZM1344.29 140.296C1344.73 139.512 1345.39 138.872 1346.25 138.376C1347.12 137.88 1348.1 137.632 1349.21 137.632C1350.39 137.632 1351.45 137.912 1352.4 138.472C1353.34 139.032 1354.09 139.824 1354.63 140.848C1355.17 141.856 1355.45 143.032 1355.45 144.376C1355.45 145.704 1355.17 146.888 1354.63 147.928C1354.09 148.968 1353.33 149.776 1352.37 150.352C1351.43 150.928 1350.37 151.216 1349.21 151.216C1348.07 151.216 1347.07 150.968 1346.21 150.472C1345.36 149.976 1344.72 149.344 1344.29 148.576V151H1342.1V133.24H1344.29V140.296ZM1353.21 144.376C1353.21 143.384 1353.01 142.52 1352.61 141.784C1352.21 141.048 1351.67 140.488 1350.98 140.104C1350.31 139.72 1349.57 139.528 1348.75 139.528C1347.95 139.528 1347.21 139.728 1346.52 140.128C1345.85 140.512 1345.3 141.08 1344.89 141.832C1344.49 142.568 1344.29 143.424 1344.29 144.4C1344.29 145.392 1344.49 146.264 1344.89 147.016C1345.3 147.752 1345.85 148.32 1346.52 148.72C1347.21 149.104 1347.95 149.296 1348.75 149.296C1349.57 149.296 1350.31 149.104 1350.98 148.72C1351.67 148.32 1352.21 147.752 1352.61 147.016C1353.01 146.264 1353.21 145.384 1353.21 144.376ZM1364.06 151.216C1362.82 151.216 1361.7 150.936 1360.7 150.376C1359.7 149.816 1358.92 149.024 1358.34 148C1357.78 146.96 1357.5 145.76 1357.5 144.4C1357.5 143.056 1357.79 141.872 1358.37 140.848C1358.96 139.808 1359.76 139.016 1360.77 138.472C1361.78 137.912 1362.9 137.632 1364.15 137.632C1365.4 137.632 1366.53 137.912 1367.54 138.472C1368.54 139.016 1369.34 139.8 1369.91 140.824C1370.5 141.848 1370.8 143.04 1370.8 144.4C1370.8 145.76 1370.5 146.96 1369.89 148C1369.3 149.024 1368.49 149.816 1367.46 150.376C1366.44 150.936 1365.3 151.216 1364.06 151.216ZM1364.06 149.296C1364.84 149.296 1365.58 149.112 1366.26 148.744C1366.95 148.376 1367.5 147.824 1367.92 147.088C1368.35 146.352 1368.57 145.456 1368.57 144.4C1368.57 143.344 1368.36 142.448 1367.94 141.712C1367.53 140.976 1366.98 140.432 1366.31 140.08C1365.64 139.712 1364.91 139.528 1364.13 139.528C1363.33 139.528 1362.59 139.712 1361.92 140.08C1361.26 140.432 1360.74 140.976 1360.34 141.712C1359.94 142.448 1359.74 143.344 1359.74 144.4C1359.74 145.472 1359.93 146.376 1360.31 147.112C1360.71 147.848 1361.24 148.4 1361.9 148.768C1362.55 149.12 1363.27 149.296 1364.06 149.296ZM1385.34 137.848V151H1383.15V149.056C1382.74 149.728 1382.15 150.256 1381.4 150.64C1380.66 151.008 1379.85 151.192 1378.95 151.192C1377.93 151.192 1377.01 150.984 1376.19 150.568C1375.38 150.136 1374.73 149.496 1374.25 148.648C1373.78 147.8 1373.55 146.768 1373.55 145.552V137.848H1375.71V145.264C1375.71 146.56 1376.04 147.56 1376.7 148.264C1377.35 148.952 1378.25 149.296 1379.38 149.296C1380.55 149.296 1381.47 148.936 1382.14 148.216C1382.82 147.496 1383.15 146.448 1383.15 145.072V137.848H1385.34ZM1391.69 139.648V147.4C1391.69 148.04 1391.82 148.496 1392.1 148.768C1392.37 149.024 1392.84 149.152 1393.51 149.152H1395.12V151H1393.15C1391.94 151 1391.02 150.72 1390.42 150.16C1389.81 149.6 1389.5 148.68 1389.5 147.4V139.648H1387.8V137.848H1389.5V134.536H1391.69V137.848H1395.12V139.648H1391.69Z" fill="white"/>
<defs>
<linearGradient id="paint0_linear_116_10" x1="720" y1="0" x2="720" y2="1024" gradientUnits="userSpaceOnUse">
<stop stop-color="#3A3845"/>
<stop offset="0.5" stop-color="#826F66"/>
<stop offset="1" stop-color="#302A18"/>
</linearGradient>
</defs>
</svg>
